{"glyphs":{"0":{"ha":1035,"x_min":154,"x_max":1174,"o":"m 482 311 q 504 232 482 267 q 561 207 532 207 l 653 207 q 690 217 667 207 q 738 245 714 228 q 784 284 763 263 q 817 326 806 306 q 832 356 831 349 l 838 371 q 840 387 839 379 q 842 401 840 394 q 843 426 843 408 q 840 464 843 446 q 825 497 836 482 q 779 506 806 506 l 667 506 q 622 494 646 506 q 576 465 599 483 q 533 424 553 447 q 501 379 513 401 l 500 379 q 489 351 493 364 q 483 328 485 339 l 481 321 l 482 321 l 482 311 m 557 -43 q 385 -25 463 -43 q 260 40 308 -7 q 182 127 210 72 q 154 265 154 182 q 156 302 154 283 q 160 340 157 321 q 188 435 167 386 q 242 531 210 485 q 317 617 275 576 q 406 689 358 658 q 504 738 453 719 q 607 756 556 756 l 790 756 q 983 725 900 756 q 1110 626 1067 694 q 1158 550 1142 594 q 1174 447 1174 506 q 1172 408 1174 428 q 1167 368 1169 389 q 1113 226 1156 299 q 1006 93 1071 153 q 861 -5 942 33 q 696 -43 781 -43 l 557 -43 m 440 357 q 447 383 442 368 q 460 414 453 397 q 494 462 472 438 q 540 506 515 486 q 591 537 565 525 q 639 549 617 549 l 751 549 q 808 538 786 549 q 842 510 829 528 q 858 471 854 493 q 863 426 863 449 q 862 402 863 414 q 860 379 861 390 q 859 377 860 381 q 857 367 858 374 l 851 353 q 836 322 849 342 q 799 274 824 299 q 748 231 775 250 q 695 199 721 211 q 653 188 669 188 l 561 188 q 514 201 536 188 q 475 238 492 215 q 449 287 458 260 q 439 339 439 314 l 439 347 q 440 357 439 356 m 1124 399 q 1128 438 1126 419 q 1131 475 1131 457 q 1106 594 1131 544 q 1035 676 1081 644 q 928 722 990 707 q 790 736 865 736 l 607 736 q 461 699 533 736 q 329 604 389 663 q 229 475 269 546 q 179 338 189 404 q 175 300 176 318 q 174 265 174 282 q 201 136 174 188 q 275 55 228 85 q 388 13 322 25 q 529 0 453 0 l 668 0 q 829 37 751 0 q 969 132 907 74 q 1072 261 1031 190 q 1124 399 1114 332 z "},"1":{"ha":485,"x_min":136,"x_max":746,"o":"m 721 749 l 746 724 l 467 -43 l 169 -43 l 146 -19 l 136 -19 l 326 506 l 261 506 l 238 529 l 229 529 l 229 556 q 251 588 231 561 q 299 648 271 615 q 356 712 326 681 q 406 756 385 743 l 724 756 l 721 749 m 697 736 l 413 736 q 366 695 393 724 q 313 636 339 667 q 269 581 288 606 q 249 550 250 556 l 249 549 l 363 549 l 163 0 l 429 0 l 697 736 z "},"2":{"ha":951,"x_min":75,"x_max":1161,"o":"m 385 196 q 400 186 385 186 l 963 186 q 946 165 963 186 q 905 114 929 143 q 853 53 881 85 q 804 0 826 21 l 172 0 q 113 26 132 0 q 94 89 94 51 q 108 163 94 124 q 147 238 122 201 q 210 306 169 268 q 296 376 250 343 q 389 430 342 408 q 472 451 436 451 l 736 451 q 754 459 738 451 q 781 472 771 467 q 794 480 786 475 q 803 486 803 485 l 808 493 q 822 531 822 507 q 810 547 822 547 l 257 547 q 291 595 271 569 q 334 646 311 621 q 379 694 357 671 q 421 736 401 717 l 1035 736 q 1098 706 1078 736 q 1118 631 1118 675 q 1106 558 1118 594 q 1072 489 1094 521 q 1006 416 1047 454 q 917 345 965 378 q 820 292 869 313 q 731 271 771 271 l 453 271 q 431 262 442 271 q 411 242 419 253 l 385 196 m 258 504 l 792 504 l 785 496 q 778 493 781 496 q 775 492 776 492 q 774 490 775 492 l 775 492 q 772 490 774 490 q 771 489 772 490 l 771 490 q 755 481 760 483 q 735 471 750 478 l 472 471 q 384 448 433 471 q 286 392 335 425 q 196 319 238 358 q 132 249 154 281 q 90 167 104 208 q 75 89 75 125 q 87 29 75 56 q 125 -10 99 3 l 135 -19 q 200 -43 158 -43 l 839 -43 q 890 15 861 -21 q 945 86 919 51 q 988 147 971 121 q 1006 174 1006 172 l 979 200 l 982 206 l 451 206 l 453 207 l 451 207 q 466 222 458 215 q 481 228 474 228 l 758 228 q 851 249 800 228 q 952 304 903 271 q 1044 377 1001 338 q 1113 453 1086 417 q 1149 526 1136 488 q 1161 603 1161 564 q 1153 657 1161 632 q 1129 699 1146 682 l 1119 707 q 1088 742 1108 729 q 1035 756 1067 756 l 413 756 q 367 710 392 735 q 317 656 343 685 q 267 594 292 626 q 222 528 243 561 l 235 528 l 258 504 z "},"3":{"ha":965,"x_min":19,"x_max":1119,"o":"m 650 208 q 659 213 651 208 q 676 224 667 217 l 326 224 l 303 247 l 288 247 l 546 474 l 775 474 q 781 485 776 474 q 786 501 785 497 l 788 504 l 263 504 l 239 528 l 226 528 q 306 648 265 590 q 393 756 346 706 l 936 756 q 1001 736 972 756 q 1049 688 1029 717 l 1050 686 q 1081 645 1068 668 q 1103 598 1094 622 q 1115 549 1111 574 q 1119 504 1119 525 l 1119 501 q 1111 449 1119 475 q 1089 398 1103 422 q 1057 354 1075 374 q 1019 322 1039 335 l 1021 322 q 1038 297 1029 311 q 1047 258 1046 283 q 1039 210 1047 236 q 1024 164 1031 183 l 1018 149 q 975 61 996 97 q 921 2 954 25 q 834 -32 888 -21 q 696 -43 781 -43 l 56 -43 l 32 -19 l 19 -19 l 56 36 q 117 124 86 82 q 189 208 147 165 l 650 208 m 197 189 q 125 101 158 149 q 56 0 92 53 l 668 0 q 801 10 750 0 q 883 42 851 21 q 935 99 915 64 q 976 182 956 133 l 982 197 q 997 241 989 215 q 1004 286 1004 267 q 989 329 1003 314 q 969 356 975 344 q 1008 382 989 364 q 1043 424 1028 400 q 1067 476 1058 449 q 1076 529 1076 503 l 1076 532 q 1068 595 1076 560 q 1042 662 1060 631 q 999 715 1025 693 q 936 736 972 736 l 401 736 q 325 644 358 692 q 261 547 292 596 l 781 547 q 794 535 783 547 q 808 517 804 524 q 809 514 808 517 q 811 510 810 511 l 808 503 q 802 491 807 499 q 792 475 797 483 q 781 460 786 467 q 775 454 776 454 l 553 454 l 339 267 l 714 267 q 713 247 714 257 q 710 233 713 238 l 707 226 q 703 222 706 225 q 701 219 701 219 q 689 210 697 215 q 672 201 681 206 q 657 192 664 196 q 650 189 650 189 l 197 189 z "},"4":{"ha":942,"x_min":125,"x_max":1203,"o":"m 619 0 l 768 408 l 625 264 l 151 264 l 324 736 l 588 736 l 483 451 l 783 451 l 888 736 l 1154 736 l 886 0 l 619 0 m 636 724 l 611 749 l 614 756 l 311 756 l 125 244 l 135 244 l 158 221 l 660 221 l 690 251 l 593 -19 l 603 -19 l 626 -43 l 924 -43 l 1203 724 l 1178 749 l 1181 756 l 875 756 l 769 471 l 544 471 l 636 724 z "},"5":{"ha":942,"x_min":29,"x_max":1208,"o":"m 669 206 q 683 228 678 214 l 436 228 q 374 244 407 228 q 314 286 342 260 q 237 367 269 318 q 204 464 204 415 q 206 490 204 483 q 206 491 206 490 q 207 493 207 492 l 304 756 l 1189 756 q 1186 751 1186 753 q 1183 747 1186 750 l 1208 724 q 1121 608 1167 664 q 1022 504 1075 553 l 549 504 l 536 471 l 797 471 q 876 444 840 471 q 936 381 911 418 q 988 297 968 344 q 1008 211 1008 250 l 1008 206 q 990 123 1008 167 q 943 42 972 79 q 876 -19 914 6 q 797 -43 838 -43 l 64 -43 l 40 -19 l 29 -19 q 64 34 38 -3 q 119 109 90 71 q 174 176 149 147 q 206 206 199 206 l 669 206 m 206 186 q 181 162 201 186 q 135 106 160 138 q 90 44 111 75 q 61 0 68 14 l 769 0 q 842 23 807 0 q 905 81 878 46 q 949 156 932 115 q 965 233 965 197 l 965 239 q 953 307 965 269 q 917 376 940 344 q 864 430 894 408 q 797 451 833 451 l 533 451 q 522 459 532 451 q 506 472 511 467 q 497 480 503 475 q 492 486 492 485 l 492 493 l 511 547 l 988 547 q 1078 642 1038 594 q 1151 736 1119 689 l 317 736 l 226 490 q 224 477 225 483 q 224 464 224 471 q 242 396 224 431 q 287 333 260 361 q 347 288 314 306 q 408 271 379 271 l 686 271 q 701 262 697 271 q 706 242 706 253 q 678 186 706 214 l 206 186 z "},"6":{"ha":917,"x_min":174,"x_max":1189,"o":"m 539 239 q 547 224 544 228 q 581 208 563 208 l 649 208 l 669 239 l 539 239 m 625 506 q 594 498 608 506 q 565 478 579 490 l 865 478 q 979 406 953 460 l 983 403 q 1018 307 1018 368 q 1010 239 1018 276 l 1008 238 q 956 137 989 188 q 880 47 924 86 q 785 -18 836 7 q 681 -43 735 -43 q 573 -37 626 -43 q 469 -19 519 -32 q 376 17 419 -6 q 299 71 332 39 q 207 176 240 111 q 174 338 174 242 l 174 340 q 204 485 174 411 q 288 619 235 558 q 409 717 340 679 q 556 756 478 756 l 1169 756 q 1166 751 1167 753 q 1164 749 1165 750 l 1189 724 q 1095 608 1142 661 q 990 506 1049 554 l 625 506 m 654 282 q 686 266 681 278 q 696 242 692 254 l 661 189 l 581 189 q 531 213 551 189 q 492 269 511 238 l 483 282 l 654 282 m 967 271 q 975 335 975 306 q 949 415 975 383 q 861 458 924 446 l 483 458 q 533 522 504 494 q 597 549 563 549 l 958 549 q 1048 637 1007 590 q 1129 736 1089 683 l 556 736 q 417 699 482 736 q 301 606 351 663 q 222 478 251 549 q 193 340 193 407 l 193 338 q 233 172 193 238 q 338 69 272 107 q 485 15 403 31 q 653 0 567 0 q 753 24 704 0 q 843 86 801 47 q 917 174 885 125 q 967 271 949 222 z "},"7":{"ha":882,"x_min":49,"x_max":1174,"o":"m 238 529 l 229 529 l 229 556 q 251 588 231 561 q 299 648 271 615 q 356 712 326 681 q 406 756 385 743 l 1156 756 l 1149 749 l 1174 724 l 410 -43 l 86 -43 l 63 -19 l 49 -19 l 553 506 l 261 506 l 238 529 m 375 0 l 1108 736 l 413 736 q 366 695 393 724 q 313 636 339 667 q 269 581 288 606 q 249 550 250 556 l 249 549 l 622 549 l 94 0 l 375 0 z "},"8":{"ha":1008,"x_min":82,"x_max":1163,"o":"m 472 208 l 693 208 q 706 215 694 208 q 728 229 718 222 l 728 231 q 733 238 732 235 l 733 239 l 483 239 l 472 208 m 544 403 l 633 481 l 822 481 q 825 489 822 481 q 831 504 828 497 l 610 504 q 592 499 604 504 q 574 482 579 493 l 572 482 l 544 403 m 211 431 q 219 499 211 467 q 240 556 228 532 l 247 575 q 274 638 257 606 q 326 696 292 669 q 418 739 361 722 q 565 756 475 756 l 979 756 q 1047 735 1018 756 q 1096 685 1076 715 l 1097 685 q 1146 604 1129 653 q 1163 517 1163 556 l 1163 497 q 1149 438 1163 471 q 1113 371 1136 401 q 1063 322 1090 340 l 1064 322 q 1081 297 1072 311 q 1090 258 1089 283 l 1090 254 q 1084 216 1090 238 q 1071 176 1078 194 l 1061 149 q 1018 61 1039 97 q 964 2 997 25 q 877 -32 931 -21 q 739 -43 824 -43 l 325 -43 q 201 -34 246 -43 q 135 -4 156 -25 l 124 7 q 91 38 100 19 q 82 85 82 57 q 88 131 82 106 q 104 188 93 156 l 111 208 q 132 254 119 228 q 158 300 144 281 q 190 331 174 319 q 222 354 207 343 q 224 356 224 356 q 226 357 225 356 q 228 357 228 357 q 229 358 228 358 q 211 431 211 386 m 451 189 q 439 201 449 189 q 425 219 429 213 l 426 224 q 427 226 426 225 q 428 228 428 226 l 426 231 l 446 282 l 767 282 q 761 255 767 272 q 753 233 756 238 l 750 226 q 747 222 749 225 q 744 219 744 219 q 732 210 740 215 q 715 201 724 206 q 700 192 707 196 q 693 189 693 189 l 451 189 m 532 517 q 557 540 539 532 q 582 547 575 547 l 824 547 q 838 535 828 546 q 851 517 847 524 l 851 503 q 838 478 849 494 q 822 461 826 461 l 640 461 l 454 300 l 532 517 m 257 546 q 238 494 246 525 q 231 431 231 463 q 237 385 231 406 q 258 357 243 365 q 220 331 244 346 q 174 288 196 315 q 148 245 160 269 q 129 203 136 221 l 122 182 q 107 128 113 153 q 101 85 101 104 q 110 47 101 63 q 142 20 119 31 q 203 5 165 10 q 297 0 240 0 l 711 0 q 844 10 793 0 q 926 42 894 21 q 978 99 958 64 q 1019 182 999 133 l 1029 210 q 1042 247 1036 226 q 1047 282 1047 267 l 1047 286 q 1032 329 1046 314 q 1013 356 1018 344 q 1067 400 1042 368 q 1107 471 1093 432 q 1119 525 1119 501 l 1119 544 q 1111 607 1119 574 q 1085 669 1103 640 q 1040 717 1067 697 q 979 736 1014 736 l 565 736 q 426 720 481 736 q 340 680 372 704 q 292 626 308 656 q 265 568 275 596 l 257 546 z "},"9":{"ha":917,"x_min":15,"x_max":1033,"o":"m 558 504 l 539 474 l 664 474 q 653 488 658 481 q 644 501 649 494 q 631 504 636 504 l 558 504 m 200 472 q 252 573 218 522 q 330 665 286 624 q 425 731 374 706 q 532 756 476 756 l 543 756 q 700 749 632 756 q 819 729 768 743 q 904 692 869 715 q 961 636 939 669 l 961 638 l 963 636 l 961 636 l 963 636 q 1018 531 1003 596 q 1033 371 1033 467 l 1033 367 q 1002 224 1033 297 q 919 92 971 151 q 799 -5 867 33 q 657 -43 731 -43 l 51 -43 l 28 -19 l 15 -19 q 113 102 64 46 q 221 207 163 158 l 588 207 q 643 235 615 207 l 349 235 q 257 278 288 247 l 254 279 q 205 329 219 299 q 190 401 190 360 q 199 471 190 435 l 200 472 m 531 454 q 498 470 503 458 q 489 494 493 482 l 522 547 l 603 547 q 654 522 633 547 q 694 464 675 496 l 701 454 l 531 454 m 218 465 q 210 401 210 429 q 235 322 210 353 q 324 278 261 290 l 701 278 q 651 215 681 242 q 588 188 622 188 l 226 188 q 137 99 178 146 q 56 0 96 53 l 629 0 q 765 37 700 0 q 881 131 831 74 q 960 258 931 188 q 990 394 990 328 l 990 399 q 972 563 990 497 q 906 666 954 628 q 769 720 857 704 q 543 736 682 736 l 532 736 q 432 712 481 736 q 342 649 383 688 q 268 563 300 611 q 218 465 236 514 z "}," ":{"ha":388,"x_min":0,"x_max":0,"o":""},"!":{"ha":378,"x_min":90,"x_max":639,"o":"m 90 65 q 99 107 90 92 q 179 194 122 164 l 149 194 l 125 218 l 115 218 l 311 756 l 617 756 l 614 749 l 639 724 l 446 194 l 324 194 q 344 167 339 182 l 354 158 q 376 103 376 136 q 358 43 376 75 q 307 -12 339 11 q 263 -35 288 -26 q 214 -43 238 -43 q 143 -18 168 -43 l 133 -8 q 90 65 90 11 m 115 97 q 110 65 110 88 q 130 18 110 36 q 186 0 150 0 q 231 8 208 0 q 271 28 253 15 q 317 78 300 49 q 333 131 333 107 q 313 177 333 158 q 257 196 293 196 q 172 167 213 196 q 115 97 132 138 m 408 238 l 590 736 l 324 736 l 142 238 l 408 238 z "},"\"":{"ha":486,"x_min":250,"x_max":715,"o":"m 292 649 q 340 711 306 685 q 410 738 374 738 q 455 722 439 738 q 471 681 471 706 q 465 649 471 658 l 447 597 q 423 558 440 579 q 386 517 406 536 q 347 485 367 499 q 318 472 328 472 l 307 472 q 277 497 285 472 q 269 550 269 522 q 274 597 269 578 l 292 649 m 493 649 q 541 711 507 685 q 611 738 575 738 q 656 722 640 738 q 672 681 672 706 q 667 649 672 658 l 649 597 q 624 558 642 579 q 588 517 607 536 q 549 485 568 499 q 519 472 529 472 l 508 472 q 478 497 486 472 q 471 550 471 522 q 475 597 471 578 l 493 649 m 253 600 q 251 580 251 593 q 250 550 250 567 q 258 492 250 519 q 290 456 267 464 l 304 442 q 335 429 317 429 l 346 429 q 367 436 354 429 q 394 454 379 443 q 425 481 410 465 q 454 511 440 496 q 467 476 458 492 q 492 456 476 461 l 506 442 q 536 429 518 429 l 547 429 q 580 443 558 429 q 623 477 601 457 q 664 521 644 497 q 690 564 683 544 l 707 613 q 715 653 715 626 q 696 704 715 685 l 685 715 q 657 746 675 735 q 611 757 639 757 q 549 740 579 757 q 499 699 519 724 q 494 704 496 701 l 482 715 q 456 746 474 735 q 410 757 438 757 q 328 727 367 757 q 274 656 289 697 l 253 600 z "},"#":{"ha":1071,"x_min":44,"x_max":1310,"o":"m 629 401 l 603 329 l 710 329 l 736 401 l 629 401 m 268 142 l 93 142 l 292 329 l 336 329 l 363 401 l 188 401 l 386 589 l 431 589 l 485 736 l 751 736 l 697 589 l 804 589 l 858 736 l 1125 736 l 1071 589 l 1243 589 l 1044 401 l 1003 401 l 976 329 l 1149 329 l 950 142 l 908 142 l 857 0 l 590 0 l 642 142 l 535 142 l 483 0 l 217 0 l 268 142 m 190 -19 l 200 -19 l 224 -43 l 521 -43 l 572 99 l 606 99 l 564 -19 l 574 -19 l 597 -43 l 894 -43 l 946 99 l 985 99 l 1215 317 l 1190 342 l 1197 349 l 1038 349 l 1040 358 l 1079 358 l 1310 576 l 1285 601 l 1292 608 l 1132 608 l 1175 724 l 1150 749 l 1153 756 l 846 756 l 790 608 l 758 608 l 801 724 l 776 749 l 779 756 l 472 756 l 417 608 l 378 608 l 139 382 l 153 382 l 176 358 l 325 358 l 322 349 l 283 349 l 44 122 l 58 122 l 82 99 l 232 99 l 190 -19 m 667 358 l 699 358 l 696 349 l 664 349 l 667 358 z "},"$":{"ha":950,"x_min":39,"x_max":1218,"o":"m 715 242 q 711 265 715 253 q 696 276 707 276 l 668 276 l 636 186 l 688 186 q 712 199 708 186 q 715 225 715 211 l 715 242 m 539 547 q 513 526 524 547 q 501 493 501 506 l 501 486 q 507 480 501 485 q 515 472 513 475 q 531 462 521 467 q 543 457 542 457 l 560 457 l 592 547 l 539 547 m 393 0 l 71 0 q 99 44 78 14 q 145 106 121 75 q 190 162 169 138 q 215 186 211 186 l 461 186 l 493 276 l 326 276 q 278 288 296 276 q 250 317 260 299 q 238 359 240 335 q 235 410 235 383 l 235 490 q 254 566 235 524 q 305 647 274 608 q 375 710 336 685 q 453 736 414 736 l 661 736 l 731 929 l 906 929 l 836 736 l 1161 736 q 1088 642 1129 689 q 997 547 1047 594 l 767 547 l 735 457 l 807 457 q 883 435 851 457 q 935 381 915 414 q 965 311 956 349 q 975 242 975 274 l 975 233 q 958 156 975 197 q 915 81 942 115 q 852 23 888 46 q 779 0 817 0 l 568 0 l 497 -196 l 322 -196 l 393 0 m 296 -215 l 306 -215 l 329 -239 l 535 -239 l 606 -43 l 807 -43 q 885 -19 847 -43 q 953 42 924 6 q 1000 123 982 79 q 1018 206 1018 167 l 1018 214 q 1001 307 1018 256 q 949 394 985 358 q 890 453 925 431 q 807 476 856 476 l 794 476 l 804 504 l 1032 504 q 1131 608 1085 553 q 1218 724 1176 664 l 1193 747 q 1196 751 1196 750 q 1199 756 1196 753 l 896 756 l 954 917 l 929 942 l 932 949 l 718 949 l 647 756 l 453 756 q 369 728 411 756 q 292 659 326 700 q 237 572 258 618 q 215 490 215 526 l 215 410 q 224 324 215 363 q 268 268 232 285 l 279 258 q 309 240 292 246 q 354 233 326 233 l 457 233 l 447 206 l 215 206 q 183 176 208 206 q 129 109 158 147 q 74 34 100 71 q 39 -19 47 -3 l 50 -19 l 74 -43 l 357 -43 l 296 -215 m 549 485 l 546 476 q 549 485 546 479 m 550 488 l 549 485 q 549 486 549 486 q 550 488 550 486 z "},"%":{"ha":1128,"x_min":82,"x_max":1335,"o":"m 871 136 l 875 136 l 911 136 q 935 149 919 136 q 961 178 951 161 l 967 183 l 971 197 q 972 213 972 200 l 972 215 l 935 215 q 905 201 921 215 q 879 169 889 186 l 878 169 l 871 150 l 871 147 l 871 136 m 449 504 l 453 504 l 489 504 q 514 518 496 504 q 543 550 532 532 q 544 551 544 551 q 546 554 544 553 q 546 554 546 554 q 547 557 546 556 l 551 567 l 551 581 l 551 583 l 513 583 q 483 569 499 583 q 457 538 467 554 l 456 538 l 449 518 l 449 515 l 449 504 m 926 388 l 982 388 q 1088 370 1043 388 q 1156 313 1133 353 l 1156 311 l 1160 308 q 1196 210 1196 272 q 1192 168 1196 189 l 1192 167 q 1191 162 1192 163 q 1190 158 1190 161 l 1182 133 q 1147 69 1171 101 q 1092 13 1124 38 q 1024 -28 1061 -12 q 949 -43 988 -43 l 879 -43 q 789 -33 829 -43 q 722 3 749 -24 l 715 8 q 671 56 688 26 q 654 133 654 86 q 654 147 654 140 q 656 164 654 156 l 404 -43 l 121 -43 l 97 -19 l 82 -19 l 499 325 l 457 325 q 367 335 407 325 q 300 371 326 344 l 293 376 q 249 424 265 394 q 232 501 232 454 q 233 518 232 510 q 235 535 233 526 l 235 538 q 239 558 236 549 q 244 576 242 567 q 279 642 256 610 q 333 699 303 674 q 399 740 364 724 q 469 756 435 756 l 561 756 q 666 738 621 756 q 733 681 711 721 l 738 676 q 774 579 774 640 q 773 565 774 572 q 772 551 772 558 l 1019 756 l 1318 756 l 1310 749 l 1335 724 l 926 388 m 838 206 q 869 242 849 225 q 907 258 889 258 l 949 258 q 983 245 975 258 q 992 213 992 232 q 990 192 992 194 l 988 182 q 981 169 985 174 q 947 133 969 150 q 911 117 924 117 l 875 117 q 840 140 856 117 q 829 183 825 163 l 838 206 m 1149 199 q 1115 329 1164 290 q 982 368 1067 368 l 890 368 q 826 353 858 368 q 767 315 794 339 q 717 262 739 292 q 685 201 696 232 q 676 168 678 185 q 680 85 669 118 q 715 34 690 53 q 774 8 739 15 q 851 0 810 0 l 921 0 q 992 15 957 0 q 1056 53 1026 29 q 1107 106 1085 76 q 1140 167 1129 136 l 1146 182 q 1148 193 1147 189 q 1149 199 1149 197 m 415 574 q 447 610 426 593 q 485 626 467 626 l 526 626 q 561 613 551 626 q 571 581 571 600 q 569 560 571 563 l 565 550 q 563 543 564 546 q 560 538 561 540 q 544 518 554 528 q 524 501 535 508 q 504 490 514 494 q 489 485 494 485 l 453 485 q 418 508 433 485 q 407 551 403 531 l 415 574 m 726 567 q 726 644 735 613 q 694 697 717 676 q 638 727 672 718 q 561 736 603 736 l 469 736 q 406 722 438 736 q 345 683 374 707 q 295 630 317 660 q 263 569 274 600 q 254 536 256 553 q 258 453 247 486 q 292 402 268 421 q 352 376 317 383 q 429 368 388 368 l 499 368 q 569 383 535 368 q 633 421 604 397 q 685 474 663 444 q 718 535 707 504 l 724 550 q 726 567 726 564 m 372 0 l 1265 736 l 1025 736 l 135 0 l 372 0 z "},"&":{"ha":1144,"x_min":82,"x_max":1338,"o":"m 674 189 q 681 192 674 189 q 696 201 688 196 q 713 210 704 206 q 725 219 721 215 q 727 222 725 219 q 731 226 729 225 l 733 233 q 742 255 736 238 q 747 282 747 272 l 446 282 l 425 219 q 439 201 429 213 q 451 189 449 189 l 674 189 m 1028 274 q 1019 237 1025 256 q 1007 203 1014 218 l 1000 182 q 959 99 979 133 q 907 42 939 64 q 824 10 875 21 q 692 0 774 0 l 297 0 q 203 5 240 0 q 142 20 165 10 q 110 47 119 31 q 101 85 101 63 q 107 128 101 104 q 122 182 113 153 l 129 203 q 148 245 136 221 q 174 288 160 269 q 220 331 196 315 q 258 357 244 346 q 237 385 243 365 q 231 431 231 406 q 238 494 231 463 q 257 546 246 525 l 265 568 q 292 626 275 596 q 340 680 308 656 q 426 720 372 704 q 565 736 481 736 l 1074 736 q 1002 640 1040 688 q 918 547 964 593 l 582 547 q 557 540 575 547 q 532 517 539 532 l 454 300 l 640 461 l 1271 461 l 1072 274 l 1028 274 m 572 482 l 574 482 q 592 499 579 493 q 610 504 604 504 l 953 504 q 1045 607 1001 553 q 1131 724 1089 661 l 1106 749 q 1110 756 1107 750 l 565 756 q 418 739 475 756 q 326 696 361 722 q 274 638 292 669 q 247 575 257 606 l 240 556 q 219 499 228 532 q 211 431 211 467 q 229 358 211 386 q 228 357 228 358 q 226 357 228 357 q 224 356 225 356 q 222 354 224 356 q 190 331 207 343 q 158 300 174 319 q 132 254 144 281 q 111 208 119 228 l 104 188 q 88 131 93 156 q 82 85 82 106 q 91 38 82 57 q 124 7 100 19 l 135 -4 q 201 -34 156 -25 q 325 -43 246 -43 l 719 -43 q 858 -33 804 -43 q 944 1 911 -22 q 999 59 978 24 q 1040 144 1019 94 l 1047 168 l 1049 168 q 1068 231 1061 196 l 1107 231 l 1338 449 l 1313 474 l 1319 481 l 633 481 l 544 403 l 572 482 m 674 208 l 472 208 l 483 239 l 714 239 l 714 238 q 708 231 713 235 l 708 229 q 687 215 699 222 q 674 208 675 208 z "},"'":{"ha":285,"x_min":250,"x_max":514,"o":"m 292 649 q 340 711 306 685 q 410 738 374 738 q 455 722 439 738 q 471 681 471 706 q 465 649 471 658 l 447 597 q 423 558 440 579 q 386 517 406 536 q 347 485 367 499 q 318 472 328 472 l 307 472 q 277 497 285 472 q 269 550 269 522 q 274 597 269 578 l 292 649 m 253 600 q 251 580 251 593 q 250 550 250 567 q 258 492 250 519 q 290 456 267 464 l 304 442 q 335 429 317 429 l 346 429 q 378 443 357 429 q 422 477 400 457 q 463 521 443 497 q 489 564 482 544 l 506 613 q 514 653 514 626 q 494 704 514 685 l 483 715 q 456 746 474 735 q 410 757 438 757 q 328 727 367 757 q 274 656 289 697 l 253 600 z "},"(":{"ha":603,"x_min":163,"x_max":875,"o":"m 521 199 q 536 183 528 190 l 521 199 m 163 288 q 179 389 163 333 q 226 499 196 444 q 295 606 256 554 q 381 697 335 657 q 478 761 428 738 q 579 785 528 785 l 856 785 q 852 781 853 782 q 850 778 851 779 l 875 753 q 780 637 826 690 q 675 535 733 583 l 647 535 q 606 519 626 535 q 568 479 586 503 q 536 429 550 456 q 514 381 522 403 l 503 347 q 489 307 496 328 q 482 279 482 286 l 482 278 q 504 221 482 251 q 535 189 519 204 q 567 160 551 174 l 565 160 q 584 142 575 150 q 600 124 593 133 l 600 119 q 613 107 607 113 q 624 94 618 101 l 624 82 q 619 51 624 69 q 606 13 614 33 q 587 -28 597 -7 q 567 -71 576 -50 l 554 -96 q 498 -84 531 -92 q 428 -63 465 -76 q 355 -29 392 -50 q 286 22 318 -8 q 198 125 233 63 q 163 283 163 188 l 163 288 m 182 283 q 200 169 182 218 q 248 83 218 119 q 315 24 278 47 q 389 -15 351 0 q 460 -39 426 -31 q 518 -51 494 -47 q 539 -8 528 -31 q 559 38 550 15 q 574 78 568 60 q 581 110 581 97 l 581 118 q 547 151 571 131 q 500 197 524 172 q 458 250 476 222 q 439 306 439 278 l 439 307 q 447 338 439 315 q 461 381 454 361 l 472 414 q 496 466 481 438 q 531 519 511 494 q 574 561 551 544 q 619 578 596 578 l 643 578 q 734 666 693 619 q 815 765 775 713 l 579 765 q 482 742 531 765 q 390 681 433 719 q 308 594 346 643 q 242 491 269 544 q 198 385 214 438 q 182 288 182 332 l 182 286 l 182 283 z "},")":{"ha":601,"x_min":7,"x_max":722,"o":"m 281 568 q 270 574 275 571 q 261 581 265 578 l 261 600 q 268 635 261 613 q 285 684 275 658 q 308 737 296 710 q 333 786 321 764 q 399 772 360 782 q 483 744 439 763 q 568 696 526 725 q 642 624 610 667 q 700 532 678 585 q 722 404 722 479 l 722 399 q 706 298 722 353 q 660 188 689 243 q 592 83 632 133 q 507 -8 553 32 q 411 -71 461 -47 q 311 -94 361 -94 l 43 -94 l 19 -71 l 7 -71 q 104 50 56 -6 q 213 156 153 106 l 242 156 q 280 172 260 156 q 317 210 300 188 q 349 260 335 233 q 371 307 363 286 l 379 331 q 380 333 379 332 q 381 335 381 333 q 394 380 388 357 q 403 410 401 403 q 374 477 401 442 q 315 540 347 513 q 303 549 308 544 q 293 556 299 553 l 281 568 m 679 432 q 660 547 679 497 q 613 631 642 596 q 547 691 583 667 q 472 730 510 715 q 401 753 435 744 q 344 765 368 761 q 322 722 333 746 q 301 675 311 699 q 286 631 292 651 q 281 600 281 611 l 281 592 q 326 559 301 579 q 372 514 350 539 q 408 462 393 489 q 422 408 422 435 q 413 374 421 400 q 397 324 406 347 l 389 300 q 365 248 381 276 q 328 194 349 219 q 286 153 308 169 q 242 136 264 136 l 218 136 q 128 48 168 94 q 47 -51 88 1 l 283 -51 q 380 -28 332 -51 q 472 33 428 -6 q 554 120 517 71 q 619 223 592 169 q 663 329 647 276 q 679 426 679 382 l 679 428 l 679 432 z "},"*":{"ha":375,"x_min":257,"x_max":626,"o":"m 408 619 l 350 553 l 285 629 l 351 675 l 293 690 l 367 797 l 407 763 l 424 826 l 544 826 l 511 763 l 583 794 l 583 688 l 506 675 l 539 626 l 418 553 l 408 619 m 403 519 l 410 524 l 433 500 l 588 594 l 560 635 l 626 646 l 626 790 l 603 814 l 603 825 l 590 819 l 572 838 l 576 846 l 408 846 l 396 796 l 363 825 l 261 678 l 274 674 l 290 657 l 257 633 l 350 525 l 353 528 l 378 503 l 401 529 l 403 519 z "},"+":{"ha":674,"x_min":92,"x_max":865,"o":"m 346 271 l 140 271 l 339 458 l 414 458 l 467 601 l 654 601 l 601 458 l 799 458 l 600 271 l 533 271 l 485 136 l 297 136 l 346 271 m 271 117 l 281 117 l 304 93 l 522 93 l 571 228 l 635 228 l 865 446 l 840 471 l 847 478 l 663 478 l 704 589 l 679 614 l 682 621 l 454 621 l 400 478 l 331 478 l 92 251 l 106 251 l 129 228 l 310 228 l 271 117 z "},",":{"ha":322,"x_min":49,"x_max":351,"o":"m 90 97 q 147 167 107 138 q 232 196 188 196 q 288 177 268 196 q 308 131 308 158 q 301 97 308 122 l 281 39 q 254 -5 274 19 q 211 -50 235 -29 q 165 -85 188 -71 q 129 -100 142 -100 l 117 -100 q 92 -91 101 -100 q 77 -67 82 -82 q 70 -35 72 -53 q 68 -1 68 -18 l 68 19 q 69 39 68 36 l 90 97 m 51 46 q 49 33 49 39 q 49 19 49 28 l 49 -1 q 58 -69 49 -35 q 94 -115 67 -104 l 107 -128 q 144 -143 122 -143 l 157 -143 q 196 -128 171 -143 q 247 -90 221 -112 q 294 -41 272 -67 q 322 6 315 -15 l 343 64 q 351 103 351 90 q 329 158 351 136 l 319 167 q 288 202 310 189 q 232 215 265 215 q 136 183 181 215 q 72 104 92 150 l 51 46 z "},"-":{"ha":535,"x_min":92,"x_max":726,"o":"m 701 471 l 726 446 l 496 228 l 129 228 l 106 251 l 92 251 l 331 478 l 708 478 l 701 471 m 660 458 l 339 458 l 140 271 l 461 271 l 660 458 z "},".":{"ha":322,"x_min":65,"x_max":351,"o":"m 65 65 q 74 107 65 92 q 137 183 93 151 q 232 215 181 215 q 288 202 265 215 q 319 167 310 189 l 329 158 q 351 103 351 136 q 333 43 351 75 q 282 -12 314 11 q 238 -35 263 -26 q 189 -43 213 -43 q 118 -18 143 -43 l 108 -8 q 65 65 65 11 m 90 97 q 85 65 85 88 q 105 18 85 36 q 161 0 125 0 q 206 8 183 0 q 246 28 228 15 q 292 78 275 49 q 308 131 308 107 q 288 177 308 158 q 232 196 268 196 q 147 167 188 196 q 90 97 107 138 z "},"/":{"ha":946,"x_min":-10,"x_max":1240,"o":"m 42 0 l 875 736 l 1172 736 l 338 0 l 42 0 m 29 -43 l 371 -43 l 1240 724 l 1215 749 l 1224 756 l 868 756 l -10 -19 l 6 -19 l 29 -43 z "},":":{"ha":324,"x_min":67,"x_max":483,"o":"m 67 65 q 75 107 67 92 q 138 183 94 151 q 233 215 182 215 q 289 202 267 215 q 321 167 311 189 l 331 158 q 328 160 329 160 q 326 161 328 160 l 331 158 q 353 103 353 136 q 334 43 353 75 q 283 -12 315 11 q 239 -35 264 -26 q 190 -43 214 -43 q 119 -18 144 -43 l 110 -8 q 67 65 67 11 m 197 428 q 204 468 197 456 q 268 546 224 514 q 364 578 313 578 q 419 565 397 578 q 451 529 442 551 l 461 521 q 483 465 483 499 q 465 406 483 438 q 414 350 446 374 q 369 328 394 336 q 321 319 344 319 q 250 344 275 319 l 240 353 q 197 428 197 374 m 222 460 q 217 428 217 450 q 237 381 217 399 q 293 363 257 363 q 338 370 315 363 q 378 390 360 378 q 424 440 407 411 q 440 493 440 469 q 420 540 440 521 q 364 558 400 558 q 279 529 319 558 q 222 460 239 500 m 92 97 q 86 65 86 88 q 106 18 86 36 q 163 0 126 0 q 207 8 185 0 q 247 28 229 15 q 293 78 276 49 q 310 131 310 107 q 290 177 310 158 q 233 196 269 196 q 149 167 189 196 q 92 97 108 138 z "},";":{"ha":324,"x_min":49,"x_max":483,"o":"m 90 97 q 147 167 107 138 q 232 196 188 196 q 288 177 268 196 q 308 131 308 158 q 301 97 308 122 l 281 39 q 254 -5 274 19 q 211 -50 235 -29 q 165 -85 188 -71 q 129 -100 142 -100 l 117 -100 q 92 -91 101 -100 q 77 -67 82 -82 q 70 -35 72 -53 q 68 -1 68 -18 l 68 19 q 69 39 68 36 l 90 97 m 222 460 q 279 529 239 500 q 364 558 319 558 q 420 540 400 558 q 440 493 440 521 q 433 460 440 481 q 411 421 426 439 q 358 379 390 396 q 293 363 326 363 q 237 381 257 363 q 217 428 217 399 q 222 460 217 450 m 51 46 q 49 33 49 39 q 49 19 49 28 l 49 -1 q 58 -69 49 -35 q 94 -115 67 -104 l 107 -128 q 144 -143 122 -143 l 157 -143 q 196 -128 171 -143 q 247 -90 221 -112 q 294 -41 272 -67 q 322 6 315 -15 l 343 64 q 351 103 351 90 q 329 158 351 136 l 325 161 q 326 160 326 160 q 329 158 328 160 l 319 167 q 288 202 310 189 q 232 215 265 215 q 136 183 181 215 q 72 104 92 150 l 51 46 m 197 428 q 240 353 197 374 l 250 344 q 321 319 275 319 q 392 338 357 319 q 450 383 426 356 q 476 426 468 403 q 483 465 483 450 q 461 521 483 499 l 451 529 q 419 565 442 551 q 364 578 397 578 q 269 546 313 578 q 206 469 225 514 q 197 428 197 454 z "},"<":{"ha":664,"x_min":153,"x_max":957,"o":"m 321 -19 l 314 -19 l 153 375 l 585 756 l 940 756 l 932 749 l 957 724 l 519 338 l 672 -43 l 344 -43 l 321 -19 m 622 0 l 474 369 l 889 736 l 592 736 l 176 369 l 326 0 l 622 0 z "},"=":{"ha":633,"x_min":46,"x_max":874,"o":"m 849 601 l 874 576 l 643 358 l 178 358 l 154 382 l 140 382 l 379 608 l 856 608 l 849 601 m 754 342 l 779 317 l 549 99 l 83 99 l 60 122 l 46 122 l 285 349 l 761 349 l 754 342 m 713 329 l 293 329 l 94 142 l 514 142 l 713 329 m 807 589 l 388 589 l 189 401 l 608 401 l 807 589 z "},">":{"ha":664,"x_min":-8,"x_max":803,"o":"m 42 0 l 460 369 l 311 736 l 608 736 l 757 369 l 338 0 l 42 0 m 31 -43 l 371 -43 l 803 338 l 646 724 l 625 743 l 621 756 l 282 756 l 436 375 l -8 -19 l 7 -19 l 31 -43 z "},"?":{"ha":942,"x_min":119,"x_max":1151,"o":"m 119 65 q 128 107 119 92 q 160 156 139 133 q 207 193 181 178 l 185 217 l 172 217 q 244 299 199 254 q 340 381 289 343 q 443 445 392 419 q 533 471 494 471 l 725 471 q 745 481 740 478 q 761 490 750 483 l 761 489 q 763 490 763 490 q 765 492 764 490 l 764 490 q 764 490 764 490 q 767 492 765 490 q 775 496 772 496 l 782 504 l 249 504 l 225 528 l 213 528 q 258 594 233 561 q 308 656 282 626 q 358 710 333 685 q 403 756 382 735 l 1025 756 q 1079 742 1057 756 q 1113 706 1101 729 l 1119 699 q 1117 700 1118 700 q 1115 701 1117 700 l 1119 699 q 1144 657 1136 682 q 1151 601 1151 632 q 1139 523 1151 561 q 1103 453 1126 485 q 1034 377 1076 417 q 942 304 992 338 q 842 249 893 271 q 749 228 790 228 l 542 228 q 491 219 508 228 q 468 203 474 210 l 468 193 l 354 193 q 374 167 367 182 l 383 158 q 381 160 382 160 q 379 161 381 160 l 383 158 q 406 103 406 136 q 387 43 406 75 q 336 -12 368 11 q 292 -35 317 -26 q 243 -43 267 -43 q 172 -18 197 -43 l 163 -8 q 119 65 119 11 m 144 97 q 139 65 139 88 q 159 18 139 36 q 215 0 179 0 q 260 8 238 0 q 300 28 282 15 q 346 78 329 49 q 363 131 363 107 q 342 177 363 158 q 286 196 322 196 q 201 167 242 196 q 144 97 161 138 m 425 236 l 425 238 q 449 256 428 242 q 514 271 469 271 l 721 271 q 810 292 761 271 q 908 345 860 313 q 997 416 956 378 q 1063 489 1038 454 q 1097 556 1085 519 q 1108 629 1108 593 q 1089 705 1108 674 q 1025 736 1069 736 l 411 736 q 369 694 392 717 q 324 646 347 671 q 281 595 301 621 q 247 547 261 569 l 800 547 q 813 531 813 547 q 799 493 813 507 l 793 486 q 785 480 793 485 q 771 472 776 475 q 744 459 761 467 q 726 451 728 451 l 533 451 q 450 430 497 451 q 357 376 403 408 q 272 306 311 343 q 210 236 232 268 l 425 236 z "},"@":{"ha":1076,"x_min":161,"x_max":1224,"o":"m 640 375 q 639 364 639 374 q 660 343 639 343 q 686 352 674 343 q 703 375 699 361 q 705 385 704 382 q 706 388 706 389 q 683 407 706 407 q 658 398 669 407 q 640 375 646 389 m 532 382 q 560 428 540 406 q 606 469 581 451 q 661 497 632 486 q 717 508 690 508 q 781 483 758 508 q 803 421 803 457 q 796 381 803 411 q 792 373 793 376 q 789 367 792 369 l 807 367 q 872 376 844 367 q 910 414 899 385 q 919 463 919 432 q 887 538 919 507 q 796 578 854 568 l 618 578 q 573 561 596 578 q 531 519 550 544 q 495 466 511 494 q 471 414 479 438 q 449 345 460 376 q 438 307 438 314 l 438 306 q 456 250 438 278 q 499 197 475 222 q 546 151 522 172 q 579 118 569 131 q 627 109 593 113 q 683 106 661 106 l 692 106 q 678 64 692 100 q 638 -51 665 28 l 517 -51 q 459 -39 493 -47 q 388 -15 425 -31 q 313 24 350 0 q 247 83 276 47 q 199 169 217 119 q 181 283 181 218 l 181 286 q 207 415 181 349 q 269 540 229 478 q 358 653 308 603 q 465 735 408 704 q 578 767 521 767 l 829 767 q 888 760 853 763 q 961 749 922 757 q 1040 727 1000 742 q 1110 685 1079 713 q 1161 613 1142 657 q 1181 504 1181 569 l 1181 500 q 1161 386 1181 447 q 1053 264 1128 294 q 865 233 979 233 l 629 233 q 551 272 571 240 q 531 350 531 304 l 531 365 q 532 382 531 379 m 511 365 l 511 350 q 523 280 511 310 q 567 232 535 250 l 575 224 q 608 202 589 211 q 656 190 628 193 l 893 190 q 1001 197 951 190 q 1089 222 1050 204 q 1156 272 1128 240 q 1203 353 1185 304 q 1224 472 1224 415 l 1224 476 q 1206 585 1224 540 q 1160 658 1188 629 q 1100 718 1135 696 q 1026 753 1065 740 q 949 771 988 765 q 878 781 910 776 q 856 783 867 782 q 833 786 844 783 l 578 786 q 458 753 518 786 q 347 669 399 721 q 253 551 294 617 q 189 422 211 486 q 161 286 161 353 l 161 283 q 200 116 161 181 q 294 11 239 51 q 359 -35 325 -17 q 426 -65 393 -53 q 490 -84 460 -78 q 542 -94 519 -90 l 675 -94 q 690 -54 682 -75 q 703 -19 697 -33 q 727 50 719 28 q 735 93 735 72 l 711 117 l 711 125 l 683 125 q 660 126 674 125 q 633 127 647 126 q 608 130 619 128 q 589 135 596 132 q 577 147 583 142 q 564 160 571 153 l 565 160 q 534 189 550 174 q 503 221 518 204 q 481 278 481 251 l 481 279 q 485 296 481 283 q 494 325 489 308 q 502 347 497 336 q 511 371 507 358 l 511 365 m 646 535 l 821 535 q 855 526 839 532 q 883 513 871 521 q 900 463 900 492 q 893 425 900 439 q 846 389 882 396 l 846 393 q 817 468 846 440 l 810 474 q 775 513 799 497 q 717 528 751 528 q 665 519 692 528 q 614 497 639 511 q 567 463 589 482 q 531 424 544 444 q 554 463 540 443 q 583 499 568 483 q 615 525 599 515 q 646 535 631 535 m 539 178 l 547 171 l 547 169 l 539 178 m 585 131 l 585 132 l 581 136 q 585 131 583 133 m 618 100 l 614 103 q 614 101 614 103 q 615 101 614 101 l 618 100 z "},"A":{"ha":1082,"x_min":19,"x_max":1086,"o":"m 708 411 l 554 206 l 740 206 l 708 411 m 29 -19 l 19 -19 q 28 15 24 -1 l 28 21 l 31 24 q 51 57 40 57 q 56 56 54 57 l 531 664 l 532 665 q 553 690 539 675 q 583 720 567 706 q 617 745 600 735 q 644 756 633 756 l 878 756 q 907 744 894 756 q 929 717 919 733 l 938 710 q 957 681 949 699 q 972 645 965 664 q 983 608 978 626 q 992 575 988 589 l 1086 -43 l 808 -43 l 785 -19 l 776 -19 l 761 60 q 733 26 749 43 q 705 -5 718 10 q 680 -30 692 -19 q 663 -43 668 -40 l 53 -43 l 29 -19 m 715 513 l 764 186 l 482 186 l 482 200 l 715 513 m 949 596 q 938 637 944 613 q 924 683 932 661 q 903 721 915 706 q 878 736 892 736 l 644 736 q 620 726 635 736 q 591 702 606 715 q 564 675 576 689 q 547 653 551 661 l 47 14 l 47 10 q 44 0 47 14 l 632 0 q 663 26 642 4 q 705 75 683 49 q 744 125 726 101 q 764 157 761 149 l 793 0 l 1040 0 l 949 596 z "},"B":{"ha":990,"x_min":29,"x_max":1144,"o":"m 451 208 l 675 208 q 688 215 676 208 q 710 229 700 222 q 714 239 711 233 l 464 239 l 451 208 m 536 443 l 571 474 l 800 474 q 806 485 801 474 q 811 501 810 497 l 813 504 l 558 504 l 536 443 m 311 756 l 961 756 q 1038 738 1008 756 q 1088 689 1068 719 l 1090 686 q 1088 688 1089 686 l 1090 686 q 1133 607 1121 656 q 1144 504 1144 558 l 1144 501 q 1135 451 1144 476 q 1110 402 1125 425 q 1076 360 1094 379 q 1039 329 1057 342 q 1060 292 1051 314 q 1071 246 1069 271 q 1064 204 1071 225 q 1049 164 1057 183 l 1043 149 q 997 61 1021 97 q 937 2 972 25 q 849 -32 901 -21 q 721 -43 797 -43 l 63 -43 l 39 -19 l 29 -19 l 311 756 m 426 282 l 746 282 q 745 263 746 272 q 742 249 744 253 l 739 242 q 732 230 738 240 q 726 219 726 219 q 714 210 722 215 q 697 201 706 206 q 682 192 689 196 q 675 189 675 189 l 390 189 l 426 282 m 521 547 l 806 547 q 819 535 808 547 q 833 517 829 524 q 834 514 833 517 q 836 510 835 511 l 833 503 q 827 491 832 499 q 817 475 822 483 q 806 460 811 467 q 800 454 801 454 l 578 454 l 444 336 l 521 547 m 56 0 l 693 0 q 816 10 767 0 q 900 42 865 21 q 958 99 935 64 q 1001 182 981 133 l 1007 197 q 1021 235 1014 215 q 1028 274 1028 254 q 1014 324 1026 301 q 986 360 1001 347 q 1023 385 1003 368 q 1060 426 1043 403 q 1090 475 1078 449 q 1101 529 1101 501 l 1101 532 q 1095 608 1101 571 q 1073 674 1089 646 q 1030 719 1057 701 q 961 736 1003 736 l 324 736 l 56 0 z "},"C":{"ha":910,"x_min":174,"x_max":1189,"o":"m 174 340 q 204 485 174 411 q 288 619 235 558 q 409 717 340 679 q 556 756 478 756 l 1169 756 q 1166 751 1167 753 q 1164 749 1165 750 l 1189 724 q 1095 608 1142 661 q 990 506 1049 554 l 625 506 q 591 494 608 506 q 557 466 574 483 q 526 426 540 449 q 504 382 513 404 l 506 382 q 494 329 494 344 q 503 288 494 310 q 525 246 511 265 q 560 217 542 228 q 597 207 579 207 l 965 207 q 961 200 963 201 l 986 175 q 901 60 947 118 q 797 -43 856 1 l 681 -43 q 573 -37 626 -43 q 469 -19 519 -32 q 376 17 419 -6 q 299 71 332 39 q 207 176 240 111 q 174 338 174 242 l 174 340 m 193 338 q 233 172 193 238 q 338 69 272 107 q 485 15 403 31 q 653 0 567 0 l 764 0 q 857 91 817 42 q 929 188 897 140 l 597 188 q 548 204 574 188 q 501 246 522 221 q 465 301 479 271 q 451 357 451 331 q 463 414 451 376 q 486 462 471 438 q 520 506 501 486 q 559 537 539 525 q 597 549 579 549 l 958 549 q 1048 637 1007 590 q 1129 736 1089 683 l 556 736 q 417 699 482 736 q 301 606 351 663 q 222 478 251 549 q 193 340 193 407 l 193 338 z "},"D":{"ha":947,"x_min":29,"x_max":1129,"o":"m 393 188 l 429 188 q 507 202 463 188 q 596 240 551 217 q 678 294 640 264 q 735 354 715 324 q 753 379 742 365 q 771 411 764 393 q 788 454 779 433 q 797 493 797 475 q 787 533 797 517 q 750 549 776 549 l 525 549 l 393 188 m 1001 335 q 884 181 944 244 q 753 78 824 118 q 596 19 682 38 q 401 0 510 0 l 56 0 l 324 736 l 928 736 q 1049 690 1011 736 q 1086 574 1086 644 q 1065 456 1086 519 q 1001 335 1044 393 m 63 -43 l 429 -43 q 627 -24 539 -43 q 788 35 715 -6 q 922 142 861 76 q 1042 299 983 207 q 1108 424 1086 360 q 1129 546 1129 489 q 1118 621 1129 586 q 1083 679 1107 656 l 1079 683 q 1022 736 1058 717 q 928 756 985 756 l 311 756 l 29 -19 l 39 -19 l 63 -43 m 563 506 l 776 506 q 778 493 778 501 q 773 468 778 482 q 761 439 768 454 l 753 418 q 743 401 749 410 q 732 385 738 393 l 731 383 l 722 369 q 719 365 721 368 q 715 361 717 363 q 668 310 699 335 q 601 264 638 285 q 525 228 564 243 q 454 208 486 213 l 563 506 z "},"E":{"ha":901,"x_min":29,"x_max":1168,"o":"m 311 756 l 1147 756 q 1143 749 1144 750 l 1168 724 q 1131 665 1157 701 q 1074 592 1104 628 q 1017 531 1044 557 q 976 506 989 506 l 558 506 l 539 451 l 565 478 l 943 478 l 936 471 l 961 446 l 731 228 l 457 228 l 450 207 l 953 207 q 951 203 951 206 q 949 199 951 201 l 974 175 q 963 158 971 171 q 947 130 956 144 q 932 103 939 115 q 924 90 925 92 q 887 49 910 72 q 841 6 864 26 q 801 -29 818 -15 q 782 -43 783 -43 l 63 -43 l 39 -19 l 29 -19 l 311 756 m 56 0 l 754 0 q 772 14 756 0 q 808 48 788 28 q 851 90 829 68 q 885 129 872 113 q 892 139 886 131 q 903 157 897 147 q 914 176 908 167 q 921 188 919 185 l 389 188 l 419 271 l 696 271 l 894 458 l 574 458 l 442 331 l 521 549 l 949 549 q 984 571 960 549 q 1034 624 1008 593 q 1083 685 1060 654 q 1115 736 1106 717 l 324 736 l 56 0 z "},"F":{"ha":896,"x_min":29,"x_max":1168,"o":"m 311 756 l 1147 756 q 1143 749 1144 750 l 1168 724 q 1131 665 1157 701 q 1074 592 1104 628 q 1017 531 1044 557 q 976 506 989 506 l 558 506 l 539 451 l 565 478 l 943 478 l 936 471 l 961 446 l 731 228 l 457 228 l 358 -43 l 63 -43 l 39 -19 l 29 -19 l 311 756 m 56 0 l 321 0 l 419 271 l 696 271 l 894 458 l 574 458 l 442 331 l 521 549 l 949 549 q 984 571 960 549 q 1034 624 1008 593 q 1083 685 1060 654 q 1115 736 1106 717 l 324 736 l 56 0 z "},"G":{"ha":922,"x_min":174,"x_max":1189,"o":"m 860 0 l 653 0 q 485 15 567 0 q 338 69 403 31 q 233 172 272 107 q 193 338 193 238 q 222 475 193 404 q 301 604 251 546 q 417 699 351 663 q 556 736 482 736 l 1129 736 q 1048 637 1089 683 q 958 549 1007 590 l 597 549 q 554 537 575 549 q 516 506 533 525 q 485 462 499 486 q 463 414 471 438 q 451 357 451 376 q 465 301 451 331 q 499 246 478 271 q 547 204 521 221 q 597 188 572 188 l 679 188 l 711 278 l 554 278 l 554 279 q 572 306 556 283 q 610 358 588 329 q 656 415 632 386 q 700 458 681 443 l 1033 458 l 860 0 m 1063 478 l 693 478 q 645 431 672 461 q 594 369 618 400 q 553 312 571 338 q 535 282 536 286 l 535 258 l 543 258 l 567 235 l 675 235 l 665 207 l 597 207 q 558 218 578 207 q 521 249 538 229 q 494 329 494 288 q 506 382 494 344 l 504 382 q 525 426 513 404 q 553 466 538 449 q 587 494 568 483 q 625 506 606 506 l 990 506 q 1095 608 1049 554 q 1189 724 1142 661 l 1164 749 q 1166 751 1165 750 q 1169 756 1167 753 l 556 756 q 409 717 478 756 q 288 617 340 678 q 204 482 235 556 q 174 338 174 408 q 207 176 174 242 q 299 71 240 111 q 376 17 332 39 q 469 -19 419 -6 q 573 -37 519 -32 q 681 -43 626 -43 l 897 -43 l 1083 446 l 1060 469 l 1063 478 m 533 229 q 530 232 531 231 q 528 235 529 233 l 533 229 z "},"H":{"ha":942,"x_min":29,"x_max":1203,"o":"m 535 438 l 567 471 l 772 471 l 878 756 l 1181 756 l 1178 749 l 1203 724 l 924 -43 l 629 -43 l 606 -19 l 596 -19 l 682 221 l 456 221 l 360 -43 l 63 -43 l 39 -19 l 29 -19 l 311 756 l 617 756 l 614 749 l 639 724 l 535 438 m 322 0 l 418 264 l 718 264 l 622 0 l 886 0 l 1154 736 l 890 736 l 786 451 l 575 451 l 433 306 l 590 736 l 324 736 l 56 0 l 322 0 z "},"I":{"ha":889,"x_min":29,"x_max":1161,"o":"m 707 207 l 940 207 q 936 200 938 201 l 961 175 q 924 116 950 153 q 867 44 897 79 q 810 -17 838 8 q 769 -43 782 -43 l 61 -43 l 38 -19 l 29 -19 l 29 7 q 51 40 31 13 q 99 99 71 67 q 156 163 126 132 q 206 207 185 194 l 365 207 l 475 506 l 261 506 l 238 529 l 229 529 l 229 556 q 251 588 231 561 q 299 648 271 615 q 356 712 326 681 q 406 756 385 743 l 1140 756 q 1136 749 1138 750 l 1161 724 q 1124 665 1150 701 q 1067 592 1097 628 q 1010 531 1038 557 q 969 506 982 506 l 815 506 l 707 207 m 742 0 q 777 22 753 0 q 827 75 801 44 q 876 137 853 106 q 908 188 899 168 l 646 188 l 778 549 l 942 549 q 977 571 953 549 q 1027 624 1001 593 q 1076 685 1053 654 q 1108 736 1099 717 l 413 736 q 366 695 393 724 q 313 636 339 667 q 269 581 288 606 q 249 550 250 556 l 249 549 l 511 549 l 379 188 l 213 188 q 166 147 193 175 q 113 88 139 118 q 69 32 88 57 q 49 1 50 7 l 49 0 l 742 0 z "},"J":{"ha":829,"x_min":14,"x_max":1090,"o":"m 26 -19 l 14 -19 q 90 99 51 43 q 181 207 129 156 l 469 207 q 513 220 492 207 q 553 252 535 233 q 587 293 572 271 q 611 333 601 315 l 765 756 l 1068 756 l 1065 749 l 1090 724 l 949 335 q 883 173 915 243 q 806 55 850 103 q 699 -18 761 7 q 543 -43 636 -43 l 50 -43 l 26 -19 m 515 0 q 665 24 604 0 q 768 95 725 49 q 843 210 811 142 q 907 368 875 279 l 1042 736 l 778 736 l 628 324 q 602 281 618 304 q 566 236 586 257 q 521 201 546 215 q 469 188 496 188 l 189 188 q 111 96 144 143 q 49 0 78 49 l 475 0 l 515 0 z "},"K":{"ha":1003,"x_min":29,"x_max":1300,"o":"m 553 488 l 924 756 l 1285 756 l 1275 749 l 1300 724 l 794 336 l 1069 -43 l 736 -43 l 713 -19 l 707 -19 l 472 265 l 360 -43 l 63 -43 l 39 -19 l 29 -19 l 311 756 l 617 756 l 614 749 l 639 724 l 553 488 m 322 0 l 443 331 l 715 0 l 1013 0 l 746 368 l 1226 736 l 929 736 l 469 406 l 590 736 l 324 736 l 56 0 l 322 0 z "},"L":{"ha":811,"x_min":29,"x_max":860,"o":"m 324 736 l 589 736 l 389 188 l 829 188 q 813 164 831 188 q 769 109 796 140 q 714 47 743 78 q 665 0 685 15 l 56 0 l 324 736 m 29 -19 l 39 -19 l 63 -43 l 699 -43 q 750 11 721 -25 q 804 84 779 47 q 844 148 829 121 q 857 175 860 175 l 832 199 q 832 200 832 200 q 833 201 833 200 l 833 207 l 450 207 l 638 724 l 613 749 l 615 756 l 311 756 l 29 -19 z "},"M":{"ha":1194,"x_min":29,"x_max":1456,"o":"m 1431 749 l 1456 724 l 1176 -43 l 879 -43 l 856 -19 l 846 -19 l 940 246 l 678 -43 l 564 -43 l 540 -19 l 532 -19 l 476 279 l 360 -43 l 63 -43 l 39 -19 l 29 -19 l 311 756 l 676 756 l 678 744 l 700 724 l 757 424 l 1064 756 l 1433 756 l 1431 749 m 1407 736 l 1071 736 l 731 367 l 660 736 l 324 736 l 56 0 l 322 0 l 472 414 l 549 0 l 644 0 l 1022 414 l 872 0 l 1139 0 l 1407 736 z "},"N":{"ha":942,"x_min":29,"x_max":1203,"o":"m 700 724 l 757 425 l 878 756 l 1181 756 l 1178 749 l 1203 724 l 924 -43 l 565 -43 l 542 -19 l 533 -19 l 476 278 l 360 -43 l 63 -43 l 39 -19 l 29 -19 l 311 756 l 676 756 l 678 744 l 700 724 m 322 0 l 472 414 l 550 0 l 886 0 l 1154 736 l 890 736 l 739 322 l 660 736 l 324 736 l 56 0 l 322 0 z "},"O":{"ha":1035,"x_min":154,"x_max":1175,"o":"m 482 311 q 504 232 482 267 q 561 207 532 207 l 653 207 q 688 218 665 207 q 736 247 711 229 q 783 285 761 264 q 817 328 806 307 q 832 356 831 350 l 838 371 q 840 387 839 379 q 842 401 840 394 q 843 426 843 408 q 840 464 843 446 q 825 497 836 482 q 779 506 806 506 l 667 506 q 622 494 646 506 q 576 465 599 483 q 533 424 553 447 q 501 379 513 401 l 500 379 q 489 351 493 364 q 483 328 485 339 l 481 321 l 482 321 l 482 311 m 557 -43 q 385 -25 463 -43 q 260 40 308 -7 q 182 127 210 72 q 154 265 154 182 q 156 302 154 283 q 160 340 157 321 q 214 497 171 421 q 319 629 257 572 q 456 721 381 686 q 607 756 531 756 l 790 756 q 993 727 913 756 q 1114 635 1074 699 q 1175 460 1175 571 q 1167 368 1175 415 q 1110 210 1154 285 q 1003 78 1067 135 q 860 -10 939 22 q 696 -43 781 -43 l 557 -43 m 440 357 q 447 383 442 368 q 460 414 453 397 q 494 462 472 438 q 540 506 515 486 q 591 537 565 525 q 639 549 617 549 l 751 549 q 808 538 786 549 q 842 510 829 528 q 858 471 854 493 q 863 426 863 449 q 862 402 863 414 q 860 379 861 390 q 859 377 860 381 q 857 367 858 374 l 851 353 q 836 322 849 342 q 799 274 824 299 q 746 231 774 250 q 692 199 718 211 q 653 188 667 188 l 561 188 q 514 201 536 188 q 475 238 492 215 q 449 287 458 260 q 439 339 439 314 l 439 347 q 440 357 439 356 m 1124 399 q 1132 488 1132 446 q 1045 678 1132 621 q 790 736 958 736 l 607 736 q 462 703 533 736 q 331 615 390 669 q 231 488 271 560 q 179 338 190 415 q 175 300 176 318 q 174 265 174 282 q 201 136 174 188 q 275 55 228 85 q 388 13 322 25 q 529 0 453 0 l 668 0 q 827 32 750 0 q 966 118 904 64 q 1069 244 1028 172 q 1124 399 1111 317 z "},"P":{"ha":971,"x_min":29,"x_max":1144,"o":"m 536 443 l 571 474 l 800 474 q 806 485 801 474 q 811 501 810 497 l 813 504 l 558 504 l 536 443 m 39 -19 l 29 -19 l 311 756 l 961 756 q 1033 736 1004 756 q 1081 688 1061 717 l 1082 686 q 1112 645 1100 668 q 1131 598 1124 622 q 1141 549 1138 574 q 1144 504 1144 525 q 1115 392 1144 443 q 1041 303 1086 340 q 942 244 996 265 q 838 224 888 224 l 457 224 l 360 -43 l 63 -43 l 39 -19 m 806 547 q 819 535 808 547 q 833 517 829 524 q 834 514 833 517 q 836 510 835 511 l 833 503 q 827 491 832 499 q 817 475 822 483 q 806 460 811 467 q 800 454 801 454 l 578 454 l 444 336 l 521 547 l 806 547 m 322 0 l 419 267 l 810 267 q 908 286 857 267 q 1003 341 960 306 q 1074 425 1046 376 q 1101 532 1101 474 q 1095 595 1101 560 q 1073 662 1089 631 q 1030 715 1057 693 q 961 736 1003 736 l 324 736 l 56 0 l 322 0 z "},"Q":{"ha":1025,"x_min":156,"x_max":1168,"o":"m 482 311 q 488 269 482 290 q 506 231 493 249 q 547 208 526 213 l 486 343 q 483 322 483 329 q 482 319 482 321 l 482 311 m 500 379 q 499 375 499 376 q 497 372 499 374 l 808 372 l 815 357 l 828 344 q 832 356 831 353 l 838 371 q 842 396 839 385 l 842 410 q 836 453 842 432 q 818 492 831 475 q 763 506 794 506 l 667 506 q 622 494 646 506 q 576 465 599 483 q 533 424 553 447 q 501 379 513 401 l 500 379 m 593 -43 q 407 -23 493 -43 q 263 50 321 -3 q 185 139 214 85 q 156 275 156 193 q 160 339 156 306 q 213 497 171 422 q 317 630 256 572 q 454 722 379 688 q 607 756 529 756 l 790 756 q 979 722 899 756 q 1103 622 1060 689 q 1168 443 1168 553 q 1166 406 1168 424 q 1161 368 1164 388 q 1097 208 1147 289 q 971 61 1046 126 l 1044 -82 l 733 -82 l 710 -58 l 703 -58 l 693 -43 l 593 -43 m 579 188 l 561 188 q 514 201 536 188 q 475 238 492 215 q 449 287 458 260 q 439 339 439 314 l 439 347 q 440 357 439 356 q 447 383 442 368 q 460 414 453 397 q 494 462 472 438 q 540 506 515 486 q 591 537 565 525 q 639 549 617 549 l 735 549 q 797 536 772 549 q 835 503 821 524 q 856 459 850 483 q 861 410 861 435 l 861 393 q 860 379 861 381 q 859 377 860 381 q 857 367 858 374 l 851 353 q 836 322 849 342 q 830 310 833 315 q 824 299 826 304 l 796 353 l 504 353 l 579 188 m 1118 399 q 1123 436 1121 418 q 1125 471 1125 454 q 1101 586 1125 536 q 1033 669 1076 636 q 927 719 989 703 q 790 736 865 736 l 607 736 q 462 703 533 736 q 331 616 390 671 q 231 489 271 561 q 179 338 190 417 q 175 275 175 304 q 207 140 175 193 q 292 56 239 88 q 417 13 346 25 q 565 0 488 0 l 690 0 l 714 -39 l 992 -39 l 924 93 q 1053 238 1000 156 q 1118 399 1106 319 z "},"R":{"ha":996,"x_min":29,"x_max":1139,"o":"m 544 464 l 557 476 l 788 476 q 801 488 797 476 q 807 507 806 499 l 560 507 l 544 464 m 39 -19 l 29 -19 l 311 756 l 943 756 q 1024 735 992 756 q 1076 685 1057 715 l 1079 682 q 1108 641 1097 664 q 1126 593 1119 618 q 1136 543 1133 568 q 1139 496 1139 518 q 1108 378 1139 425 q 1029 303 1078 332 q 922 259 981 274 q 806 239 863 244 l 1060 -19 l 1054 -19 l 1078 -43 l 738 -43 l 711 -19 l 708 -19 l 454 215 l 360 -43 l 63 -43 l 39 -19 m 826 508 q 817 476 826 494 q 788 457 808 457 l 565 457 l 443 333 l 522 550 l 801 550 q 822 542 818 550 q 826 524 826 535 l 826 508 m 322 0 l 414 253 l 429 264 l 715 0 l 1013 0 l 740 279 q 859 295 796 283 q 974 334 922 307 q 1061 407 1026 361 q 1096 524 1096 453 q 1090 593 1096 556 q 1067 663 1083 631 q 1020 715 1050 694 q 943 736 990 736 l 324 736 l 56 0 l 322 0 z "},"S":{"ha":950,"x_min":39,"x_max":1218,"o":"m 715 242 q 711 265 715 253 q 696 276 707 276 l 418 276 q 343 297 376 276 q 285 348 310 317 q 249 417 261 379 q 236 490 236 454 q 256 566 236 524 q 306 647 275 608 q 375 710 336 685 q 453 736 414 736 l 1161 736 q 1088 642 1129 689 q 997 547 1047 594 l 539 547 q 513 526 524 547 q 501 493 501 506 l 501 486 q 507 480 501 485 q 515 472 513 475 q 531 462 521 467 q 543 457 542 457 l 807 457 q 883 435 851 457 q 935 381 915 414 q 965 311 956 349 q 975 242 975 274 l 975 233 q 958 156 975 197 q 915 81 942 115 q 852 23 888 46 q 779 0 817 0 l 71 0 q 99 44 78 14 q 145 106 121 75 q 190 162 169 138 q 215 186 211 186 l 688 186 q 712 199 708 186 q 715 225 715 211 l 715 233 l 715 242 m 74 -43 l 807 -43 q 885 -19 847 -43 q 953 42 924 6 q 1000 123 982 79 q 1018 206 1018 167 l 1018 214 q 1001 307 1018 256 q 949 394 985 358 q 890 453 925 431 q 807 476 856 476 l 544 476 q 553 495 547 486 q 567 504 560 504 l 1032 504 q 1131 608 1085 553 q 1218 724 1176 664 l 1193 747 q 1196 751 1196 750 q 1199 756 1196 753 l 453 756 q 369 728 411 756 q 292 659 326 700 q 238 572 258 618 q 217 490 217 526 q 244 379 217 436 q 319 288 271 322 l 321 288 q 376 249 344 264 q 446 233 408 233 l 696 233 l 696 225 q 695 212 696 218 q 688 206 694 206 l 215 206 q 183 176 208 206 q 129 109 158 147 q 74 34 100 71 q 39 -19 47 -3 l 50 -19 l 74 -43 z "},"T":{"ha":889,"x_min":229,"x_max":1161,"o":"m 238 529 l 229 529 l 229 556 q 251 588 231 561 q 299 648 271 615 q 356 712 326 681 q 406 756 385 743 l 1140 756 q 1136 749 1138 750 l 1161 724 q 1124 665 1150 701 q 1067 592 1097 628 q 1010 531 1038 557 q 969 506 982 506 l 815 506 l 615 -43 l 318 -43 l 294 -19 l 285 -19 l 475 506 l 261 506 l 238 529 m 578 0 l 778 549 l 942 549 q 977 571 953 549 q 1027 624 1001 593 q 1076 685 1053 654 q 1108 736 1099 717 l 413 736 q 366 695 393 724 q 313 636 339 667 q 269 581 288 606 q 249 550 250 556 l 249 549 l 511 549 l 311 0 l 578 0 z "},"U":{"ha":981,"x_min":147,"x_max":1242,"o":"m 324 736 l 586 736 q 511 516 538 594 q 472 399 485 438 q 457 349 460 360 q 454 335 454 339 q 447 290 447 304 q 471 215 447 242 q 533 188 494 188 l 601 188 q 663 201 635 188 q 714 236 692 215 q 753 281 736 257 q 779 324 769 304 l 929 736 l 1193 736 l 1068 393 q 997 224 1033 297 q 915 101 961 151 q 810 26 869 51 q 667 0 750 0 l 504 0 q 342 11 407 0 q 239 47 278 22 q 183 110 200 71 q 167 204 167 149 q 169 236 167 219 q 174 272 171 253 q 191 344 181 308 q 214 428 201 381 l 324 736 m 194 433 q 190 415 192 424 q 185 399 188 407 l 181 382 q 154 275 164 332 q 149 239 151 256 q 147 204 147 222 q 165 99 147 142 q 225 31 182 57 l 228 28 q 338 -26 265 -10 q 532 -43 411 -43 l 694 -43 q 843 -17 781 -43 q 953 60 906 10 q 1037 186 1000 111 q 1110 360 1074 261 l 1242 724 l 1217 749 l 1219 756 l 917 756 l 763 333 l 761 331 q 736 291 751 313 q 700 251 721 269 q 655 219 679 232 q 601 207 631 207 l 533 207 q 497 218 513 207 q 492 239 493 228 q 490 263 490 250 q 497 304 490 274 q 500 319 497 308 q 516 372 503 331 q 557 494 529 413 q 635 724 585 576 l 610 749 q 613 756 610 750 l 310 756 l 194 433 z "},"V":{"ha":1063,"x_min":288,"x_max":1349,"o":"m 571 746 l 593 724 l 647 310 l 993 756 l 1329 756 l 1324 749 l 1349 724 l 836 49 q 815 25 829 40 q 785 -6 801 10 q 752 -32 769 -21 q 722 -43 735 -43 l 493 -43 q 461 -28 476 -43 l 449 -15 q 422 6 433 -10 q 403 43 411 22 q 388 88 394 64 q 378 131 382 111 q 375 143 375 139 l 288 756 l 569 756 l 571 746 m 551 736 l 310 736 l 396 140 q 406 99 400 124 q 419 53 411 75 q 439 15 428 31 q 465 0 450 0 l 694 0 q 719 10 704 0 q 749 35 735 21 q 776 64 764 50 q 796 86 789 78 l 1289 736 l 1003 736 l 618 240 l 551 736 z "},"W":{"ha":1244,"x_min":290,"x_max":1526,"o":"m 1007 746 l 1031 724 l 1046 488 l 1215 756 l 1507 756 l 1501 747 l 1526 724 l 1092 51 q 1074 27 1085 43 q 1049 -5 1063 11 q 1022 -32 1035 -21 q 999 -43 1008 -43 l 835 -43 q 817 -36 824 -43 l 799 -18 q 765 40 775 -11 q 744 193 754 90 q 743 204 743 199 q 742 218 743 211 l 626 50 q 619 40 624 46 q 610 28 615 35 q 574 -19 593 4 q 535 -43 554 -43 l 369 -43 q 350 -35 358 -43 l 333 -18 q 313 2 321 -14 q 299 39 304 18 q 292 83 294 60 q 290 126 290 107 l 290 756 l 558 756 l 558 747 l 582 724 l 582 474 l 764 756 l 1007 756 l 1007 746 m 989 736 l 775 736 l 539 372 l 539 736 l 310 736 l 310 126 q 311 86 310 108 q 316 45 313 64 q 326 13 319 26 q 342 0 332 0 l 507 0 q 526 10 515 0 q 549 35 538 21 q 569 65 560 50 q 586 88 579 79 l 750 322 q 766 176 760 238 q 778 76 772 115 q 790 19 783 38 q 807 0 796 0 l 971 0 q 990 10 978 0 q 1013 35 1001 21 q 1035 65 1025 50 q 1051 88 1046 79 l 1471 736 l 1226 736 l 1013 397 l 989 736 z "},"X":{"ha":947,"x_min":-8,"x_max":1240,"o":"m 543 110 l 371 -43 l 31 -43 l 7 -19 l -8 -19 l 436 375 l 282 756 l 621 756 l 625 743 l 646 724 l 694 600 l 868 756 l 1224 756 l 1215 749 l 1240 724 l 803 338 l 956 -43 l 628 -43 l 604 -19 l 597 -19 l 543 110 m 538 176 l 610 0 l 906 0 l 757 369 l 1172 736 l 875 736 l 678 563 l 608 736 l 311 736 l 460 369 l 42 0 l 338 0 l 538 176 z "},"Y":{"ha":944,"x_min":281,"x_max":1239,"o":"m 644 724 l 693 600 l 867 756 l 1222 756 l 1214 749 l 1239 724 l 774 314 l 643 -43 l 346 -43 l 322 -19 l 313 -19 l 444 349 l 281 756 l 619 756 l 624 743 l 644 724 m 606 0 l 733 350 l 1171 736 l 874 736 l 676 563 l 607 736 l 310 736 l 467 350 l 339 0 l 606 0 z "},"Z":{"ha":889,"x_min":0,"x_max":1175,"o":"m 635 207 l 940 207 q 936 200 938 201 l 961 175 q 924 116 950 153 q 867 44 897 79 q 810 -17 838 8 q 769 -43 782 -43 l 38 -43 l 14 -19 l 0 -19 l 549 506 l 261 506 l 238 529 l 229 529 l 229 556 q 251 588 231 561 q 299 648 271 615 q 356 712 326 681 q 406 756 385 743 l 1157 756 l 1150 749 l 1175 724 l 635 207 m 742 0 q 777 22 753 0 q 827 75 801 44 q 876 137 853 106 q 908 188 899 168 l 535 188 l 1108 736 l 413 736 q 366 695 393 724 q 313 636 339 667 q 269 581 288 606 q 249 550 250 556 l 249 549 l 622 549 l 49 0 l 742 0 z "},"[":{"ha":606,"x_min":1,"x_max":899,"o":"m 344 849 l 878 849 q 874 842 875 843 l 899 817 q 861 758 888 794 q 805 685 835 721 q 747 624 775 650 q 707 599 719 599 l 592 599 l 422 129 l 622 129 l 618 121 l 643 97 q 633 79 640 92 q 618 53 626 67 q 603 28 610 40 q 593 14 596 17 l 592 13 q 556 -27 578 -4 q 511 -71 533 -50 q 472 -106 489 -92 q 451 -121 454 -121 l 35 -121 l 11 -97 l 1 -97 l 344 849 m 28 -78 l 424 -78 q 441 -64 425 -78 q 478 -30 457 -50 q 519 13 499 -10 q 553 51 540 35 q 560 61 554 53 q 572 79 565 69 q 583 98 578 89 q 590 110 589 107 l 361 110 l 554 642 l 679 642 q 715 664 690 642 q 765 717 739 686 q 813 778 790 747 q 846 829 836 810 l 357 829 l 28 -78 z "},"\\":{"ha":946,"x_min":281,"x_max":954,"o":"m 603 -19 l 596 -19 l 281 756 l 619 756 l 624 743 l 644 724 l 954 -43 l 626 -43 l 603 -19 m 904 0 l 607 736 l 310 736 l 608 0 l 904 0 z "},"]":{"ha":606,"x_min":0,"x_max":900,"o":"m 875 840 l 900 815 l 558 -122 l 35 -122 l 11 -99 l 0 -99 q 40 -37 13 -76 q 97 38 67 1 q 156 101 128 74 q 199 128 185 128 l 310 128 l 482 597 l 292 597 l 268 621 l 257 621 q 267 639 260 625 q 283 667 275 653 q 299 694 292 682 q 310 711 307 707 q 346 751 322 728 q 393 797 369 775 q 435 833 417 818 q 456 847 453 847 l 878 847 l 875 840 m 851 828 l 456 828 q 438 814 454 828 q 401 780 422 800 q 359 738 381 760 q 325 699 338 715 q 318 689 324 697 q 307 671 313 681 q 296 652 301 661 q 289 640 290 643 l 518 640 l 324 108 l 199 108 q 163 86 186 108 q 113 33 139 64 q 65 -29 88 3 q 32 -79 42 -61 l 521 -79 l 851 828 z "},"^":{"ha":1082,"x_min":19,"x_max":1086,"o":"m 340 0 l 44 0 q 47 10 47 14 l 47 14 l 547 653 q 564 675 551 661 q 591 702 576 689 q 620 726 606 715 q 644 736 635 736 l 878 736 q 903 721 892 736 q 924 683 915 706 q 938 637 932 661 q 949 596 944 613 l 1040 0 l 793 0 l 715 513 l 340 0 m 775 -19 l 783 -19 l 807 -43 l 1086 -43 l 992 575 q 983 608 988 589 q 972 645 978 626 q 957 681 965 664 q 938 710 949 699 l 929 717 q 907 744 919 733 q 878 756 894 756 l 644 756 q 617 745 633 756 q 583 720 600 735 q 553 690 567 706 q 532 665 539 675 l 531 664 l 56 56 q 51 57 54 57 q 31 24 40 57 l 28 21 l 28 15 q 19 -19 24 -1 l 29 -19 l 53 -43 l 375 -43 l 708 413 l 775 -19 z "},"_":{"ha":675,"x_min":-7,"x_max":768,"o":"m 743 200 l 768 175 l 538 -43 l 31 -43 l 7 -19 l -7 -19 l 232 207 l 750 207 l 743 200 m 701 188 l 240 188 l 42 0 l 503 0 l 701 188 z "},"`":{"ha":269,"x_min":276,"x_max":481,"o":"m 433 664 q 437 635 433 650 q 433 601 440 621 q 421 578 428 589 q 403 563 414 568 l 394 557 q 379 554 392 554 q 338 568 360 554 q 310 600 317 582 l 301 632 q 297 649 299 640 q 299 667 294 657 q 350 725 314 703 q 389 736 381 736 q 411 723 404 736 q 422 694 418 710 l 433 664 m 342 543 q 374 520 356 529 q 407 511 392 511 q 433 518 426 511 l 438 521 q 460 540 453 528 q 475 568 468 553 q 481 596 481 583 q 480 610 481 604 q 478 621 479 615 q 476 638 476 626 l 464 672 l 465 671 q 458 694 463 682 q 446 713 453 706 l 431 728 q 414 748 424 740 q 389 756 404 756 q 338 742 374 756 q 281 672 297 717 q 276 654 276 661 q 281 629 276 639 l 289 600 q 338 547 301 567 l 342 543 z "},"a":{"ha":1082,"x_min":19,"x_max":1086,"o":"m 708 411 l 554 206 l 740 206 l 708 411 m 29 -19 l 19 -19 q 28 15 24 -1 l 28 21 l 31 24 q 51 57 40 57 q 56 56 54 57 l 531 664 l 532 665 q 553 690 539 675 q 583 720 567 706 q 617 745 600 735 q 644 756 633 756 l 878 756 q 907 744 894 756 q 929 717 919 733 l 938 710 q 957 681 949 699 q 972 645 965 664 q 983 608 978 626 q 992 575 988 589 l 1086 -43 l 808 -43 l 785 -19 l 776 -19 l 761 60 q 733 26 749 43 q 705 -5 718 10 q 680 -30 692 -19 q 663 -43 668 -40 l 53 -43 l 29 -19 m 715 513 l 764 186 l 482 186 l 482 200 l 715 513 m 949 596 q 938 637 944 613 q 924 683 932 661 q 903 721 915 706 q 878 736 892 736 l 644 736 q 620 726 635 736 q 591 702 606 715 q 564 675 576 689 q 547 653 551 661 l 47 14 l 47 10 q 44 0 47 14 l 632 0 q 663 26 642 4 q 705 75 683 49 q 744 125 726 101 q 764 157 761 149 l 793 0 l 1040 0 l 949 596 z "},"b":{"ha":990,"x_min":29,"x_max":1144,"o":"m 451 208 l 675 208 q 688 215 676 208 q 710 229 700 222 q 714 239 711 233 l 464 239 l 451 208 m 536 443 l 571 474 l 800 474 q 806 485 801 474 q 811 501 810 497 l 813 504 l 558 504 l 536 443 m 311 756 l 961 756 q 1038 738 1008 756 q 1088 689 1068 719 l 1090 686 q 1088 688 1089 686 l 1090 686 q 1133 607 1121 656 q 1144 504 1144 558 l 1144 501 q 1135 451 1144 476 q 1110 402 1125 425 q 1076 360 1094 379 q 1039 329 1057 342 q 1060 292 1051 314 q 1071 246 1069 271 q 1064 204 1071 225 q 1049 164 1057 183 l 1043 149 q 997 61 1021 97 q 937 2 972 25 q 849 -32 901 -21 q 721 -43 797 -43 l 63 -43 l 39 -19 l 29 -19 l 311 756 m 426 282 l 746 282 q 745 263 746 272 q 742 249 744 253 l 739 242 q 732 230 738 240 q 726 219 726 219 q 714 210 722 215 q 697 201 706 206 q 682 192 689 196 q 675 189 675 189 l 390 189 l 426 282 m 521 547 l 806 547 q 819 535 808 547 q 833 517 829 524 q 834 514 833 517 q 836 510 835 511 l 833 503 q 827 491 832 499 q 817 475 822 483 q 806 460 811 467 q 800 454 801 454 l 578 454 l 444 336 l 521 547 m 56 0 l 693 0 q 816 10 767 0 q 900 42 865 21 q 958 99 935 64 q 1001 182 981 133 l 1007 197 q 1021 235 1014 215 q 1028 274 1028 254 q 1014 324 1026 301 q 986 360 1001 347 q 1023 385 1003 368 q 1060 426 1043 403 q 1090 475 1078 449 q 1101 529 1101 501 l 1101 532 q 1095 608 1101 571 q 1073 674 1089 646 q 1030 719 1057 701 q 961 736 1003 736 l 324 736 l 56 0 z "},"c":{"ha":910,"x_min":174,"x_max":1189,"o":"m 174 340 q 204 485 174 411 q 288 619 235 558 q 409 717 340 679 q 556 756 478 756 l 1169 756 q 1166 751 1167 753 q 1164 749 1165 750 l 1189 724 q 1095 608 1142 661 q 990 506 1049 554 l 625 506 q 591 494 608 506 q 557 466 574 483 q 526 426 540 449 q 504 382 513 404 l 506 382 q 494 329 494 344 q 503 288 494 310 q 525 246 511 265 q 560 217 542 228 q 597 207 579 207 l 965 207 q 961 200 963 201 l 986 175 q 901 60 947 118 q 797 -43 856 1 l 681 -43 q 573 -37 626 -43 q 469 -19 519 -32 q 376 17 419 -6 q 299 71 332 39 q 207 176 240 111 q 174 338 174 242 l 174 340 m 193 338 q 233 172 193 238 q 338 69 272 107 q 485 15 403 31 q 653 0 567 0 l 764 0 q 857 91 817 42 q 929 188 897 140 l 597 188 q 548 204 574 188 q 501 246 522 221 q 465 301 479 271 q 451 357 451 331 q 463 414 451 376 q 486 462 471 438 q 520 506 501 486 q 559 537 539 525 q 597 549 579 549 l 958 549 q 1048 637 1007 590 q 1129 736 1089 683 l 556 736 q 417 699 482 736 q 301 606 351 663 q 222 478 251 549 q 193 340 193 407 l 193 338 z "},"d":{"ha":947,"x_min":29,"x_max":1129,"o":"m 393 188 l 429 188 q 511 202 467 188 q 599 240 556 217 q 678 294 642 264 q 736 354 715 324 q 755 379 744 365 q 772 411 765 393 q 789 454 781 433 q 797 493 797 475 q 787 533 797 517 q 750 549 776 549 l 525 549 l 393 188 m 999 332 q 878 178 939 242 q 748 76 818 115 q 594 18 678 36 q 401 0 510 0 l 56 0 l 324 736 l 928 736 q 1049 690 1011 736 q 1086 574 1086 644 q 1064 455 1086 519 q 999 332 1042 390 m 63 -43 l 429 -43 q 626 -25 539 -43 q 784 34 713 -7 q 917 140 856 75 q 1039 296 978 204 q 1106 423 1083 357 q 1129 546 1129 489 q 1118 621 1129 586 q 1083 679 1107 656 l 1079 683 q 1022 736 1058 717 q 928 756 985 756 l 311 756 l 29 -19 l 39 -19 l 63 -43 m 563 506 l 776 506 q 778 493 778 501 q 773 466 778 481 q 761 436 768 451 l 757 426 q 756 422 756 424 q 754 418 756 421 q 733 382 743 394 q 729 378 731 379 q 726 375 728 378 q 718 361 719 368 q 668 309 699 335 q 601 263 638 283 q 526 227 564 242 q 454 208 488 213 l 563 506 z "},"e":{"ha":901,"x_min":29,"x_max":1168,"o":"m 311 756 l 1147 756 q 1143 749 1144 750 l 1168 724 q 1131 665 1157 701 q 1074 592 1104 628 q 1017 531 1044 557 q 976 506 989 506 l 558 506 l 539 451 l 565 478 l 943 478 l 936 471 l 961 446 l 731 228 l 457 228 l 450 207 l 953 207 q 951 203 951 206 q 949 199 951 201 l 974 175 q 963 158 971 171 q 947 130 956 144 q 932 103 939 115 q 924 90 925 92 q 887 49 910 72 q 841 6 864 26 q 801 -29 818 -15 q 782 -43 783 -43 l 63 -43 l 39 -19 l 29 -19 l 311 756 m 56 0 l 754 0 q 772 14 756 0 q 808 48 788 28 q 851 90 829 68 q 885 129 872 113 q 892 139 886 131 q 903 157 897 147 q 914 176 908 167 q 921 188 919 185 l 389 188 l 419 271 l 696 271 l 894 458 l 574 458 l 442 331 l 521 549 l 949 549 q 984 571 960 549 q 1034 624 1008 593 q 1083 685 1060 654 q 1115 736 1106 717 l 324 736 l 56 0 z "},"f":{"ha":896,"x_min":29,"x_max":1168,"o":"m 311 756 l 1147 756 q 1143 749 1144 750 l 1168 724 q 1131 665 1157 701 q 1074 592 1104 628 q 1017 531 1044 557 q 976 506 989 506 l 558 506 l 539 451 l 565 478 l 943 478 l 936 471 l 961 446 l 731 228 l 457 228 l 358 -43 l 63 -43 l 39 -19 l 29 -19 l 311 756 m 56 0 l 321 0 l 419 271 l 696 271 l 894 458 l 574 458 l 442 331 l 521 549 l 949 549 q 984 571 960 549 q 1034 624 1008 593 q 1083 685 1060 654 q 1115 736 1106 717 l 324 736 l 56 0 z "},"g":{"ha":922,"x_min":174,"x_max":1189,"o":"m 860 0 l 653 0 q 485 15 567 0 q 338 69 403 31 q 233 172 272 107 q 193 338 193 238 q 222 475 193 404 q 301 604 251 546 q 417 699 351 663 q 556 736 482 736 l 1129 736 q 1048 637 1089 683 q 958 549 1007 590 l 597 549 q 554 537 575 549 q 516 506 533 525 q 485 462 499 486 q 463 414 471 438 q 451 357 451 376 q 465 301 451 331 q 499 246 478 271 q 547 204 521 221 q 597 188 572 188 l 679 188 l 711 278 l 554 278 l 554 279 q 572 306 556 283 q 610 358 588 329 q 656 415 632 386 q 700 458 681 443 l 1033 458 l 860 0 m 1063 478 l 693 478 q 645 431 672 461 q 594 369 618 400 q 553 312 571 338 q 535 282 536 286 l 535 258 l 543 258 l 567 235 l 675 235 l 665 207 l 597 207 q 558 218 578 207 q 521 249 538 229 q 494 329 494 288 q 506 382 494 344 l 504 382 q 525 426 513 404 q 553 466 538 449 q 587 494 568 483 q 625 506 606 506 l 990 506 q 1095 608 1049 554 q 1189 724 1142 661 l 1164 749 q 1166 751 1165 750 q 1169 756 1167 753 l 556 756 q 409 717 478 756 q 288 617 340 678 q 204 482 235 556 q 174 338 174 408 q 207 176 174 242 q 299 71 240 111 q 376 17 332 39 q 469 -19 419 -6 q 573 -37 519 -32 q 681 -43 626 -43 l 897 -43 l 1083 446 l 1060 469 l 1063 478 m 533 229 q 530 232 531 231 q 528 235 529 233 l 533 229 z "},"h":{"ha":942,"x_min":29,"x_max":1203,"o":"m 535 438 l 567 471 l 772 471 l 878 756 l 1181 756 l 1178 749 l 1203 724 l 924 -43 l 629 -43 l 606 -19 l 596 -19 l 682 221 l 456 221 l 360 -43 l 63 -43 l 39 -19 l 29 -19 l 311 756 l 617 756 l 614 749 l 639 724 l 535 438 m 322 0 l 418 264 l 718 264 l 622 0 l 886 0 l 1154 736 l 890 736 l 786 451 l 575 451 l 433 306 l 590 736 l 324 736 l 56 0 l 322 0 z "},"i":{"ha":383,"x_min":32,"x_max":642,"o":"m 42 -19 l 32 -19 l 314 756 l 619 756 l 617 749 l 642 724 l 363 -43 l 65 -43 l 42 -19 m 325 0 l 593 736 l 326 736 l 58 0 l 325 0 z "},"j":{"ha":829,"x_min":14,"x_max":1090,"o":"m 26 -19 l 14 -19 q 90 99 51 43 q 181 207 129 156 l 469 207 q 513 220 492 207 q 553 252 535 233 q 587 293 572 271 q 611 333 601 315 l 765 756 l 1068 756 l 1065 749 l 1090 724 l 949 335 q 883 173 915 243 q 806 55 850 103 q 699 -18 761 7 q 543 -43 636 -43 l 50 -43 l 26 -19 m 515 0 q 665 24 604 0 q 768 95 725 49 q 843 210 811 142 q 907 368 875 279 l 1042 736 l 778 736 l 628 324 q 602 281 618 304 q 566 236 586 257 q 521 201 546 215 q 469 188 496 188 l 189 188 q 111 96 144 143 q 49 0 78 49 l 475 0 l 515 0 z "},"k":{"ha":1003,"x_min":29,"x_max":1300,"o":"m 553 488 l 924 756 l 1285 756 l 1275 749 l 1300 724 l 794 336 l 1069 -43 l 736 -43 l 713 -19 l 707 -19 l 472 265 l 360 -43 l 63 -43 l 39 -19 l 29 -19 l 311 756 l 617 756 l 614 749 l 639 724 l 553 488 m 322 0 l 443 331 l 715 0 l 1013 0 l 746 368 l 1226 736 l 929 736 l 469 406 l 590 736 l 324 736 l 56 0 l 322 0 z "},"l":{"ha":811,"x_min":29,"x_max":860,"o":"m 324 736 l 589 736 l 389 188 l 829 188 q 813 164 831 188 q 769 109 796 140 q 714 47 743 78 q 665 0 685 15 l 56 0 l 324 736 m 29 -19 l 39 -19 l 63 -43 l 699 -43 q 750 11 721 -25 q 804 84 779 47 q 844 148 829 121 q 857 175 860 175 l 832 199 q 832 200 832 200 q 833 201 833 200 l 833 207 l 450 207 l 638 724 l 613 749 l 615 756 l 311 756 l 29 -19 z "},"m":{"ha":1194,"x_min":29,"x_max":1456,"o":"m 1431 749 l 1456 724 l 1176 -43 l 879 -43 l 856 -19 l 846 -19 l 940 246 l 678 -43 l 564 -43 l 540 -19 l 532 -19 l 476 279 l 360 -43 l 63 -43 l 39 -19 l 29 -19 l 311 756 l 676 756 l 678 744 l 700 724 l 757 424 l 1064 756 l 1433 756 l 1431 749 m 1407 736 l 1071 736 l 731 367 l 660 736 l 324 736 l 56 0 l 322 0 l 472 414 l 549 0 l 644 0 l 1022 414 l 872 0 l 1139 0 l 1407 736 z "},"n":{"ha":942,"x_min":29,"x_max":1203,"o":"m 700 724 l 757 425 l 878 756 l 1181 756 l 1178 749 l 1203 724 l 924 -43 l 565 -43 l 542 -19 l 533 -19 l 476 278 l 360 -43 l 63 -43 l 39 -19 l 29 -19 l 311 756 l 676 756 l 678 744 l 700 724 m 322 0 l 472 414 l 550 0 l 886 0 l 1154 736 l 890 736 l 739 322 l 660 736 l 324 736 l 56 0 l 322 0 z "},"o":{"ha":1058,"x_min":154,"x_max":1197,"o":"m 482 311 q 504 232 482 267 q 561 207 532 207 l 676 207 q 709 218 686 207 q 757 247 732 229 q 806 285 782 264 q 840 328 829 307 q 856 356 854 350 l 861 371 q 863 387 863 379 q 865 401 864 394 q 867 426 867 408 q 863 464 867 446 q 849 497 860 482 q 803 506 829 506 l 667 506 q 622 494 646 506 q 576 465 599 483 q 533 424 553 447 q 501 379 513 401 l 500 379 q 489 351 493 364 q 483 328 485 339 l 481 321 l 482 321 l 482 311 m 557 -43 q 385 -25 463 -43 q 260 40 308 -7 q 182 127 210 72 q 154 265 154 182 q 156 302 154 283 q 160 340 157 321 q 212 492 169 418 q 317 625 254 567 q 454 719 379 683 q 607 756 529 756 l 814 756 q 1009 726 928 756 q 1133 633 1090 697 q 1181 556 1164 601 q 1197 451 1197 510 q 1196 410 1197 431 q 1190 368 1194 390 q 1135 213 1178 288 q 1028 82 1092 139 q 885 -9 964 25 q 719 -43 806 -43 l 557 -43 m 440 357 q 447 383 442 368 q 460 414 453 397 q 494 462 472 438 q 540 506 515 486 q 591 537 565 525 q 639 549 617 549 l 775 549 q 831 538 810 549 q 865 510 853 528 q 882 471 878 493 q 886 426 886 449 q 885 402 886 414 q 883 379 885 390 q 883 377 883 381 q 881 367 882 374 l 875 353 q 860 322 872 342 q 822 274 847 299 q 767 231 796 250 q 714 199 739 211 q 676 188 689 188 l 561 188 q 514 201 536 188 q 475 238 492 215 q 449 287 458 260 q 439 339 439 314 l 439 347 q 440 357 439 356 m 1147 399 q 1153 440 1151 421 q 1154 479 1154 460 q 1131 597 1154 547 q 1063 676 1107 646 q 956 722 1018 707 q 814 736 893 736 l 607 736 q 461 702 533 736 q 329 612 389 668 q 229 484 269 556 q 179 338 189 413 q 175 300 176 318 q 174 265 174 282 q 201 136 174 188 q 275 55 228 85 q 388 13 322 25 q 529 0 453 0 l 692 0 q 852 33 775 0 q 990 122 929 67 q 1093 249 1051 176 q 1147 399 1135 321 z "},"p":{"ha":971,"x_min":29,"x_max":1144,"o":"m 536 443 l 571 474 l 800 474 q 806 485 801 474 q 811 501 810 497 l 813 504 l 558 504 l 536 443 m 39 -19 l 29 -19 l 311 756 l 961 756 q 1029 736 1001 756 q 1076 688 1057 717 l 1078 686 q 1108 645 1096 668 q 1129 598 1121 622 q 1141 549 1138 574 q 1144 504 1144 525 q 1115 392 1144 443 q 1041 303 1086 340 q 942 244 996 265 q 838 224 888 224 l 457 224 l 360 -43 l 63 -43 l 39 -19 m 806 547 q 819 535 808 547 q 833 517 829 524 q 834 514 833 517 q 836 510 835 511 l 833 503 q 827 491 832 499 q 817 475 822 483 q 806 460 811 467 q 800 454 801 454 l 578 454 l 444 336 l 521 547 l 806 547 m 322 0 l 419 267 l 810 267 q 908 286 857 267 q 1003 341 960 306 q 1074 425 1046 376 q 1101 532 1101 474 q 1094 595 1101 560 q 1069 662 1086 631 q 1026 715 1053 693 q 961 736 1000 736 l 324 736 l 56 0 l 322 0 z "},"q":{"ha":1021,"x_min":156,"x_max":1168,"o":"m 482 311 q 488 269 482 290 q 506 231 493 249 q 547 208 526 213 l 486 343 q 483 322 483 329 q 482 319 482 321 l 482 311 m 500 379 q 499 375 499 376 q 497 372 499 374 l 808 372 l 815 357 l 828 344 q 832 356 831 353 l 838 371 q 842 396 839 385 l 842 410 q 836 453 842 432 q 818 492 831 475 q 763 506 794 506 l 667 506 q 622 494 646 506 q 576 465 599 483 q 533 424 553 447 q 501 379 513 401 l 500 379 m 593 -43 q 407 -23 493 -43 q 263 50 321 -3 q 185 139 214 85 q 156 275 156 193 q 160 339 156 306 q 213 493 171 418 q 317 626 256 568 q 454 720 379 685 q 607 756 529 756 l 790 756 q 979 722 899 756 q 1103 622 1060 689 q 1168 443 1168 553 q 1166 406 1168 424 q 1161 368 1164 388 q 1097 208 1147 289 q 971 61 1046 126 l 1044 -82 l 733 -82 l 710 -58 l 703 -58 l 693 -43 l 593 -43 m 579 188 l 561 188 q 514 201 536 188 q 475 238 492 215 q 449 287 458 260 q 439 339 439 314 l 439 347 q 440 357 439 356 q 447 383 442 368 q 460 414 453 397 q 494 462 472 438 q 540 506 515 486 q 591 537 565 525 q 639 549 617 549 l 735 549 q 797 536 772 549 q 835 503 821 524 q 856 459 850 483 q 861 410 861 435 l 861 393 q 860 379 861 381 q 859 377 860 381 q 857 367 858 374 l 851 353 q 836 322 849 342 q 830 310 833 315 q 824 299 826 304 l 796 353 l 504 353 l 579 188 m 1118 399 q 1123 436 1121 418 q 1125 471 1125 454 q 1101 586 1125 536 q 1033 669 1076 636 q 927 719 989 703 q 790 736 865 736 l 607 736 q 462 702 533 736 q 331 613 390 668 q 231 485 271 557 q 179 338 190 413 q 175 275 175 304 q 207 140 175 193 q 292 56 239 88 q 417 13 346 25 q 565 0 488 0 l 690 0 l 714 -39 l 992 -39 l 924 93 q 1053 238 1000 156 q 1118 399 1106 319 z "},"r":{"ha":1004,"x_min":29,"x_max":1139,"o":"m 544 464 l 557 476 l 788 476 q 801 488 797 476 q 807 507 806 499 l 560 507 l 544 464 m 39 -19 l 29 -19 l 311 756 l 943 756 q 1028 735 996 756 q 1081 685 1061 715 l 1083 682 q 1112 641 1101 664 q 1128 593 1122 618 q 1137 543 1135 568 q 1139 496 1139 518 q 1108 378 1139 425 q 1029 303 1078 332 q 922 259 981 274 q 806 239 863 244 l 1060 -19 l 1054 -19 l 1078 -43 l 738 -43 l 711 -19 l 708 -19 l 454 215 l 360 -43 l 63 -43 l 39 -19 m 826 508 q 817 476 826 494 q 788 457 808 457 l 565 457 l 443 333 l 522 550 l 801 550 q 822 542 818 550 q 826 524 826 535 l 826 508 m 322 0 l 414 253 l 429 264 l 715 0 l 1013 0 l 740 279 q 859 295 796 283 q 974 334 922 307 q 1061 407 1026 361 q 1096 524 1096 453 q 1091 593 1096 556 q 1070 663 1086 631 q 1024 715 1054 694 q 943 736 993 736 l 324 736 l 56 0 l 322 0 z "},"s":{"ha":950,"x_min":39,"x_max":1218,"o":"m 715 242 q 711 265 715 253 q 696 276 707 276 l 418 276 q 343 297 376 276 q 285 348 310 317 q 249 417 261 379 q 236 490 236 454 q 256 566 236 524 q 306 647 275 608 q 375 710 336 685 q 453 736 414 736 l 1161 736 q 1088 642 1129 689 q 997 547 1047 594 l 539 547 q 513 526 524 547 q 501 493 501 506 l 501 486 q 507 480 501 485 q 515 472 513 475 q 531 462 521 467 q 543 457 542 457 l 807 457 q 885 435 853 457 q 937 381 917 414 q 966 311 957 349 q 975 242 975 274 l 975 233 q 958 156 975 197 q 915 81 942 115 q 852 23 888 46 q 779 0 817 0 l 71 0 q 99 44 78 14 q 145 106 121 75 q 190 162 169 138 q 215 186 211 186 l 688 186 q 712 199 708 186 q 715 225 715 211 l 715 233 l 715 242 m 74 -43 l 807 -43 q 885 -19 847 -43 q 953 42 924 6 q 1000 123 982 79 q 1018 206 1018 167 l 1018 214 q 1002 306 1018 256 q 951 393 986 357 q 894 453 929 429 q 807 476 858 476 l 544 476 q 553 495 547 486 q 567 504 560 504 l 1032 504 q 1131 608 1085 553 q 1218 724 1176 664 l 1193 747 q 1196 751 1196 750 q 1199 756 1196 753 l 453 756 q 369 728 411 756 q 292 659 326 700 q 238 572 258 618 q 217 490 217 526 q 244 379 217 436 q 319 288 271 322 l 321 288 q 376 249 344 264 q 446 233 408 233 l 696 233 l 696 225 q 695 212 696 218 q 688 206 694 206 l 215 206 q 183 176 208 206 q 129 109 158 147 q 74 34 100 71 q 39 -19 47 -3 l 50 -19 l 74 -43 z "},"t":{"ha":889,"x_min":229,"x_max":1161,"o":"m 238 529 l 229 529 l 229 556 q 251 588 231 561 q 299 648 271 615 q 356 712 326 681 q 406 756 385 743 l 1140 756 q 1136 749 1138 750 l 1161 724 q 1124 665 1150 701 q 1067 592 1097 628 q 1010 531 1038 557 q 969 506 982 506 l 815 506 l 615 -43 l 318 -43 l 294 -19 l 285 -19 l 475 506 l 261 506 l 238 529 m 578 0 l 778 549 l 942 549 q 977 571 953 549 q 1027 624 1001 593 q 1076 685 1053 654 q 1108 736 1099 717 l 413 736 q 366 695 393 724 q 313 636 339 667 q 269 581 288 606 q 249 550 250 556 l 249 549 l 511 549 l 311 0 l 578 0 z "},"u":{"ha":981,"x_min":144,"x_max":1242,"o":"m 324 736 l 586 736 q 511 516 538 594 q 472 399 485 438 q 457 349 460 360 q 454 335 454 339 q 447 290 447 304 q 474 215 447 242 q 533 188 501 188 l 601 188 q 663 201 635 188 q 714 236 692 215 q 753 281 736 257 q 779 324 769 304 l 929 736 l 1193 736 l 1068 393 q 997 224 1033 297 q 915 101 961 151 q 810 26 869 51 q 667 0 750 0 l 504 0 q 340 12 406 0 q 236 49 275 24 q 181 113 197 74 q 164 208 164 153 q 165 239 164 224 q 169 274 167 254 q 189 345 176 310 q 214 428 201 381 l 324 736 m 192 424 q 188 411 189 417 q 186 400 188 406 q 181 381 183 389 q 175 361 178 372 q 161 317 168 338 q 150 276 154 296 q 146 241 147 257 q 144 208 144 225 q 163 101 144 144 q 226 29 182 57 q 338 -26 265 -8 q 532 -43 411 -43 l 694 -43 q 843 -17 781 -43 q 953 60 906 10 q 1037 186 1000 111 q 1110 360 1074 261 l 1242 724 l 1217 749 l 1219 756 l 917 756 l 761 331 q 736 291 751 313 q 700 251 721 269 q 655 219 679 232 q 601 207 631 207 l 533 207 q 497 219 511 207 q 492 239 493 228 q 490 263 490 250 q 497 304 490 274 q 500 319 497 308 q 516 372 503 331 q 557 494 529 413 q 635 724 585 576 l 610 749 q 613 756 610 750 l 310 756 l 192 424 z "},"v":{"ha":1063,"x_min":288,"x_max":1349,"o":"m 571 746 l 593 724 l 647 310 l 993 756 l 1329 756 l 1324 749 l 1349 724 l 836 49 q 815 25 829 40 q 785 -6 801 10 q 752 -32 769 -21 q 722 -43 735 -43 l 493 -43 q 461 -28 476 -43 l 449 -15 q 422 6 433 -10 q 403 43 411 22 q 388 88 394 64 q 378 131 382 111 q 375 143 375 139 l 288 756 l 569 756 l 571 746 m 551 736 l 310 736 l 396 140 q 406 99 400 124 q 419 53 411 75 q 439 15 428 31 q 465 0 450 0 l 694 0 q 719 10 704 0 q 749 35 735 21 q 776 64 764 50 q 796 86 789 78 l 1289 736 l 1003 736 l 618 240 l 551 736 z "},"w":{"ha":1244,"x_min":119,"x_max":1506,"o":"m 313 756 l 613 756 l 610 749 l 635 724 l 507 343 q 500 313 504 329 q 492 277 496 294 q 488 260 488 260 q 488 242 488 249 q 490 228 488 235 q 508 222 499 224 q 528 219 517 221 q 540 218 535 218 q 551 217 546 218 l 749 756 l 1051 756 l 1049 749 l 1074 724 l 885 206 l 979 206 l 1181 756 l 1483 756 l 1481 749 l 1506 724 l 1226 -43 l 474 -43 q 301 -22 367 -43 q 200 35 236 -1 q 138 101 156 63 q 119 185 119 140 q 124 234 119 211 q 139 283 129 257 l 313 756 m 157 276 q 144 231 149 253 q 139 185 139 208 q 154 114 139 147 q 205 56 169 81 q 299 15 240 31 q 446 0 358 0 l 1189 0 l 1457 736 l 1193 736 l 993 186 l 825 186 l 1025 736 l 761 736 l 564 193 q 522 200 543 199 q 483 209 500 201 q 455 233 465 217 q 444 288 444 250 q 447 303 444 292 q 453 327 450 314 q 459 353 456 340 q 464 374 463 367 l 586 736 l 325 736 l 157 276 z "},"x":{"ha":947,"x_min":-8,"x_max":1240,"o":"m 543 110 l 371 -43 l 31 -43 l 7 -19 l -8 -19 l 436 375 l 282 756 l 621 756 l 625 743 l 646 724 l 694 600 l 868 756 l 1224 756 l 1215 749 l 1240 724 l 803 338 l 956 -43 l 628 -43 l 604 -19 l 597 -19 l 543 110 m 538 176 l 610 0 l 906 0 l 757 369 l 1172 736 l 875 736 l 678 563 l 608 736 l 311 736 l 460 369 l 42 0 l 338 0 l 538 176 z "},"y":{"ha":944,"x_min":281,"x_max":1239,"o":"m 644 724 l 693 600 l 867 756 l 1222 756 l 1214 749 l 1239 724 l 774 314 l 643 -43 l 346 -43 l 322 -19 l 313 -19 l 444 349 l 281 756 l 619 756 l 624 743 l 644 724 m 606 0 l 733 350 l 1171 736 l 874 736 l 676 563 l 607 736 l 310 736 l 467 350 l 339 0 l 606 0 z "},"z":{"ha":889,"x_min":0,"x_max":1175,"o":"m 635 207 l 940 207 q 936 200 938 201 l 961 175 q 924 116 950 153 q 867 44 897 79 q 810 -17 838 8 q 769 -43 782 -43 l 38 -43 l 14 -19 l 0 -19 l 549 506 l 261 506 l 238 529 l 229 529 l 229 556 q 251 588 231 561 q 299 648 271 615 q 356 712 326 681 q 406 756 385 743 l 1157 756 l 1150 749 l 1175 724 l 635 207 m 742 0 q 777 22 753 0 q 827 75 801 44 q 876 137 853 106 q 908 188 899 168 l 535 188 l 1108 736 l 413 736 q 366 695 393 724 q 313 636 339 667 q 269 581 288 606 q 249 550 250 556 l 249 549 l 622 549 l 49 0 l 742 0 z "},"{":{"ha":804,"x_min":92,"x_max":1097,"o":"m 1044 829 q 1012 778 1035 810 q 963 717 989 747 q 913 664 938 686 q 878 642 889 642 l 753 642 l 560 110 l 789 110 q 782 98 788 107 q 770 79 776 89 q 758 61 764 69 q 751 51 753 53 q 718 13 739 35 q 676 -30 697 -10 q 640 -64 656 -50 q 622 -78 624 -78 l 226 -78 l 353 271 l 140 271 l 339 458 l 421 458 l 556 829 l 1044 829 m 543 849 l 407 478 l 331 478 l 92 251 l 106 251 l 129 228 l 317 228 l 200 -97 l 210 -97 l 233 -121 l 650 -121 q 670 -106 653 -121 q 710 -71 688 -92 q 754 -27 732 -50 q 790 13 776 -4 l 792 14 q 801 28 794 17 q 817 53 808 40 q 832 79 825 67 q 842 97 839 92 l 817 121 l 821 129 l 621 129 l 790 599 l 906 599 q 946 624 918 599 q 1003 685 974 650 q 1060 758 1033 721 q 1097 817 1086 794 l 1072 842 q 1076 849 1074 843 l 543 849 z "},"|":{"ha":378,"x_min":-42,"x_max":708,"o":"m -32 -215 l -42 -215 l 381 949 l 686 949 l 683 942 l 708 917 l 289 -239 l -8 -239 l -32 -215 m 251 -196 l 660 929 l 393 929 l -15 -196 l 251 -196 z "},"}":{"ha":804,"x_min":0,"x_max":1004,"o":"m 32 -79 q 65 -29 42 -61 q 113 33 88 3 q 163 86 139 64 q 199 108 186 108 l 324 108 l 518 640 l 289 640 q 296 652 290 643 q 307 671 301 661 q 318 689 313 681 q 325 699 324 697 q 359 738 338 715 q 401 780 381 760 q 438 814 422 800 q 456 828 454 828 l 851 828 l 725 479 l 938 479 l 738 292 l 656 292 l 521 -79 l 32 -79 m 900 815 l 875 840 l 878 847 l 456 847 q 435 833 453 847 q 395 797 418 818 q 349 753 372 776 q 311 713 325 729 q 302 699 310 711 q 285 670 294 686 q 268 640 276 654 q 257 621 260 626 l 268 621 l 292 597 l 482 597 l 310 128 l 199 128 q 156 101 185 128 q 97 38 128 74 q 40 -37 67 1 q 0 -99 13 -76 l 11 -99 l 35 -122 l 558 -122 l 693 249 l 772 249 l 1004 467 l 979 492 l 986 499 l 785 499 l 900 815 z "},"~":{"ha":607,"x_min":96,"x_max":772,"o":"m 594 458 l 731 458 q 728 455 731 458 q 711 436 726 451 q 663 387 696 421 q 568 290 629 353 q 551 278 561 285 q 533 271 540 271 l 413 271 l 367 365 l 278 271 l 142 271 l 304 439 q 322 451 311 444 q 339 458 332 458 l 461 458 l 506 364 l 594 458 m 339 478 q 319 471 329 478 q 299 457 308 464 l 300 458 q 297 456 297 457 q 293 454 296 456 q 297 460 297 458 l 96 251 l 110 251 l 133 228 l 313 228 l 378 297 l 400 251 l 407 251 l 431 228 l 561 228 q 583 235 572 228 q 604 250 594 243 q 606 250 606 251 q 607 251 606 250 q 708 354 672 318 q 758 409 743 390 q 772 433 772 428 q 765 446 771 439 l 749 463 q 739 478 749 468 l 586 478 l 517 406 l 499 446 l 479 464 l 474 478 l 339 478 z "},"":{"ha":243,"x_min":0,"x_max":0,"o":""},"":{"ha":1061,"x_min":58,"x_max":1340,"o":"m 669 228 q 749 188 706 188 l 1081 188 q 1008 91 1049 140 q 915 0 968 42 l 804 0 q 661 10 732 0 q 530 47 590 21 q 425 117 469 74 q 361 228 381 161 l 125 228 l 299 339 l 344 339 l 347 381 l 181 381 l 354 492 l 381 492 q 437 585 403 540 q 513 663 471 629 q 605 716 556 696 q 707 736 654 736 l 1281 736 q 1199 637 1240 683 q 1110 549 1158 590 l 749 549 q 699 532 722 549 q 657 492 675 515 l 931 492 l 757 381 l 604 381 l 601 349 q 604 339 601 353 l 875 339 l 701 228 l 669 228 m 942 358 l 819 358 l 1010 479 l 985 503 l 989 506 l 1142 506 q 1247 608 1200 554 q 1340 724 1293 661 l 1315 749 q 1317 751 1317 750 q 1321 756 1318 753 l 707 756 q 605 735 654 756 q 512 682 556 715 q 432 604 468 649 q 369 511 396 560 l 347 511 l 114 361 l 133 361 l 157 338 l 258 338 l 58 208 l 78 208 l 101 185 l 357 185 q 439 81 388 122 l 443 76 q 521 20 476 43 q 616 -17 565 -3 q 722 -37 667 -31 q 832 -43 776 -43 l 949 -43 q 1053 60 1007 1 q 1138 175 1099 118 l 1113 200 q 1117 207 1114 201 l 767 207 l 954 326 l 929 350 l 942 358 z "},"":{"ha":322,"x_min":47,"x_max":351,"o":"m 90 97 q 147 167 107 138 q 232 196 188 196 q 297 167 276 196 q 301 97 317 138 l 281 39 q 254 -5 274 19 q 211 -50 235 -29 q 165 -85 188 -71 q 129 -100 142 -100 l 117 -100 q 85 -84 96 -100 q 71 -47 75 -68 q 67 -1 67 -25 q 69 39 68 22 l 90 97 m 50 43 q 48 23 49 35 q 47 -4 47 11 q 56 -69 47 -36 q 92 -114 65 -103 l 106 -128 q 144 -143 121 -143 l 157 -143 q 196 -128 171 -143 q 247 -90 221 -112 q 294 -41 272 -67 q 322 6 315 -15 l 343 64 q 351 103 351 85 q 329 158 351 136 l 319 167 q 286 202 308 189 q 232 215 264 215 q 136 183 181 215 q 72 104 92 150 l 50 43 z "},"":{"ha":1250,"x_min":174,"x_max":1388,"o":"m 636 382 q 638 399 640 396 q 621 419 638 419 q 564 369 599 419 l 560 360 q 569 324 547 324 q 608 336 579 324 q 636 382 631 365 m 944 429 l 900 378 l 942 378 l 944 429 m 388 306 l 353 294 l 424 449 l 449 454 l 388 306 m 544 421 q 532 425 538 425 q 489 403 515 425 q 447 342 458 374 q 464 313 435 313 q 477 313 471 313 q 490 315 483 314 l 483 290 q 453 283 453 283 q 426 350 414 283 q 429 361 425 351 l 432 369 q 561 458 457 442 l 544 421 m 671 403 q 579 297 615 297 q 567 295 572 296 q 557 294 561 294 q 521 319 518 294 q 619 453 557 422 l 625 453 l 633 453 q 671 403 675 453 m 750 297 q 696 369 717 297 l 669 299 l 647 294 l 700 447 l 742 350 l 783 454 l 804 447 l 750 297 m 813 313 l 776 301 l 844 454 l 874 461 l 813 313 m 925 310 q 907 346 922 346 q 860 310 889 346 l 832 310 q 878 386 851 349 q 942 460 906 424 q 963 464 947 464 q 979 417 988 464 l 939 303 l 925 310 m 1064 303 q 1011 378 1033 303 l 983 303 l 963 301 l 1017 453 l 1056 356 l 1100 461 l 1119 453 l 1064 303 m 1089 269 l 1079 289 l 1100 303 l 1118 294 l 1089 269 m 1132 342 l 1111 346 l 1158 461 l 1189 453 l 1132 342 m 1311 408 l 1215 479 l 1300 503 l 1308 503 l 1306 521 l 1150 564 l 1228 615 l 1025 615 l 1063 675 l 854 642 l 867 693 l 856 701 l 689 624 l 650 675 l 533 575 q 511 569 524 569 q 450 607 488 569 l 393 486 l 299 496 l 293 460 l 318 383 l 218 375 l 318 299 l 219 256 l 383 210 l 304 161 l 511 151 l 467 92 l 669 135 l 681 100 l 661 67 l 843 151 l 892 100 l 1004 204 l 1089 168 l 1140 289 l 1232 269 l 1238 281 q 1213 383 1246 304 l 1313 392 l 1311 408 m 1338 401 l 1311 365 l 1243 365 l 1263 299 q 1263 289 1264 297 l 1260 282 q 1222 246 1249 254 l 1154 263 l 1108 161 q 1072 142 1096 142 q 1042 151 1056 142 q 1008 175 1028 160 l 900 82 l 860 74 l 833 125 l 660 40 l 639 49 l 657 100 l 457 67 l 440 82 l 464 125 l 275 143 l 288 175 l 321 204 l 210 229 q 199 263 186 229 l 261 306 l 194 350 l 201 392 l 289 408 l 267 469 l 292 521 l 378 511 q 457 633 421 633 l 460 633 l 532 599 q 606 667 576 642 q 660 701 636 692 l 707 650 l 872 728 l 893 701 l 875 675 l 881 667 l 1043 701 l 1093 693 l 1067 642 l 1244 642 l 1254 624 q 1207 575 1238 579 l 1342 529 l 1340 525 l 1338 519 q 1265 469 1322 478 q 1340 404 1349 428 l 1338 401 m 1379 485 l 1388 511 l 1363 535 l 1365 542 l 1283 568 q 1291 582 1288 575 q 1299 597 1294 589 l 1282 629 l 1264 647 l 1257 661 l 1135 661 l 1144 678 l 1119 701 l 1124 708 l 1042 721 l 922 696 l 904 719 l 901 721 l 878 753 l 711 674 l 665 725 q 601 688 632 713 q 528 622 569 663 l 465 653 l 457 653 q 365 532 413 653 l 279 542 l 246 471 l 263 424 l 183 410 l 174 342 l 190 331 l 206 315 l 222 301 l 182 274 q 175 243 175 256 q 197 210 175 214 l 214 194 q 235 186 219 186 l 268 178 l 249 125 l 260 124 l 282 101 l 419 88 l 415 79 l 451 46 l 454 46 l 481 22 l 617 44 l 614 38 l 626 32 l 647 13 l 689 -4 l 839 68 l 849 50 l 856 51 l 879 28 l 933 39 l 1036 128 q 1067 106 1054 114 q 1100 99 1081 99 q 1151 129 1129 99 l 1190 215 l 1250 201 q 1301 249 1289 213 l 1306 260 q 1306 265 1306 263 q 1307 268 1307 267 q 1306 272 1307 269 q 1306 275 1306 274 l 1292 322 l 1346 322 l 1375 363 l 1376 363 l 1383 369 q 1384 375 1383 371 q 1385 381 1385 379 q 1368 411 1385 394 l 1363 415 l 1358 419 q 1342 442 1353 432 q 1379 485 1367 457 m 906 489 l 832 472 l 826 458 l 772 478 l 746 414 l 726 461 l 707 479 l 699 501 l 681 450 q 633 472 667 472 l 614 472 q 606 468 610 469 q 599 464 603 467 l 589 475 l 593 483 q 493 454 532 472 l 476 471 l 481 481 l 446 474 l 482 553 q 539 526 514 526 q 568 535 553 526 l 667 618 l 682 599 l 686 600 l 711 576 l 832 632 l 828 617 l 838 618 l 861 594 l 1001 617 l 989 596 l 1001 596 l 1025 572 l 1129 572 l 1104 556 l 1119 551 l 1142 529 l 1231 504 l 1169 488 l 1189 474 l 1147 485 l 1139 465 l 1089 486 l 1061 421 l 1043 467 l 1024 486 l 1015 507 l 997 458 l 996 460 q 963 483 989 483 q 926 472 942 483 l 918 464 l 901 479 l 906 489 m 686 146 l 682 158 l 567 133 l 569 138 l 544 163 l 550 169 l 428 175 l 449 188 l 424 211 l 432 217 l 326 246 l 342 253 l 353 243 l 426 267 l 426 269 q 428 268 428 268 q 431 267 429 268 l 449 251 q 481 240 460 240 q 493 242 489 240 q 508 246 496 243 q 524 250 519 249 l 531 274 l 542 263 q 585 251 553 251 q 594 251 589 251 q 604 253 600 251 l 603 253 q 605 253 604 253 q 607 254 606 254 q 635 264 621 254 l 653 247 l 708 257 l 719 288 q 731 281 724 282 l 740 271 l 740 269 l 742 269 q 769 254 754 256 l 776 249 l 838 267 l 894 267 q 907 281 901 275 q 917 292 913 288 l 938 272 l 967 258 l 968 257 l 969 257 l 975 254 l 976 257 l 1022 260 l 1035 293 q 1040 290 1038 290 q 1046 286 1043 289 l 1060 274 q 1068 264 1063 269 l 1082 239 l 1086 242 l 1094 232 l 1078 193 l 1001 228 l 893 126 l 847 176 l 710 113 l 707 125 l 686 146 m 339 451 l 400 444 l 360 356 l 336 431 l 339 451 m 1219 292 l 1171 303 l 1200 358 q 1214 317 1210 335 q 1219 292 1218 300 m 300 336 l 351 340 l 338 308 l 300 336 m 1239 433 l 1274 408 l 1222 404 l 1239 433 m 506 333 l 500 333 q 510 344 503 338 q 508 339 508 342 q 506 333 507 336 z "},"":{"ha":563,"x_min":47,"x_max":592,"o":"m 90 97 q 147 167 107 138 q 232 196 188 196 q 297 167 276 196 q 301 97 317 138 l 281 39 q 254 -5 274 19 q 211 -50 235 -29 q 165 -85 188 -71 q 129 -100 142 -100 l 117 -100 q 85 -84 96 -100 q 71 -47 75 -68 q 67 -1 67 -25 q 69 39 68 22 l 90 97 m 331 97 q 388 167 347 138 q 472 196 428 196 q 537 167 517 196 q 542 97 557 138 l 521 39 q 494 -5 514 19 q 451 -50 475 -29 q 405 -85 428 -71 q 369 -100 382 -100 l 357 -100 q 326 -84 336 -100 q 311 -47 315 -68 q 308 -1 307 -25 q 310 39 308 22 l 331 97 m 50 43 q 48 23 49 35 q 47 -4 47 11 q 56 -69 47 -36 q 92 -114 65 -103 l 106 -128 q 144 -143 121 -143 l 157 -143 q 183 -134 167 -143 q 219 -111 200 -125 q 256 -79 238 -97 q 290 -43 275 -61 q 303 -86 293 -67 q 332 -114 313 -106 l 346 -128 q 385 -143 361 -143 l 397 -143 q 436 -128 411 -143 q 487 -90 461 -112 q 534 -41 513 -67 q 563 6 556 -15 l 583 64 q 592 103 592 85 q 569 158 592 136 l 565 161 q 567 160 567 160 q 569 158 568 160 l 560 167 q 526 202 549 189 q 472 215 504 215 q 397 196 433 215 q 338 147 361 176 q 329 158 335 150 l 325 161 q 326 160 326 160 q 329 158 328 160 l 318 169 q 285 203 307 190 q 232 215 264 215 q 136 183 181 215 q 72 104 92 150 l 50 43 z "},"":{"ha":813,"x_min":64,"x_max":842,"o":"m 72 104 q 136 183 92 150 q 232 215 181 215 q 286 202 264 215 q 319 167 308 189 l 329 158 q 334 151 332 156 q 339 144 336 147 q 399 196 363 176 q 475 215 435 215 q 529 202 507 215 q 563 167 551 189 l 572 158 q 583 142 581 147 q 644 194 607 174 q 722 215 682 215 q 776 202 754 215 q 810 167 799 189 l 819 158 q 842 103 842 136 q 833 64 842 85 q 809 21 825 40 q 772 -12 793 1 q 727 -35 751 -26 q 679 -43 703 -43 q 608 -18 636 -43 l 597 -7 q 578 6 586 -1 q 564 25 571 14 q 505 -24 540 -6 q 432 -43 469 -43 q 361 -18 389 -43 l 350 -7 q 318 21 329 4 q 260 -25 294 -7 q 189 -43 225 -43 q 118 -18 146 -43 l 107 -7 q 64 65 64 14 q 72 104 64 83 m 90 97 q 96 28 75 57 q 161 0 117 0 q 206 8 183 0 q 247 28 228 15 q 280 59 265 42 q 301 97 294 76 q 297 167 317 138 q 232 196 276 196 q 147 167 188 196 q 90 97 107 138 m 333 97 q 339 28 318 57 q 404 0 360 0 q 449 8 426 0 q 490 28 471 15 q 523 59 508 42 q 544 97 538 76 q 540 167 560 138 q 475 196 519 196 q 390 167 431 196 q 333 97 350 138 m 581 97 q 586 28 565 57 q 651 0 607 0 q 696 8 674 0 q 737 28 718 15 q 770 59 756 42 q 792 97 785 76 q 787 167 807 138 q 722 196 767 196 q 638 167 678 196 q 581 97 597 138 z "},"":{"ha":633,"x_min":140,"x_max":874,"o":"m 331 401 l 189 401 l 388 589 l 399 589 l 453 736 l 719 736 l 665 589 l 807 589 l 608 401 l 597 401 l 451 0 l 185 0 l 331 401 m 158 -19 l 168 -19 l 192 -43 l 489 -43 l 635 358 l 643 358 l 874 576 l 849 601 l 856 608 l 726 608 l 769 724 l 744 749 l 747 756 l 440 756 l 385 608 l 379 608 l 140 382 l 154 382 l 178 358 l 294 358 l 158 -19 z "},"":{"ha":633,"x_min":46,"x_max":874,"o":"m 236 142 l 94 142 l 293 329 l 304 329 l 331 401 l 189 401 l 388 589 l 399 589 l 453 736 l 719 736 l 665 589 l 807 589 l 608 401 l 597 401 l 571 329 l 713 329 l 514 142 l 503 142 l 451 0 l 185 0 l 236 142 m 158 -19 l 168 -19 l 192 -43 l 489 -43 l 540 99 l 549 99 l 779 317 l 754 342 l 761 349 l 632 349 l 635 358 l 643 358 l 874 576 l 849 601 l 856 608 l 726 608 l 769 724 l 744 749 l 747 756 l 440 756 l 385 608 l 379 608 l 140 382 l 154 382 l 178 358 l 293 358 l 290 349 l 285 349 l 46 122 l 60 122 l 83 99 l 200 99 l 158 -19 z "},"":{"ha":451,"x_min":203,"x_max":671,"o":"m 378 574 l 251 574 l 401 719 q 416 730 407 724 q 432 736 425 736 l 518 736 q 538 724 529 736 q 554 704 547 713 l 618 574 l 504 574 l 460 656 l 378 574 m 492 554 l 499 554 l 522 531 l 671 531 l 594 686 q 588 694 590 688 q 586 696 586 694 l 588 694 q 581 703 585 699 q 574 711 578 707 l 572 713 l 571 715 l 565 721 q 563 725 563 721 q 545 746 556 736 q 518 756 535 756 l 432 756 q 407 748 418 756 q 389 735 396 740 l 203 554 l 217 554 l 240 531 l 413 531 l 472 590 l 492 554 z "},"":{"ha":1614,"x_min":82,"x_max":1675,"o":"m 1350 136 l 1354 136 l 1390 136 q 1415 149 1399 136 q 1440 178 1431 161 l 1446 183 l 1450 197 q 1451 213 1451 200 l 1451 215 l 1414 215 q 1384 201 1400 215 q 1358 169 1368 186 l 1357 169 l 1350 150 l 1350 147 l 1350 136 m 871 136 l 875 136 l 911 136 q 935 149 919 136 q 961 178 951 161 l 967 183 l 971 197 q 972 213 972 200 l 972 215 l 935 215 q 905 201 921 215 q 879 169 889 186 l 878 169 l 871 150 l 871 147 l 871 136 m 449 504 l 453 504 l 489 504 q 514 518 496 504 q 543 550 532 532 q 544 551 544 551 q 546 554 544 553 q 546 554 546 554 q 547 557 546 556 l 551 567 l 551 581 l 551 583 l 513 583 q 483 569 499 583 q 457 538 467 554 l 456 538 l 449 518 l 449 515 l 449 504 m 1160 308 q 1172 293 1167 301 q 1182 275 1178 285 q 1267 355 1217 322 q 1369 388 1317 388 l 1461 388 q 1567 370 1522 388 q 1635 313 1613 353 l 1639 308 q 1675 210 1675 272 q 1671 168 1675 189 l 1671 167 q 1670 162 1671 163 q 1669 158 1669 161 l 1661 133 q 1626 69 1650 101 q 1572 13 1603 38 q 1503 -28 1540 -12 q 1428 -43 1467 -43 l 1358 -43 q 1268 -33 1308 -43 q 1201 3 1228 -24 l 1196 7 q 1144 67 1158 29 q 1058 -11 1110 21 q 949 -43 1007 -43 l 879 -43 q 789 -33 829 -43 q 722 3 749 -24 l 715 8 q 671 56 688 26 q 654 133 654 86 q 654 147 654 140 q 656 164 654 156 l 404 -43 l 121 -43 l 97 -19 l 82 -19 l 499 325 l 457 325 q 367 335 407 325 q 300 371 326 344 l 293 376 q 249 424 265 394 q 232 501 232 454 q 233 518 232 510 q 235 535 233 526 l 235 538 q 239 558 236 549 q 244 576 242 567 q 279 642 256 610 q 333 699 303 674 q 399 740 364 724 q 469 756 435 756 l 561 756 q 666 738 621 756 q 733 681 711 721 l 738 676 q 774 579 774 640 q 773 565 774 572 q 772 551 772 558 l 1019 756 l 1318 756 l 1310 749 l 1335 724 l 926 388 l 982 388 q 1086 370 1042 388 q 1153 314 1131 353 l 1154 313 l 1160 308 m 1317 206 q 1348 242 1328 225 q 1386 258 1368 258 l 1428 258 q 1463 245 1454 258 q 1471 213 1471 232 q 1469 192 1471 194 l 1467 182 q 1460 169 1464 174 q 1426 133 1449 150 q 1390 117 1403 117 l 1354 117 q 1319 140 1335 117 q 1308 183 1304 163 l 1317 206 m 1628 199 q 1594 329 1643 290 q 1461 368 1546 368 l 1369 368 q 1306 353 1338 368 q 1246 315 1274 339 q 1197 262 1218 292 q 1164 201 1175 232 q 1156 168 1157 185 q 1159 85 1149 118 q 1194 34 1169 53 q 1253 8 1218 15 q 1331 0 1289 0 l 1400 0 q 1471 15 1436 0 q 1535 53 1506 29 q 1586 106 1564 76 q 1619 167 1608 136 l 1625 182 q 1627 193 1626 189 q 1628 199 1628 197 m 838 206 q 869 242 849 225 q 907 258 889 258 l 949 258 q 983 245 975 258 q 992 213 992 232 q 990 192 992 194 l 988 182 q 981 169 985 174 q 947 133 969 150 q 911 117 924 117 l 875 117 q 840 140 856 117 q 829 183 825 163 l 838 206 m 1149 199 q 1115 329 1164 290 q 982 368 1067 368 l 890 368 q 826 353 858 368 q 767 315 794 339 q 717 262 739 292 q 685 201 696 232 q 676 168 678 185 q 680 85 669 118 q 715 34 690 53 q 774 8 739 15 q 851 0 810 0 l 921 0 q 992 15 957 0 q 1056 53 1026 29 q 1107 106 1085 76 q 1140 167 1129 136 l 1146 182 q 1148 193 1147 189 q 1149 199 1149 197 m 415 574 q 447 610 426 593 q 485 626 467 626 l 526 626 q 561 613 551 626 q 571 581 571 600 q 569 560 571 563 l 565 550 q 563 543 564 546 q 560 538 561 540 q 544 518 554 528 q 524 501 535 508 q 504 490 514 494 q 489 485 494 485 l 453 485 q 418 508 433 485 q 407 551 403 531 l 415 574 m 726 567 q 726 644 735 613 q 694 697 717 676 q 638 727 672 718 q 561 736 603 736 l 469 736 q 406 722 438 736 q 345 683 374 707 q 295 630 317 660 q 263 569 274 600 q 254 536 256 553 q 258 453 247 486 q 292 402 268 421 q 352 376 317 383 q 429 368 388 368 l 499 368 q 569 383 535 368 q 633 421 604 397 q 685 474 663 444 q 718 535 707 504 l 724 550 q 726 567 726 564 m 372 0 l 1265 736 l 1025 736 l 135 0 l 372 0 z "},"":{"ha":950,"x_min":39,"x_max":1218,"o":"m 860 983 l 986 983 l 836 838 q 822 827 831 833 q 806 821 813 821 l 719 821 q 699 833 708 821 q 683 853 690 844 l 619 983 l 733 983 l 778 901 l 860 983 m 715 242 q 711 265 715 253 q 696 276 707 276 l 418 276 q 343 297 376 276 q 285 348 310 317 q 249 417 261 379 q 236 490 236 454 q 256 566 236 524 q 306 647 275 608 q 375 710 336 685 q 453 736 414 736 l 1161 736 q 1088 642 1129 689 q 997 547 1047 594 l 539 547 q 513 526 524 547 q 501 493 501 506 l 501 486 q 507 480 501 485 q 515 472 513 475 q 531 462 521 467 q 543 457 542 457 l 807 457 q 878 435 847 457 q 931 380 910 413 q 964 309 953 347 q 975 239 975 271 l 975 233 q 958 156 975 197 q 915 81 942 115 q 852 23 888 46 q 779 0 817 0 l 71 0 q 99 44 78 14 q 145 106 121 75 q 190 162 169 138 q 215 186 211 186 l 688 186 q 712 199 708 186 q 715 225 715 211 l 715 233 l 715 242 m 74 -43 l 807 -43 q 885 -19 847 -43 q 953 42 924 6 q 1000 123 982 79 q 1018 206 1018 167 l 1018 211 q 999 305 1018 253 q 943 394 979 357 q 885 453 919 431 q 807 476 851 476 l 544 476 q 553 495 547 486 q 567 504 560 504 l 1032 504 q 1131 608 1085 553 q 1218 724 1176 664 l 1193 747 q 1196 751 1196 750 q 1199 756 1196 753 l 453 756 q 369 728 411 756 q 292 659 326 700 q 238 572 258 618 q 217 490 217 526 q 244 379 217 436 q 319 288 271 322 l 321 288 q 376 249 344 264 q 446 233 408 233 l 696 233 l 696 225 q 695 212 696 218 q 688 206 694 206 l 215 206 q 183 176 208 206 q 129 109 158 147 q 74 34 100 71 q 39 -19 47 -3 l 50 -19 l 74 -43 m 588 1003 l 667 842 q 669 838 668 840 q 672 835 671 836 l 675 832 q 688 815 681 824 q 706 803 694 807 l 719 790 q 747 778 732 778 l 833 778 q 856 785 844 778 q 874 797 867 792 l 1053 971 l 1028 996 l 1035 1003 l 851 1003 l 786 938 l 771 971 l 753 988 l 746 1003 l 588 1003 z "},"":{"ha":274,"x_min":151,"x_max":482,"o":"m 338 328 l 292 201 l 181 297 q 174 308 178 301 q 172 322 169 315 l 204 408 q 225 433 208 419 q 253 456 242 447 l 425 568 l 383 454 l 274 379 l 338 328 m 326 149 l 383 306 l 358 329 l 361 335 l 335 356 l 424 417 l 482 578 l 457 603 l 463 618 l 242 471 q 210 445 229 461 q 186 415 192 429 l 156 332 q 152 323 153 326 q 151 317 151 319 q 155 302 151 308 q 161 290 158 296 q 164 287 163 289 q 167 283 165 285 l 301 169 l 326 149 z "},"":{"ha":1499,"x_min":174,"x_max":1765,"o":"m 597 549 q 554 537 575 549 q 516 506 533 525 q 485 462 499 486 q 463 414 471 438 q 451 357 451 376 q 465 301 451 331 q 501 246 479 271 q 548 204 522 221 q 597 188 574 188 l 721 188 l 853 549 l 597 549 m 193 338 q 222 475 193 404 q 301 604 251 546 q 417 699 351 663 q 556 736 482 736 l 1713 736 q 1680 685 1703 717 q 1631 624 1657 654 q 1581 571 1606 593 q 1546 549 1557 549 l 1118 549 l 1039 331 l 1171 458 l 1492 458 l 1293 271 l 1017 271 l 986 188 l 1518 188 q 1511 176 1517 185 q 1500 157 1506 167 q 1489 139 1494 147 q 1482 129 1483 131 q 1448 90 1469 113 q 1406 48 1426 68 q 1369 14 1385 28 q 1351 0 1353 0 l 653 0 q 485 15 567 0 q 338 69 403 31 q 233 172 272 107 q 193 338 193 238 m 174 338 q 207 176 174 242 q 299 71 240 111 q 376 17 332 39 q 469 -19 419 -6 q 573 -37 519 -32 q 681 -43 626 -43 l 1379 -43 q 1398 -29 1381 -43 q 1438 6 1415 -15 q 1484 49 1461 26 q 1521 90 1507 72 l 1522 92 q 1532 106 1525 94 q 1547 132 1539 118 q 1561 158 1554 146 q 1571 175 1568 171 l 1546 199 q 1548 203 1547 201 q 1550 207 1549 206 l 1047 207 l 1054 228 l 1328 228 l 1558 446 l 1533 471 l 1540 478 l 1163 478 l 1136 451 l 1156 506 l 1574 506 q 1614 531 1586 506 q 1672 592 1642 557 q 1728 665 1701 628 q 1765 724 1754 701 l 1740 749 q 1744 756 1742 750 l 556 756 q 409 717 478 756 q 288 617 340 678 q 204 482 235 556 q 174 338 174 408 m 494 329 q 506 382 494 344 l 504 382 q 525 426 513 404 q 553 466 538 449 q 587 494 568 483 q 625 506 606 506 l 817 506 l 707 207 l 597 207 q 560 217 579 207 q 525 246 542 228 q 503 288 511 265 q 494 329 494 310 z "},"":{"ha":889,"x_min":0,"x_max":1175,"o":"m 860 983 l 986 983 l 836 838 q 822 827 831 833 q 806 821 813 821 l 719 821 q 699 833 708 821 q 683 853 690 844 l 619 983 l 733 983 l 778 901 l 860 983 m 49 0 l 622 549 l 249 549 l 249 550 q 269 581 250 556 q 313 636 288 606 q 366 695 339 667 q 413 736 393 724 l 1108 736 l 535 188 l 908 188 q 876 137 899 168 q 827 75 853 106 q 777 22 801 44 q 742 0 753 0 l 49 0 m 1175 724 l 1150 749 l 1157 756 l 406 756 q 356 712 385 743 q 299 648 326 681 q 251 588 271 615 q 229 556 231 561 l 229 529 l 238 529 l 261 506 l 549 506 l 0 -19 l 14 -19 l 38 -43 l 769 -43 q 810 -17 782 -43 q 867 44 838 8 q 924 116 897 79 q 961 175 950 153 l 936 200 q 940 207 938 201 l 635 207 l 1175 724 m 588 1003 l 667 842 q 669 838 668 840 q 672 835 671 836 l 675 832 q 688 815 681 824 q 706 803 694 807 l 719 790 q 747 778 732 778 l 833 778 q 856 785 844 778 q 874 797 867 792 l 1053 971 l 1028 996 l 1035 1003 l 851 1003 l 786 938 l 771 971 l 753 988 l 746 1003 l 588 1003 z "},"":{"ha":285,"x_min":233,"x_max":496,"o":"m 432 560 q 383 497 418 524 q 313 471 349 471 q 260 497 275 471 q 258 560 244 524 l 276 611 q 301 651 283 629 q 338 691 318 672 q 376 723 357 710 q 406 736 394 736 l 417 736 q 441 722 433 736 q 451 688 449 708 q 453 647 454 668 q 450 611 451 625 l 432 560 m 285 447 q 340 428 304 428 q 420 457 382 428 q 474 526 458 486 l 493 582 q 495 605 494 592 q 496 633 496 618 q 492 678 496 657 q 475 711 488 699 l 461 724 q 417 756 447 756 l 406 756 q 372 742 393 756 q 327 707 350 728 q 285 662 304 686 q 258 618 265 638 l 240 567 q 235 547 236 557 q 233 528 233 536 q 242 487 233 504 q 271 460 251 469 l 285 447 z "},"":{"ha":285,"x_min":250,"x_max":514,"o":"m 292 649 q 340 711 306 685 q 410 738 374 738 q 463 711 447 738 q 465 649 479 685 l 447 597 q 423 558 440 579 q 386 517 406 536 q 347 485 367 499 q 318 472 328 472 l 307 472 q 282 486 290 472 q 271 520 274 500 q 269 561 268 540 q 274 597 271 582 l 292 649 m 253 600 q 251 579 251 593 q 250 547 250 565 q 258 488 250 515 q 290 454 267 461 l 304 442 q 335 429 317 429 l 346 429 q 378 443 357 429 q 422 477 400 457 q 463 521 443 497 q 489 564 482 544 l 507 615 q 513 635 511 625 q 514 653 514 644 q 494 704 514 685 l 483 715 q 456 746 474 735 q 410 757 438 757 q 328 727 367 757 q 274 656 289 697 l 253 600 z "},"":{"ha":486,"x_min":235,"x_max":699,"o":"m 635 560 q 586 497 621 524 q 515 471 551 471 q 463 497 478 471 q 461 560 447 524 l 479 611 q 503 651 486 629 q 540 691 521 672 q 578 723 560 710 q 608 736 597 736 l 619 736 q 644 722 636 736 q 654 688 651 708 q 656 647 657 668 q 653 611 654 625 l 635 560 m 433 560 q 385 497 419 524 q 314 471 350 471 q 261 497 276 471 q 260 560 246 524 l 278 611 q 302 651 285 629 q 339 691 319 672 q 377 723 358 710 q 407 736 396 736 l 418 736 q 442 722 435 736 q 453 688 450 708 q 454 647 456 668 q 451 611 453 625 l 433 560 m 286 447 q 342 428 306 428 q 399 442 371 428 q 449 481 428 457 q 475 458 456 468 l 488 447 q 543 428 507 428 q 623 457 585 428 q 676 526 661 486 l 696 582 q 698 605 697 592 q 699 633 699 618 q 694 678 699 657 q 678 711 690 699 l 664 724 q 619 756 650 756 l 608 756 q 586 749 600 756 q 556 730 572 742 q 524 703 540 718 q 494 671 508 688 q 476 711 490 697 l 463 724 q 418 756 449 756 l 407 756 q 373 742 394 756 q 328 707 351 728 q 286 662 306 686 q 260 618 267 638 l 242 567 q 236 547 238 557 q 235 528 235 536 q 244 487 235 504 q 272 460 253 469 l 286 447 z "},"":{"ha":486,"x_min":250,"x_max":715,"o":"m 292 649 q 340 711 306 685 q 410 738 374 738 q 463 711 447 738 q 465 649 479 685 l 447 597 q 423 558 440 579 q 386 517 406 536 q 347 485 367 499 q 318 472 328 472 l 307 472 q 282 486 290 472 q 271 520 274 500 q 269 561 268 540 q 274 597 271 582 l 292 649 m 493 649 q 541 711 507 685 q 611 738 575 738 q 665 711 649 738 q 667 649 681 685 l 649 597 q 624 558 642 579 q 588 517 607 536 q 549 485 568 499 q 519 472 529 472 l 508 472 q 483 486 492 472 q 472 520 475 500 q 471 561 469 540 q 475 597 472 582 l 493 649 m 253 600 q 251 579 251 593 q 250 547 250 565 q 258 488 250 515 q 290 454 267 461 l 304 442 q 335 429 317 429 l 346 429 q 367 436 354 429 q 394 454 379 443 q 425 481 410 465 q 454 511 440 496 q 466 475 457 490 q 492 454 475 460 l 506 442 q 536 429 518 429 l 547 429 q 580 443 558 429 q 623 477 601 457 q 664 521 644 497 q 690 564 683 544 l 708 615 q 714 635 713 625 q 715 653 715 644 q 696 704 715 685 l 685 715 q 657 746 675 735 q 611 757 639 757 q 549 740 579 757 q 499 699 519 724 q 494 704 496 701 l 482 715 q 456 746 474 735 q 410 757 438 757 q 328 727 367 757 q 274 656 289 697 l 253 600 z "},"":{"ha":528,"x_min":168,"x_max":654,"o":"m 189 357 q 196 383 190 368 q 208 414 201 397 q 242 462 221 438 q 289 506 264 486 q 340 537 314 525 q 388 549 365 549 l 500 549 q 553 539 532 549 q 588 513 575 529 q 606 477 600 497 q 611 435 611 457 q 610 406 611 419 q 608 379 610 393 q 608 377 608 381 q 606 367 607 374 l 600 353 q 585 322 597 342 q 548 274 572 299 q 497 231 524 250 q 444 199 469 211 q 401 188 418 188 l 310 188 q 258 204 282 188 q 218 246 235 221 q 193 301 201 271 q 189 357 185 331 m 168 339 q 192 253 168 296 q 251 186 215 210 l 256 182 q 294 155 274 165 q 338 144 314 144 l 429 144 q 475 157 447 144 q 532 190 503 169 q 587 237 561 211 q 626 288 613 263 q 629 292 626 289 l 632 289 q 640 296 636 286 q 649 338 644 306 l 635 351 l 651 351 l 651 353 q 653 378 653 365 q 654 407 654 392 q 647 459 654 435 q 621 503 639 483 l 614 508 q 573 551 600 535 q 500 568 546 568 l 388 568 q 334 555 363 568 q 278 521 306 542 q 227 474 250 500 q 190 421 204 447 q 186 410 188 413 q 169 364 174 385 q 168 353 168 360 q 168 339 168 346 z "},"":{"ha":535,"x_min":92,"x_max":726,"o":"m 701 471 l 726 446 l 496 228 l 129 228 l 106 251 l 92 251 l 331 478 l 708 478 l 701 471 m 660 458 l 339 458 l 140 271 l 461 271 l 660 458 z "},"":{"ha":633,"x_min":92,"x_max":825,"o":"m 800 471 l 825 446 l 594 228 l 129 228 l 106 251 l 92 251 l 331 478 l 807 478 l 800 471 m 758 458 l 339 458 l 140 271 l 560 271 l 758 458 z "},"":{"ha":574,"x_min":203,"x_max":832,"o":"m 672 736 l 799 736 q 796 733 799 736 q 779 717 793 731 q 735 674 765 703 q 650 590 706 644 q 634 580 643 586 q 618 574 625 574 l 504 574 l 460 656 l 378 574 l 251 574 l 401 719 q 416 730 407 724 q 432 736 425 736 l 546 736 l 590 654 l 672 736 m 432 756 q 407 748 418 756 q 389 735 396 740 l 203 554 l 217 554 l 240 531 l 413 531 l 472 590 l 492 554 l 499 554 l 522 531 l 646 531 q 663 535 654 531 q 682 547 672 540 l 688 550 q 791 652 760 621 q 831 692 822 683 l 832 693 l 826 699 l 826 724 l 803 747 l 803 756 l 664 756 l 599 690 l 583 724 l 565 740 l 558 756 l 432 756 z "},"":{"ha":950,"x_min":39,"x_max":1218,"o":"m 860 983 l 986 983 l 836 838 q 822 827 831 833 q 806 821 813 821 l 719 821 q 699 833 708 821 q 683 853 690 844 l 619 983 l 733 983 l 778 901 l 860 983 m 715 242 q 711 265 715 253 q 696 276 707 276 l 418 276 q 343 297 376 276 q 285 348 310 317 q 249 417 261 379 q 236 490 236 454 q 256 566 236 524 q 306 647 275 608 q 375 710 336 685 q 453 736 414 736 l 1161 736 q 1088 642 1129 689 q 997 547 1047 594 l 539 547 q 513 526 524 547 q 501 493 501 506 l 501 486 q 507 480 501 485 q 515 472 513 475 q 531 462 521 467 q 543 457 542 457 l 807 457 q 878 435 847 457 q 931 380 910 413 q 964 309 953 347 q 975 239 975 271 l 975 233 q 958 156 975 197 q 915 81 942 115 q 852 23 888 46 q 779 0 817 0 l 71 0 q 99 44 78 14 q 145 106 121 75 q 190 162 169 138 q 215 186 211 186 l 688 186 q 712 199 708 186 q 715 225 715 211 l 715 233 l 715 242 m 74 -43 l 807 -43 q 885 -19 847 -43 q 953 42 924 6 q 1000 123 982 79 q 1018 206 1018 167 l 1018 211 q 999 305 1018 253 q 943 394 979 357 q 885 453 919 431 q 807 476 851 476 l 544 476 q 553 495 547 486 q 567 504 560 504 l 1032 504 q 1131 608 1085 553 q 1218 724 1176 664 l 1193 747 q 1196 751 1196 750 q 1199 756 1196 753 l 453 756 q 369 728 411 756 q 292 659 326 700 q 238 572 258 618 q 217 490 217 526 q 244 379 217 436 q 319 288 271 322 l 321 288 q 376 249 344 264 q 446 233 408 233 l 696 233 l 696 225 q 695 212 696 218 q 688 206 694 206 l 215 206 q 183 176 208 206 q 129 109 158 147 q 74 34 100 71 q 39 -19 47 -3 l 50 -19 l 74 -43 m 588 1003 l 667 842 q 669 838 668 840 q 672 835 671 836 l 675 832 q 688 815 681 824 q 706 803 694 807 l 719 790 q 747 778 732 778 l 833 778 q 856 785 844 778 q 874 797 867 792 l 1053 971 l 1028 996 l 1035 1003 l 851 1003 l 786 938 l 771 971 l 753 988 l 746 1003 l 588 1003 z "},"":{"ha":274,"x_min":89,"x_max":422,"o":"m 214 439 l 260 565 l 261 565 l 261 567 l 371 469 q 377 458 374 465 q 378 444 381 451 l 347 358 q 326 333 343 347 q 299 311 310 319 l 126 199 l 168 313 l 278 388 l 214 439 m 89 149 l 101 157 l 125 133 l 335 271 q 365 296 347 281 q 389 325 383 311 l 418 410 l 419 410 q 422 417 422 414 q 422 424 422 421 q 418 441 422 435 q 411 451 414 447 l 396 467 q 388 481 393 472 l 386 482 l 269 583 l 271 585 l 269 585 l 242 608 l 242 569 l 190 432 l 244 388 l 151 324 l 89 149 z "},"":{"ha":1499,"x_min":174,"x_max":1765,"o":"m 597 549 q 554 537 575 549 q 516 506 533 525 q 485 462 499 486 q 463 414 471 438 q 451 357 451 376 q 465 301 451 331 q 501 246 479 271 q 548 204 522 221 q 597 188 574 188 l 721 188 l 853 549 l 597 549 m 193 340 q 222 478 193 407 q 301 606 251 549 q 417 699 351 663 q 556 736 482 736 l 1713 736 q 1680 685 1703 717 q 1631 624 1657 654 q 1581 571 1606 593 q 1546 549 1557 549 l 1118 549 l 1039 331 l 1171 458 l 1492 458 l 1293 271 l 1017 271 l 986 188 l 1518 188 q 1511 176 1517 185 q 1500 157 1506 167 q 1489 139 1494 147 q 1482 129 1483 131 q 1448 90 1469 113 q 1406 48 1426 68 q 1369 14 1385 28 q 1351 0 1353 0 l 653 0 q 485 15 567 0 q 338 69 403 31 q 233 172 272 107 q 193 338 193 238 l 193 340 m 174 338 q 207 176 174 242 q 299 71 240 111 q 376 17 332 39 q 469 -19 419 -6 q 573 -37 519 -32 q 681 -43 626 -43 l 1379 -43 q 1398 -29 1381 -43 q 1438 6 1415 -15 q 1484 49 1461 26 q 1521 90 1507 72 l 1522 92 q 1532 106 1525 94 q 1547 132 1539 118 q 1561 158 1554 146 q 1571 175 1568 171 l 1546 199 q 1548 203 1547 201 q 1550 207 1549 206 l 1047 207 l 1054 228 l 1328 228 l 1558 446 l 1533 471 l 1540 478 l 1163 478 l 1136 451 l 1156 506 l 1574 506 q 1614 531 1586 506 q 1672 592 1642 557 q 1728 665 1701 628 q 1765 724 1754 701 l 1740 749 q 1744 756 1742 750 l 556 756 q 409 717 478 756 q 288 619 340 679 q 204 485 235 558 q 174 340 174 411 l 174 338 m 494 329 q 506 382 494 344 l 504 382 q 525 426 513 404 q 553 466 538 449 q 587 494 568 483 q 625 506 606 506 l 817 506 l 707 207 l 597 207 q 560 217 579 207 q 525 246 542 228 q 503 288 511 265 q 494 329 494 310 z "},"":{"ha":889,"x_min":0,"x_max":1175,"o":"m 860 983 l 986 983 l 836 838 q 822 827 831 833 q 806 821 813 821 l 719 821 q 699 833 708 821 q 683 853 690 844 l 619 983 l 733 983 l 778 901 l 860 983 m 49 0 l 622 549 l 249 549 l 249 550 q 269 581 250 556 q 313 636 288 606 q 366 695 339 667 q 413 736 393 724 l 1108 736 l 535 188 l 908 188 q 876 137 899 168 q 827 75 853 106 q 777 22 801 44 q 742 0 753 0 l 49 0 m 1175 724 l 1150 749 l 1157 756 l 406 756 q 356 712 385 743 q 299 648 326 681 q 251 588 271 615 q 229 556 231 561 l 229 529 l 238 529 l 261 506 l 549 506 l 0 -19 l 14 -19 l 38 -43 l 769 -43 q 810 -17 782 -43 q 867 44 838 8 q 924 116 897 79 q 961 175 950 153 l 936 200 q 940 207 938 201 l 635 207 l 1175 724 m 588 1003 l 667 842 q 669 838 668 840 q 672 835 671 836 l 675 832 q 688 815 681 824 q 706 803 694 807 l 719 790 q 747 778 732 778 l 833 778 q 856 785 844 778 q 874 797 867 792 l 1053 971 l 1028 996 l 1035 1003 l 851 1003 l 786 938 l 771 971 l 753 988 l 746 1003 l 588 1003 z "},"":{"ha":944,"x_min":281,"x_max":1239,"o":"m 1019 906 q 974 847 1007 871 q 903 824 940 824 q 848 847 865 824 q 843 906 831 871 q 890 964 856 940 q 963 988 925 988 q 1016 964 1000 988 q 1019 906 1032 940 m 592 906 q 638 964 604 940 q 710 988 672 988 q 764 964 747 988 q 768 906 781 940 q 722 847 756 871 q 650 824 688 824 q 596 847 613 824 q 592 906 579 871 m 310 736 l 607 736 l 676 563 l 874 736 l 1171 736 l 733 350 l 606 0 l 339 0 l 467 350 l 310 736 m 624 743 l 619 756 l 281 756 l 444 349 l 313 -19 l 322 -19 l 346 -43 l 643 -43 l 774 314 l 1239 724 l 1214 749 l 1222 756 l 867 756 l 693 600 l 644 724 l 624 743 m 574 913 q 567 878 567 897 q 606 813 567 832 l 617 803 q 678 781 639 781 q 758 807 719 781 q 810 872 796 833 q 817 906 817 888 q 799 953 817 935 l 786 964 q 710 1007 768 1007 q 627 980 667 1007 q 574 913 588 953 m 869 803 q 931 781 892 781 q 1010 807 972 781 q 1061 872 1047 833 q 1068 906 1068 888 q 1049 954 1068 935 l 1038 964 q 963 1007 1019 1007 q 879 979 919 1007 q 824 911 839 951 q 823 909 824 910 q 822 907 822 908 q 819 895 819 900 q 818 879 818 890 q 858 814 818 833 l 869 803 z "},"":{"ha":378,"x_min":29,"x_max":579,"o":"m 350 518 q 346 524 347 521 l 338 531 q 292 607 292 554 q 300 646 292 625 q 364 724 318 692 q 460 756 410 756 q 515 742 493 756 q 549 707 538 729 l 557 699 q 579 644 579 676 q 571 606 579 626 l 569 606 q 540 556 560 578 q 492 518 519 533 l 531 518 l 528 511 l 553 486 l 360 -43 l 63 -43 l 39 -19 l 29 -19 l 225 518 l 350 518 m 529 639 q 524 708 544 679 q 460 736 504 736 q 374 708 415 736 q 318 639 333 679 q 324 569 303 599 q 389 540 344 540 q 433 548 411 540 q 474 569 456 556 q 508 601 493 583 q 529 639 522 618 m 238 499 l 56 0 l 322 0 l 504 499 l 238 499 z "},"":{"ha":910,"x_min":174,"x_max":1189,"o":"m 494 326 q 517 257 494 293 q 522 251 519 254 q 528 246 525 249 l 622 506 q 585 494 603 506 q 553 465 568 483 q 525 426 538 447 q 504 382 513 404 l 506 382 q 494 329 494 344 l 494 326 m 764 207 l 965 207 q 961 200 963 201 l 986 175 q 901 60 947 118 q 797 -43 856 1 l 672 -43 l 600 -240 l 394 -240 l 371 -217 l 361 -217 l 435 -8 q 356 24 393 4 q 292 75 319 44 l 285 82 q 203 186 233 124 q 174 338 174 249 l 174 340 q 204 485 174 411 q 288 619 235 558 q 409 717 340 679 q 556 756 478 756 l 714 756 l 785 947 l 999 947 l 996 940 l 1021 915 l 963 756 l 1169 756 q 1166 751 1167 753 q 1164 749 1165 750 l 1189 724 q 1095 608 1142 661 q 990 506 1049 554 l 872 506 l 764 207 m 536 211 q 477 277 503 238 q 451 354 451 317 l 451 357 q 463 414 451 376 q 485 462 471 438 q 516 506 499 486 q 554 537 533 525 q 597 549 575 549 l 660 549 l 536 211 m 563 -197 l 635 0 l 764 0 q 857 91 817 42 q 929 188 897 140 l 703 188 l 835 549 l 958 549 q 1048 637 1007 590 q 1129 736 1089 683 l 903 736 l 972 928 l 797 928 l 728 736 l 556 736 q 417 699 482 736 q 301 606 351 663 q 222 478 251 549 q 193 340 193 407 l 193 338 q 214 211 193 265 q 272 119 235 157 q 358 56 308 81 q 467 19 408 32 l 388 -197 l 563 -197 z "},"":{"ha":969,"x_min":-7,"x_max":975,"o":"m 679 224 q 674 215 676 218 q 669 208 672 211 l 938 208 q 940 199 938 204 l 963 176 q 975 72 975 131 q 974 16 975 49 q 969 -43 972 -17 l 31 -43 l 7 -19 l -7 -19 l 232 207 l 308 207 l 313 217 l 125 217 l 101 240 l 88 240 l 326 467 l 418 467 q 422 478 419 469 l 422 476 q 423 478 422 478 q 424 481 424 479 q 425 486 424 483 q 440 515 432 500 q 458 544 447 529 q 515 609 479 572 q 594 678 551 646 q 682 733 638 711 q 764 756 726 756 l 878 756 q 878 750 878 753 q 879 744 879 747 l 901 724 q 913 615 913 660 q 904 504 913 563 l 808 504 q 794 495 807 504 q 771 479 782 486 q 767 474 767 475 l 853 474 l 857 461 l 878 442 l 968 224 l 679 224 m 928 0 q 932 100 932 51 q 922 189 932 156 l 650 189 q 638 201 647 189 q 624 219 628 213 q 623 222 624 219 q 621 226 622 225 l 624 233 q 632 247 626 238 q 644 267 638 257 l 918 267 l 840 454 l 719 454 q 717 460 717 454 q 718 483 717 471 q 722 503 719 496 l 725 510 q 728 514 726 511 q 731 517 731 517 q 744 526 736 521 q 759 535 751 531 q 773 544 767 540 q 781 547 779 547 l 863 547 q 870 644 869 596 q 861 736 871 692 l 764 736 q 686 715 728 736 q 604 662 644 693 q 529 595 564 631 q 474 532 494 560 q 455 501 463 517 q 440 471 447 486 q 436 458 438 464 q 433 447 435 453 l 335 447 l 136 260 l 351 260 q 341 239 344 249 q 335 219 338 229 l 322 188 l 240 188 l 42 0 l 928 0 z "},"":{"ha":947,"x_min":-10,"x_max":1240,"o":"m 511 329 q 518 296 511 310 q 554 282 535 282 l 615 282 q 640 289 625 282 q 669 307 654 296 q 699 332 685 318 q 721 360 713 346 q 722 368 721 364 q 726 375 725 374 q 728 376 728 376 l 728 388 q 728 393 728 390 q 729 399 729 396 q 722 431 729 418 q 699 433 708 433 l 624 433 q 567 411 597 433 q 521 361 538 389 l 522 361 q 520 356 521 358 q 518 351 519 354 q 511 335 511 340 l 511 329 m 646 724 l 693 607 l 700 607 l 868 756 l 1224 756 l 1215 749 l 1240 724 l 953 471 q 968 396 968 438 q 967 377 968 386 q 965 358 967 368 l 965 357 q 931 269 957 314 q 861 189 904 224 l 956 -43 l 628 -43 l 604 -19 l 597 -19 l 544 108 l 542 108 l 371 -43 l 29 -43 l 6 -19 l -10 -19 l 289 243 q 274 315 274 281 q 274 334 274 325 q 276 353 275 343 q 308 438 281 393 q 378 522 335 482 l 282 756 l 621 756 l 625 743 l 646 724 m 468 363 q 472 378 468 369 q 481 396 476 386 q 532 451 499 425 q 596 476 565 476 l 671 476 q 716 467 700 476 q 740 442 732 457 q 748 410 747 428 q 747 376 749 392 q 742 360 747 369 q 733 342 740 350 q 710 314 725 328 q 677 288 694 300 q 643 269 660 276 q 615 263 626 263 l 554 263 q 519 272 535 263 q 491 297 503 282 q 473 329 479 311 q 468 363 467 347 m 922 388 q 923 451 928 424 q 906 501 918 479 l 1172 736 l 875 736 l 707 588 l 692 588 l 668 588 l 608 736 l 311 736 l 400 518 q 328 438 357 482 q 296 351 300 393 q 295 288 290 315 q 313 239 300 260 l 311 238 l 42 0 l 338 0 l 510 151 l 538 151 l 549 151 l 610 0 l 906 0 l 815 222 q 888 301 860 257 q 922 388 915 346 z "},"":{"ha":944,"x_min":82,"x_max":1239,"o":"m 371 88 l 149 88 l 322 199 l 411 199 l 426 240 l 204 240 l 378 351 l 465 351 l 310 736 l 607 736 l 676 563 l 874 736 l 1171 736 l 735 351 l 954 351 l 781 240 l 693 240 l 678 199 l 899 199 l 725 88 l 638 88 l 606 0 l 339 0 l 371 88 m 313 -19 l 322 -19 l 346 -43 l 643 -43 l 675 44 l 757 44 l 978 186 l 953 210 l 965 218 l 843 218 l 1033 339 l 1008 363 l 1021 371 l 838 371 l 1239 724 l 1214 749 l 1222 756 l 867 756 l 693 600 l 644 724 l 624 743 l 619 756 l 281 756 l 436 371 l 371 371 l 138 221 l 157 221 l 181 197 l 282 197 l 82 68 l 101 68 l 125 44 l 335 44 l 313 -19 z "},"":{"ha":378,"x_min":-42,"x_max":708,"o":"m -32 -215 l -42 -215 l 381 949 l 686 949 l 683 942 l 708 917 l 289 -239 l -8 -239 l -32 -215 m 251 -196 l 660 929 l 393 929 l -15 -196 l 251 -196 z "},"":{"ha":947,"x_min":-10,"x_max":1240,"o":"m 511 328 q 518 294 511 313 q 554 282 535 282 l 615 282 q 640 289 625 282 q 669 307 654 296 q 699 332 685 318 q 721 360 713 346 q 722 368 721 364 q 726 375 725 374 q 728 376 728 376 l 728 388 q 728 393 728 390 q 729 399 729 396 q 722 431 729 418 q 699 433 708 433 l 624 433 q 567 411 597 433 q 522 363 538 389 l 521 360 l 513 338 q 511 328 513 329 m 6 -19 l -10 -19 l 289 243 q 274 315 274 281 q 274 334 274 325 q 276 353 275 343 q 281 381 276 368 l 281 379 q 281 382 281 381 q 282 385 282 383 q 283 392 282 389 q 286 397 283 392 q 327 468 300 433 q 390 535 354 503 q 524 593 456 579 q 668 607 593 607 l 700 607 l 868 756 l 1224 756 l 1215 749 l 1240 724 l 953 471 q 968 396 968 438 q 967 377 968 386 q 965 358 967 368 l 965 356 q 963 348 964 351 q 961 340 963 344 q 953 315 958 326 q 915 245 940 279 q 853 182 890 211 q 731 130 797 151 q 576 108 664 108 l 542 108 l 371 -43 l 29 -43 l 6 -19 m 468 363 q 471 372 468 361 l 481 396 q 532 451 499 425 q 596 476 565 476 l 671 476 q 716 467 700 476 q 740 442 732 457 q 748 410 747 428 q 747 376 749 392 q 742 360 747 369 q 733 342 740 350 q 710 314 725 328 q 677 288 694 300 q 643 269 660 276 q 615 263 626 263 l 554 263 q 519 272 535 263 q 491 297 503 282 q 473 329 479 311 q 468 363 467 347 m 922 388 q 923 451 928 424 q 906 501 918 479 l 1172 736 l 875 736 l 707 588 l 668 588 q 529 574 596 588 q 400 518 463 560 q 342 457 367 490 q 304 390 317 424 q 299 370 301 379 q 296 351 296 361 q 295 288 290 315 q 313 239 300 260 l 42 0 l 338 0 l 510 151 l 549 151 q 698 172 633 151 q 815 222 763 193 q 876 283 851 250 q 911 349 900 315 q 917 368 915 358 q 922 388 919 378 z "},"":{"ha":539,"x_min":268,"x_max":769,"o":"m 721 654 q 675 596 708 619 q 604 572 642 572 q 549 596 567 572 q 544 654 532 619 q 592 713 557 689 q 664 736 626 736 q 717 713 701 736 q 721 654 733 689 m 293 654 q 340 713 306 689 q 411 736 374 736 q 465 713 449 736 q 469 654 482 689 q 423 596 457 619 q 351 572 389 572 q 297 596 314 572 q 293 654 281 619 m 275 661 q 268 626 268 646 q 307 561 268 581 l 318 551 q 379 529 340 529 q 459 556 421 529 q 511 621 497 582 q 518 654 518 636 q 500 701 518 683 l 488 713 q 411 756 469 756 q 328 728 368 756 q 275 661 289 701 m 571 551 q 632 529 593 529 q 711 556 674 529 q 763 621 749 582 q 769 654 769 636 q 750 703 769 683 l 739 713 q 664 756 721 756 q 581 728 621 756 q 525 660 540 700 q 524 658 525 658 q 524 656 524 657 q 520 644 521 649 q 519 628 519 639 q 560 563 519 582 l 571 551 z "},"":{"ha":419,"x_min":271,"x_max":661,"o":"m 363 583 q 363 578 363 581 q 364 574 364 576 q 374 569 369 571 q 385 565 379 567 l 381 569 q 361 585 369 575 q 361 583 361 583 q 363 583 363 583 m 546 644 q 551 653 549 649 q 557 664 554 658 l 529 657 l 549 651 q 547 648 547 649 q 544 644 546 647 l 546 644 m 567 729 q 571 724 568 726 q 569 725 571 725 q 569 728 569 725 q 560 751 567 742 q 546 756 551 754 q 550 749 549 753 q 554 742 551 746 l 567 729 m 444 639 q 443 633 443 636 q 442 629 443 632 q 486 669 467 635 l 529 657 l 504 681 l 497 679 q 496 685 496 682 q 494 692 496 689 q 443 639 461 685 l 444 639 m 510 844 q 583 825 549 844 q 619 788 607 807 l 633 775 q 658 724 654 754 q 660 712 660 718 q 661 697 661 706 q 659 668 661 683 q 650 638 657 653 q 630 596 642 615 q 599 557 618 576 l 597 557 q 558 522 578 536 q 514 494 539 507 q 426 475 447 475 q 350 497 390 475 l 346 500 q 343 502 344 501 q 340 506 342 503 l 329 515 q 325 518 326 517 q 321 521 324 519 q 291 553 303 536 q 274 592 279 569 q 272 605 272 599 q 271 621 271 611 q 273 650 271 636 q 282 678 275 664 q 302 719 289 700 q 335 761 315 739 q 421 824 369 800 q 510 844 471 844 m 496 647 q 429 608 471 608 q 401 671 378 608 q 433 719 413 703 q 479 736 454 736 q 514 704 510 736 l 539 710 q 488 758 542 758 q 419 736 450 758 q 374 671 389 714 q 372 606 358 629 q 422 583 386 583 q 476 599 450 583 q 518 640 501 614 l 496 647 m 501 800 q 557 783 536 800 q 589 736 585 764 q 582 671 593 706 q 542 608 567 633 q 478 561 511 575 q 408 544 440 544 q 350 561 375 544 q 319 608 325 582 q 326 671 315 636 q 342 704 333 688 q 367 736 351 721 q 433 784 396 768 q 501 800 469 800 m 510 825 q 428 806 478 825 q 349 749 381 785 q 319 710 332 729 q 300 671 307 692 q 293 596 285 631 q 306 563 297 576 q 329 538 315 549 q 399 518 361 518 q 482 538 415 518 q 524 563 506 549 q 560 596 543 576 q 608 671 593 629 q 615 749 624 718 q 578 806 608 785 q 510 825 546 825 z "},"":{"ha":461,"x_min":151,"x_max":669,"o":"m 338 326 l 290 200 l 181 296 q 174 307 178 300 q 172 321 169 314 l 204 407 q 225 432 208 418 q 253 454 242 446 l 424 567 l 383 453 l 274 378 l 338 326 m 525 328 l 479 201 l 368 297 q 361 308 365 301 q 360 322 357 315 l 392 408 q 413 433 396 419 q 440 456 429 447 l 613 568 l 571 454 l 461 379 l 525 328 m 481 576 l 456 601 l 461 617 l 242 469 q 210 444 229 460 q 186 414 192 428 l 154 331 q 151 321 151 325 q 151 315 151 318 q 155 301 151 307 q 161 289 158 294 q 164 285 163 288 q 167 282 165 283 l 300 168 l 325 147 l 369 269 l 489 169 l 514 149 l 571 306 l 546 329 l 549 335 l 522 356 l 611 417 l 669 578 l 644 603 l 650 618 l 446 482 l 481 576 m 335 354 l 356 369 l 347 344 l 335 354 z "},"":{"ha":690,"x_min":92,"x_max":850,"o":"m 546 271 l 140 271 l 339 458 l 801 458 l 685 136 l 497 136 l 546 271 m 471 117 l 481 117 l 504 93 l 722 93 l 850 446 l 825 471 l 828 478 l 331 478 l 92 251 l 106 251 l 129 228 l 510 228 l 471 117 z "},"":{"ha":475,"x_min":92,"x_max":667,"o":"m 642 471 l 667 446 l 436 228 l 129 228 l 106 251 l 92 251 l 331 478 l 649 478 l 642 471 m 600 458 l 339 458 l 140 271 l 401 271 l 600 458 z "},"":{"ha":419,"x_min":272,"x_max":663,"o":"m 521 625 q 524 618 521 624 l 536 631 q 542 638 540 635 q 521 625 531 629 m 440 599 l 428 567 q 444 571 433 567 l 440 599 m 561 753 q 535 758 551 756 q 546 740 544 749 l 563 725 q 561 725 561 725 q 560 726 561 726 l 563 725 q 571 710 569 715 l 571 719 q 569 728 571 722 q 561 753 567 742 m 511 846 q 589 822 554 846 l 589 824 q 628 779 614 808 l 629 778 q 629 778 629 778 q 628 779 629 779 l 632 776 q 663 700 663 746 q 650 639 663 672 q 630 599 643 618 q 600 560 617 579 q 561 523 582 538 q 514 496 540 508 q 426 476 447 476 q 350 499 390 476 l 343 506 q 336 511 339 508 q 331 517 333 514 q 326 519 328 518 q 321 522 324 519 q 292 553 303 538 q 275 590 281 569 q 272 606 272 597 q 272 625 272 614 q 282 678 272 650 q 303 720 290 700 q 336 763 317 740 q 419 825 368 803 q 511 846 474 846 m 435 731 l 464 731 q 492 729 490 731 q 499 706 504 722 q 483 688 494 694 q 449 681 472 681 l 417 681 l 435 731 m 383 589 l 410 658 l 425 658 q 443 653 439 658 q 458 614 451 647 l 463 589 l 496 589 l 488 621 q 478 648 482 639 q 464 663 475 657 q 503 677 486 664 q 528 708 521 690 q 528 733 532 722 q 514 749 528 743 q 474 754 508 754 l 418 754 l 357 589 l 383 589 m 501 801 q 558 785 535 801 q 589 738 585 767 q 582 672 594 711 q 543 610 571 642 q 478 563 511 578 q 408 546 440 546 q 350 563 375 546 q 321 610 325 583 q 326 672 315 632 q 367 738 339 706 q 433 785 397 769 q 501 801 469 801 m 511 826 q 428 807 479 826 q 350 750 382 786 q 320 712 333 731 q 300 672 307 693 q 294 597 286 633 q 307 564 299 578 q 329 539 315 550 q 399 519 361 519 q 482 539 415 519 q 525 564 506 550 q 561 597 544 578 q 608 672 594 635 q 617 750 624 714 q 578 807 610 786 q 511 826 550 826 z "},"":{"ha":675,"x_min":193,"x_max":968,"o":"m 943 749 l 968 724 l 738 506 l 231 506 l 207 529 l 193 529 l 432 756 l 950 756 l 943 749 m 901 736 l 440 736 l 242 549 l 703 549 l 901 736 z "},"":{"ha":288,"x_min":268,"x_max":518,"o":"m 293 654 q 340 713 306 689 q 411 736 374 736 q 465 713 449 736 q 469 654 482 689 q 423 596 457 619 q 351 572 389 572 q 297 596 314 572 q 293 654 281 619 m 275 661 q 268 626 268 646 q 307 561 268 581 l 318 551 q 379 529 340 529 q 459 556 421 529 q 511 621 497 582 q 518 654 518 636 q 500 701 518 683 l 496 706 q 496 704 496 704 q 497 703 497 704 l 489 711 q 460 743 481 731 q 411 756 440 756 q 328 728 368 756 q 275 661 289 701 z "},"":{"ha":674,"x_min":-8,"x_max":897,"o":"m 239 188 l 699 188 l 500 0 l 40 0 l 239 188 m 378 363 l 172 363 l 371 550 l 446 550 l 499 693 l 686 693 l 633 550 l 831 550 l 632 363 l 565 363 l 517 228 l 329 228 l 378 363 m 303 208 l 313 208 l 314 207 l 231 207 l -8 -19 l 6 -19 l 29 -43 l 535 -43 l 765 175 l 740 200 l 747 207 l 561 207 l 603 319 l 667 319 l 897 538 l 872 563 l 879 569 l 694 569 l 736 681 l 711 706 l 714 713 l 486 713 l 432 569 l 363 569 l 124 343 l 138 343 l 161 319 l 342 319 l 303 208 z "},"":{"ha":269,"x_min":249,"x_max":506,"o":"m 332 701 q 373 738 351 721 q 417 756 394 756 q 463 738 435 756 q 475 718 471 729 l 488 707 q 506 663 506 689 q 499 632 506 644 l 497 632 q 483 610 490 619 q 468 593 476 601 l 433 561 q 409 544 424 553 q 378 527 394 535 q 347 515 363 519 q 321 511 332 511 q 299 517 307 511 l 279 535 q 267 543 268 536 l 260 550 q 249 576 249 561 q 251 592 249 583 q 257 610 253 601 q 272 636 264 625 q 289 658 281 647 l 288 657 q 291 661 289 660 q 294 665 293 663 l 296 665 q 299 669 296 667 l 303 674 l 332 701 m 319 664 q 295 635 308 650 q 275 601 282 621 q 269 578 269 589 q 275 563 268 568 l 281 557 q 293 554 283 554 q 317 558 303 554 q 345 569 331 563 q 373 583 360 575 q 396 600 386 592 l 429 632 q 445 649 438 640 q 457 667 453 657 q 447 725 471 701 q 417 736 432 736 q 385 723 401 736 q 353 694 368 710 l 319 664 z "},"":{"ha":1196,"x_min":135,"x_max":1331,"o":"m 1304 411 l 1328 389 l 1331 350 l 1236 342 q 1251 296 1247 315 q 1256 264 1256 276 q 1253 246 1256 251 l 1242 224 l 1150 243 l 1099 121 l 1008 158 l 892 51 l 867 76 l 864 74 l 836 101 l 624 3 l 599 26 l 585 21 l 618 79 l 431 40 l 407 64 l 393 61 l 431 111 l 256 121 l 231 144 l 213 146 l 288 192 l 175 224 l 154 244 l 135 250 l 253 301 l 178 360 l 174 364 l 139 390 l 265 401 l 247 460 l 257 517 l 354 507 l 418 640 q 485 589 469 589 q 496 590 493 589 l 499 592 l 626 703 l 643 681 l 654 669 l 669 647 l 832 724 l 863 701 l 861 696 l 886 672 l 885 669 l 1076 701 l 1071 692 l 1094 668 l 1074 635 l 1267 635 l 1254 626 l 1279 603 l 1215 558 l 1297 538 l 1299 528 l 1321 506 l 1328 460 l 1306 460 l 1264 447 l 1304 418 l 1304 411 m 610 382 q 611 399 614 396 q 594 419 611 419 q 538 369 572 419 l 533 360 q 543 324 521 324 q 582 336 553 324 q 610 382 604 365 m 918 429 l 874 378 l 915 378 l 918 429 m 361 306 l 326 294 l 397 449 l 422 454 l 361 306 m 518 421 q 506 425 511 425 q 463 403 489 425 q 421 342 432 374 q 438 313 408 313 q 451 313 444 313 q 464 315 457 314 l 457 290 q 426 283 426 283 q 400 350 388 283 q 403 361 399 351 l 406 369 q 535 458 431 442 l 518 421 m 644 403 q 553 297 589 297 q 540 295 546 296 q 531 294 535 294 q 494 319 492 294 q 593 453 531 422 l 599 453 l 607 453 q 644 403 649 453 m 724 297 q 669 369 690 297 l 643 299 l 621 294 l 674 447 l 715 350 l 757 454 l 778 447 l 724 297 m 786 313 l 750 301 l 818 454 l 847 461 l 786 313 m 899 310 q 881 346 896 346 q 833 310 863 346 l 806 310 q 852 386 825 349 q 915 460 879 424 q 936 464 921 464 q 953 417 961 464 l 913 303 l 899 310 m 1038 303 q 985 378 1007 303 l 957 303 l 936 301 l 990 453 l 1029 356 l 1074 461 l 1093 453 l 1038 303 m 1063 269 l 1053 289 l 1074 303 l 1092 294 l 1063 269 m 1106 342 l 1085 346 l 1132 461 l 1163 453 l 1106 342 m 1285 408 l 1189 479 l 1274 503 l 1282 503 l 1279 521 l 1124 564 l 1201 615 l 999 615 l 1036 675 l 828 642 l 840 693 l 829 701 l 663 624 l 624 675 l 507 575 q 485 569 497 569 q 424 607 461 569 l 367 486 l 272 496 l 267 460 l 292 383 l 192 375 l 292 299 l 193 256 l 357 210 l 278 161 l 485 151 l 440 92 l 643 135 l 654 100 l 635 67 l 817 151 l 865 100 l 978 204 l 1063 168 l 1114 289 l 1206 269 l 1211 281 q 1186 383 1219 304 l 1286 392 l 1285 408 z "},"":{"ha":889,"x_min":126,"x_max":1049,"o":"m 446 382 q 447 399 450 396 q 431 419 447 419 q 374 369 408 419 l 369 360 q 379 324 357 324 q 418 336 389 324 q 446 382 440 365 m 754 429 l 710 378 l 751 378 l 754 429 m 197 306 l 163 294 l 233 449 l 258 454 l 197 306 m 354 421 q 342 425 347 425 q 299 403 325 425 q 257 342 268 374 q 274 313 244 313 q 287 313 281 313 q 300 315 293 314 l 293 290 q 263 283 263 283 q 236 350 224 283 q 239 361 235 351 l 242 369 q 371 458 267 442 l 354 421 m 481 403 q 389 297 425 297 q 376 295 382 296 q 367 294 371 294 q 331 319 328 294 q 429 453 367 422 l 435 453 l 443 453 q 481 403 485 453 m 560 297 q 506 369 526 297 l 479 299 l 457 294 l 510 447 l 551 350 l 593 454 l 614 447 l 560 297 m 622 313 l 586 301 l 654 454 l 683 461 l 622 313 m 735 310 q 717 346 732 346 q 669 310 699 346 l 642 310 q 688 386 661 349 q 751 460 715 424 q 772 464 757 464 q 789 417 797 464 l 749 303 l 735 310 m 874 303 q 821 378 843 303 l 793 303 l 772 301 l 826 453 l 865 356 l 910 461 l 929 453 l 874 303 m 899 269 l 889 289 l 910 303 l 928 294 l 899 269 m 942 342 l 921 346 l 968 461 l 999 453 l 942 342 m 715 489 l 642 472 l 636 458 l 582 478 l 556 414 l 536 461 l 517 479 l 508 501 l 490 450 q 443 472 476 472 l 424 472 q 416 468 419 469 q 408 464 413 467 l 399 475 l 403 483 q 303 454 342 472 l 286 471 l 290 481 l 219 467 l 126 264 l 138 267 l 163 243 l 236 267 l 236 269 q 238 268 238 268 q 240 267 239 268 l 258 251 q 290 240 269 240 q 303 242 299 240 q 317 246 306 243 q 333 250 329 249 l 340 274 l 351 263 q 394 251 363 251 q 404 251 399 251 q 414 253 410 251 l 413 253 q 415 253 414 253 q 417 254 415 254 q 446 264 431 254 l 463 247 l 518 257 l 529 288 q 539 281 533 283 l 544 275 q 543 278 543 276 q 542 281 543 279 l 547 275 l 544 275 l 550 271 l 550 269 l 551 269 q 579 254 564 256 l 586 249 l 647 267 l 704 267 q 717 281 711 275 q 726 292 722 288 l 747 272 l 776 258 l 778 257 l 779 257 l 785 254 l 786 257 l 832 260 l 844 293 q 850 290 847 290 q 856 286 853 289 l 869 274 q 878 264 872 269 l 892 239 l 896 243 l 921 218 l 983 271 l 958 296 l 961 299 l 978 296 l 1049 435 l 1024 458 l 1028 465 l 957 485 l 949 465 l 899 486 l 871 421 l 853 467 l 833 486 l 825 507 l 807 458 l 806 460 q 772 483 799 483 q 736 472 751 483 l 728 464 l 711 479 l 715 489 m 315 333 l 310 333 q 319 344 313 338 q 317 339 318 342 q 315 333 317 336 z "},"":{"ha":288,"x_min":174,"x_max":424,"o":"m 199 392 q 244 450 211 426 q 315 474 278 474 q 363 458 346 474 q 381 418 381 442 q 375 392 381 401 q 328 333 363 357 q 256 310 293 310 q 210 325 226 310 q 193 364 193 340 q 199 392 193 382 m 174 364 q 214 299 174 315 l 225 288 q 283 267 246 267 q 364 293 325 267 q 417 358 403 319 q 424 390 424 372 q 404 439 424 419 l 393 449 q 365 481 385 468 q 315 493 344 493 q 234 466 272 493 q 181 400 196 439 q 174 364 174 383 z "},"":{"ha":278,"x_min":-258,"x_max":274,"o":"m -29 -33 l 44 -33 l 60 8 l 225 8 l 164 -161 l -199 -161 l -29 -33 m -258 -181 l -242 -181 l -218 -204 l 201 -204 l 274 -4 l 249 21 l 251 28 l 47 28 l 31 -14 l -36 -14 l -258 -181 z "},"":{"ha":461,"x_min":90,"x_max":613,"o":"m 403 440 l 449 567 l 560 471 q 567 460 563 467 q 568 446 571 453 l 536 360 q 515 335 532 349 q 488 313 499 321 l 315 200 l 357 314 l 467 389 l 403 440 m 215 439 l 261 565 l 372 469 q 378 458 375 465 q 379 444 382 451 l 349 358 q 328 333 344 347 q 300 311 311 319 l 128 199 l 169 313 l 279 388 l 215 439 m 90 149 l 103 157 l 126 133 l 315 257 l 278 150 l 290 158 l 314 135 l 524 272 q 554 297 536 282 q 578 326 572 313 l 608 408 q 613 424 613 414 q 607 441 613 433 q 599 454 601 449 l 583 468 q 579 478 582 472 q 576 482 578 479 q 572 486 574 485 l 571 486 l 439 599 l 393 474 q 391 477 392 476 q 389 481 390 478 l 388 482 l 251 597 l 192 432 l 246 388 l 153 324 l 90 149 m 433 389 l 406 371 l 417 401 l 433 389 z "},"":{"ha":942,"x_min":82,"x_max":1114,"o":"m 885 519 q 882 522 882 519 l 872 531 q 828 607 828 554 q 835 647 828 635 q 899 724 854 693 q 994 756 944 756 q 1050 743 1028 756 q 1082 708 1072 731 l 1093 699 q 1114 644 1114 678 q 1112 627 1114 636 q 1107 607 1110 618 l 1106 607 q 1076 558 1096 581 q 1029 519 1056 535 l 1038 519 q 1032 513 1036 517 l 1057 488 q 988 408 1032 451 q 893 328 943 365 q 792 267 843 292 q 704 242 742 242 l 511 242 q 499 236 511 242 q 478 225 488 231 q 467 218 472 219 q 461 215 464 215 q 460 215 460 215 l 453 208 l 996 208 q 993 204 994 206 q 990 200 992 203 l 1015 176 q 972 112 996 143 q 924 52 949 81 q 875 -1 899 24 q 833 -43 851 -25 l 213 -43 q 144 -18 169 -43 l 135 -8 q 94 36 107 7 q 82 106 82 65 q 95 185 82 146 q 132 257 108 225 q 201 335 158 294 q 292 408 243 375 q 393 463 342 442 q 489 485 444 485 l 696 485 q 741 492 724 485 q 765 507 758 500 l 765 519 l 885 519 m 1064 639 q 1071 672 1071 664 q 1051 718 1071 700 q 994 736 1031 736 q 909 708 950 736 q 853 639 868 679 q 847 607 847 629 q 867 559 847 578 q 924 540 888 540 q 968 548 946 540 q 1009 569 990 556 q 1042 601 1028 583 q 1064 639 1057 618 m 785 500 l 785 499 q 760 480 782 494 q 696 465 739 465 l 489 465 q 399 444 447 465 q 303 391 350 424 q 214 319 256 358 q 147 246 172 281 q 113 178 125 215 q 101 106 101 142 q 121 31 101 61 q 185 0 140 0 l 799 0 q 839 41 817 18 q 883 89 861 64 q 926 140 906 114 q 961 189 947 165 l 408 189 q 396 204 396 189 q 400 225 396 214 q 411 243 404 236 l 417 250 q 425 256 417 251 q 439 264 433 261 q 465 277 449 269 q 483 285 482 285 l 676 285 q 760 306 713 285 q 853 360 807 328 q 938 431 899 393 q 1000 500 978 468 l 785 500 z "},"":{"ha":1082,"x_min":19,"x_max":1086,"o":"m 851 924 q 855 895 851 910 q 851 861 858 881 q 839 838 846 849 q 821 822 832 828 l 813 817 q 797 814 810 814 q 756 828 778 814 q 728 860 735 842 l 719 892 q 715 908 717 900 q 717 926 713 917 q 768 985 732 963 q 807 996 799 996 q 830 983 822 996 q 840 954 838 969 l 851 924 m 764 157 q 744 125 761 149 q 705 75 726 101 q 663 26 683 49 q 632 0 642 4 l 44 0 q 47 10 47 14 l 47 14 l 547 653 q 564 675 551 661 q 591 702 576 689 q 620 726 606 715 q 644 736 635 736 l 878 736 q 903 721 892 736 q 924 683 915 706 q 938 637 932 661 q 949 596 944 613 l 1040 0 l 793 0 l 764 157 m 764 186 l 715 513 l 482 200 l 482 186 l 764 186 m 776 -19 l 785 -19 l 808 -43 l 1086 -43 l 992 575 q 983 608 988 589 q 972 645 978 626 q 957 681 965 664 q 938 710 949 699 l 929 717 q 907 744 919 733 q 878 756 894 756 l 644 756 q 617 745 633 756 q 583 720 600 735 q 553 690 567 706 q 532 665 539 675 l 531 664 l 56 56 q 51 57 54 57 q 31 24 40 57 l 28 21 l 28 15 q 19 -19 24 -1 l 29 -19 l 53 -43 l 663 -43 q 680 -30 668 -40 q 705 -5 692 -19 q 733 26 718 10 q 761 60 749 43 l 776 -19 m 760 803 q 792 780 774 789 q 825 771 810 771 q 851 778 844 771 l 856 781 q 878 800 871 788 q 893 828 886 813 q 899 856 899 843 q 898 869 899 864 q 896 881 897 875 q 894 896 894 886 l 893 901 l 882 929 l 883 929 q 864 971 879 954 l 851 982 q 834 1006 844 996 q 807 1015 824 1015 q 756 1001 792 1015 q 699 932 715 976 q 694 914 694 921 q 699 889 694 899 l 707 860 q 756 807 719 826 l 760 803 m 740 206 l 554 206 l 708 411 l 740 206 z "},"":{"ha":1082,"x_min":19,"x_max":1086,"o":"m 793 956 q 825 984 808 971 q 857 997 842 997 q 888 986 872 997 q 897 928 911 963 q 886 910 894 918 q 869 893 878 901 l 838 861 q 786 829 818 843 q 735 815 754 815 q 721 818 724 815 l 717 824 q 710 840 710 829 q 715 863 711 850 q 736 897 722 882 q 760 925 750 911 l 793 956 m 764 157 q 744 125 761 149 q 705 75 726 101 q 663 26 683 49 q 632 0 642 4 l 44 0 q 47 10 47 14 l 47 14 l 547 653 q 564 675 551 661 q 591 702 576 689 q 620 726 606 715 q 644 736 635 736 l 878 736 q 903 721 892 736 q 924 683 915 706 q 938 637 932 661 q 949 596 944 613 l 1040 0 l 793 0 l 764 157 m 764 186 l 715 513 l 482 200 l 482 186 l 764 186 m 776 -19 l 785 -19 l 808 -43 l 1086 -43 l 992 575 q 983 608 988 589 q 972 645 978 626 q 957 681 965 664 q 938 710 949 699 l 929 717 q 907 744 919 733 q 878 756 894 756 l 644 756 q 617 745 633 756 q 583 720 600 735 q 553 690 567 706 q 532 665 539 675 l 531 664 l 56 56 q 51 57 54 57 q 31 24 40 57 l 28 21 l 28 15 q 19 -19 24 -1 l 29 -19 l 53 -43 l 663 -43 q 680 -30 668 -40 q 705 -5 692 -19 q 733 26 718 10 q 761 60 749 43 l 776 -19 m 742 933 q 738 929 739 931 q 736 926 738 928 l 722 913 l 725 913 q 710 892 718 901 q 697 868 701 882 q 690 839 690 850 q 700 813 690 822 l 706 806 q 718 797 707 803 l 736 781 q 763 772 744 772 q 819 788 785 772 q 875 822 853 803 l 908 854 l 913 858 q 926 874 919 865 q 938 893 933 882 l 939 893 q 946 924 946 906 q 928 968 946 950 l 915 979 q 903 999 911 990 q 857 1017 875 1017 q 813 999 835 1017 q 772 963 792 982 l 742 933 m 740 206 l 554 206 l 708 411 l 740 206 z "},"":{"ha":1082,"x_min":19,"x_max":1086,"o":"m 725 824 q 599 824 596 821 l 747 969 q 762 980 754 974 q 776 986 769 986 l 863 986 q 884 974 874 986 q 900 954 894 963 l 965 824 l 851 824 l 804 906 l 725 824 m 764 157 q 744 125 761 149 q 705 75 726 101 q 663 26 683 49 q 632 0 642 4 l 44 0 q 47 10 47 14 l 47 14 l 547 653 q 564 675 551 661 q 591 702 576 689 q 620 726 606 715 q 644 736 635 736 l 878 736 q 903 721 892 736 q 924 683 915 706 q 938 637 932 661 q 949 596 944 613 l 1040 0 l 793 0 l 764 157 m 764 186 l 715 513 l 482 200 l 482 186 l 764 186 m 776 -19 l 785 -19 l 808 -43 l 1086 -43 l 992 575 q 983 608 988 589 q 972 645 978 626 q 957 681 965 664 q 938 710 949 699 l 929 717 q 907 744 919 733 q 878 756 894 756 l 644 756 q 617 745 633 756 q 583 720 600 735 q 553 690 567 706 q 532 665 539 675 l 531 664 l 56 56 q 51 57 54 57 q 31 24 40 57 l 28 21 l 28 15 q 19 -19 24 -1 l 29 -19 l 53 -43 l 663 -43 q 680 -30 668 -40 q 705 -5 692 -19 q 733 26 718 10 q 761 60 749 43 l 776 -19 m 839 804 l 846 804 l 869 781 l 1018 781 l 943 929 q 935 942 940 935 q 922 956 929 949 l 921 956 l 921 957 l 894 983 q 879 996 888 990 q 863 1001 871 1001 l 776 1001 q 760 998 765 1001 q 747 989 754 994 q 738 982 743 985 l 588 835 q 578 813 571 818 l 585 804 q 604 803 593 803 q 629 803 615 803 q 672 803 644 803 q 733 804 701 803 l 800 872 l 818 840 l 821 843 l 842 808 l 846 804 l 997 804 l 921 956 l 918 958 q 919 957 919 957 q 922 956 921 957 l 921 957 l 917 965 q 895 991 910 976 q 863 1006 881 1006 l 776 1006 q 758 1001 765 1006 q 744 992 751 997 q 736 986 742 989 l 585 838 q 571 817 571 824 q 585 804 571 808 l 606 785 q 624 780 610 781 q 657 779 638 779 q 700 779 672 779 q 760 781 728 779 l 818 840 l 839 804 m 790 899 l 815 894 l 843 867 l 829 851 l 853 808 l 990 808 l 915 957 q 908 967 913 963 q 890 974 899 974 l 804 974 q 788 970 793 974 q 775 961 782 967 q 765 954 771 957 l 615 807 l 629 807 q 672 807 644 807 q 732 808 700 807 l 800 879 l 790 899 m 740 206 l 554 206 l 708 411 l 740 206 z "},"":{"ha":1082,"x_min":19,"x_max":1146,"o":"m 976 986 l 1103 986 q 1101 983 1103 986 q 1085 967 1099 981 q 1040 924 1071 953 q 954 840 1010 894 q 940 830 949 836 q 924 824 931 824 l 810 824 l 764 906 l 683 824 l 557 824 l 706 969 q 721 980 713 974 q 736 986 729 986 l 850 986 l 896 904 l 976 986 m 764 157 q 744 125 761 149 q 705 75 726 101 q 663 26 683 49 q 632 0 642 4 l 44 0 q 47 10 47 14 l 47 14 l 547 653 q 564 675 551 661 q 591 702 576 689 q 620 726 606 715 q 644 736 635 736 l 878 736 q 903 721 892 736 q 924 683 915 706 q 938 637 932 661 q 949 596 944 613 l 1040 0 l 793 0 l 764 157 m 764 186 l 715 513 l 482 200 l 482 186 l 764 186 m 776 -19 l 785 -19 l 808 -43 l 1086 -43 l 992 575 q 983 608 988 589 q 972 645 978 626 q 957 681 965 664 q 938 710 949 699 l 929 717 q 907 744 919 733 q 878 756 894 756 l 644 756 q 617 745 633 756 q 583 720 600 735 q 553 690 567 706 q 532 665 539 675 l 531 664 l 56 56 q 51 57 54 57 q 31 24 40 57 l 28 21 l 28 15 q 19 -19 24 -1 l 29 -19 l 53 -43 l 663 -43 q 680 -30 668 -40 q 705 -5 692 -19 q 733 26 718 10 q 761 60 749 43 l 776 -19 m 736 1006 q 717 1001 725 1006 q 703 992 710 997 q 694 986 700 989 l 510 804 l 524 804 l 547 781 l 718 781 l 776 839 l 797 804 l 804 804 l 828 781 l 951 781 q 974 788 963 781 q 992 800 985 794 q 1081 886 1050 856 q 1127 933 1113 917 q 1144 957 1142 950 q 1146 974 1146 964 l 1122 997 l 1122 1006 l 968 1006 l 904 940 l 888 974 l 871 990 l 863 1006 l 736 1006 m 740 206 l 554 206 l 708 411 l 740 206 z "},"":{"ha":1082,"x_min":19,"x_max":1086,"o":"m 1026 907 q 980 849 1014 872 q 908 825 946 825 q 854 849 871 825 q 850 907 838 872 q 897 965 863 942 q 968 989 931 989 q 1022 965 1006 989 q 1026 907 1039 942 m 599 907 q 644 965 611 942 q 715 989 678 989 q 770 965 753 989 q 775 907 788 942 q 728 849 763 872 q 656 825 693 825 q 602 849 618 825 q 599 907 586 872 m 764 157 q 744 125 761 149 q 705 75 726 101 q 663 26 683 49 q 632 0 642 4 l 44 0 q 47 10 47 14 l 47 14 l 547 653 q 564 675 551 661 q 591 702 576 689 q 620 726 606 715 q 644 736 635 736 l 878 736 q 903 721 892 736 q 924 683 915 706 q 938 637 932 661 q 949 596 944 613 l 1040 0 l 793 0 l 764 157 m 764 186 l 715 513 l 482 200 l 482 186 l 764 186 m 776 -19 l 785 -19 l 808 -43 l 1086 -43 l 992 575 q 983 608 988 589 q 972 645 978 626 q 957 681 965 664 q 938 710 949 699 l 929 717 q 907 744 919 733 q 878 756 894 756 l 644 756 q 617 745 633 756 q 583 720 600 735 q 553 690 567 706 q 532 665 539 675 l 531 664 l 56 56 q 51 57 54 57 q 31 24 40 57 l 28 21 l 28 15 q 19 -19 24 -1 l 29 -19 l 53 -43 l 663 -43 q 680 -30 668 -40 q 705 -5 692 -19 q 733 26 718 10 q 761 60 749 43 l 776 -19 m 875 804 q 936 782 897 782 q 1016 808 978 782 q 1068 874 1054 835 q 1075 907 1075 889 q 1057 954 1075 936 l 1044 965 q 968 1008 1026 1008 q 885 981 925 1008 q 832 914 846 954 q 825 879 825 899 q 864 814 825 833 l 875 804 m 581 914 q 574 879 574 899 q 614 814 574 831 l 625 803 q 683 782 646 782 q 764 808 725 782 q 817 874 803 835 q 822 890 819 882 q 824 906 824 899 q 804 954 824 935 l 793 964 q 765 996 785 983 q 715 1008 744 1008 q 633 981 672 1008 q 581 914 594 954 m 740 206 l 554 206 l 708 411 l 740 206 z "},"":{"ha":1082,"x_min":19,"x_max":1086,"o":"m 726 907 q 772 965 739 942 q 843 989 806 989 q 898 965 881 989 q 903 907 915 942 q 856 849 890 872 q 783 825 821 825 q 730 849 746 825 q 726 907 714 872 m 764 157 q 744 125 761 149 q 705 75 726 101 q 663 26 683 49 q 632 0 642 4 l 44 0 q 47 10 47 14 l 47 14 l 547 653 q 564 675 551 661 q 591 702 576 689 q 620 726 606 715 q 644 736 635 736 l 878 736 q 903 721 892 736 q 924 683 915 706 q 938 637 932 661 q 949 596 944 613 l 1040 0 l 793 0 l 764 157 m 764 186 l 715 513 l 482 200 l 482 186 l 764 186 m 776 -19 l 785 -19 l 808 -43 l 1086 -43 l 992 575 q 983 608 988 589 q 972 645 978 626 q 957 681 965 664 q 938 710 949 699 l 929 717 q 907 744 919 733 q 878 756 894 756 l 644 756 q 617 745 633 756 q 583 720 600 735 q 553 690 567 706 q 532 665 539 675 l 531 664 l 56 56 q 51 57 54 57 q 31 24 40 57 l 28 21 l 28 15 q 19 -19 24 -1 l 29 -19 l 53 -43 l 663 -43 q 680 -30 668 -40 q 705 -5 692 -19 q 733 26 718 10 q 761 60 749 43 l 776 -19 m 708 914 q 701 879 701 899 q 742 814 701 831 l 753 803 q 811 782 774 782 q 892 808 853 782 q 944 874 931 835 q 949 890 947 882 q 951 906 951 899 q 932 954 951 935 l 921 964 q 892 996 913 983 q 843 1008 872 1008 q 761 981 800 1008 q 708 914 722 954 m 740 206 l 554 206 l 708 411 l 740 206 z "},"":{"ha":1649,"x_min":19,"x_max":1908,"o":"m 482 186 l 764 186 l 715 513 l 482 200 l 482 186 m 1856 736 q 1823 685 1846 717 q 1774 624 1800 654 q 1724 571 1749 593 q 1689 549 1700 549 l 1261 549 l 1182 331 l 1314 458 l 1635 458 l 1436 271 l 1160 271 l 1129 188 l 1661 188 q 1654 176 1660 185 q 1643 157 1649 167 q 1632 139 1638 147 q 1625 129 1626 131 q 1591 90 1613 113 q 1549 48 1569 68 q 1512 14 1528 28 q 1494 0 1496 0 l 793 0 l 764 157 q 744 125 761 149 q 705 75 726 101 q 663 26 683 49 q 632 0 642 4 l 44 0 q 47 10 47 14 l 47 14 l 547 653 q 564 675 551 661 q 591 702 576 689 q 620 726 606 715 q 644 736 635 736 l 878 736 q 903 721 890 736 q 925 683 915 706 q 941 638 935 661 q 949 596 947 614 l 968 472 l 1064 736 l 1856 736 m 1051 756 l 989 583 q 969 651 985 614 q 935 710 954 689 l 924 719 q 901 745 913 735 q 878 756 890 756 l 644 756 q 617 745 633 756 q 583 720 600 735 q 553 690 567 706 q 532 665 539 675 l 531 664 l 56 56 q 51 57 54 57 q 31 24 40 57 l 28 21 l 28 15 q 19 -19 24 -1 l 29 -19 l 53 -43 l 663 -43 q 680 -30 668 -40 q 705 -5 692 -19 q 733 26 718 10 q 761 60 749 43 l 776 -19 l 785 -19 l 808 -43 l 1522 -43 q 1541 -29 1524 -43 q 1581 6 1558 -15 q 1627 49 1604 26 q 1664 90 1650 72 q 1672 103 1665 92 q 1688 130 1679 115 q 1703 158 1696 144 q 1714 175 1711 171 l 1689 199 q 1691 203 1690 201 q 1693 207 1692 206 l 1190 207 l 1197 228 l 1471 228 l 1701 446 l 1676 471 l 1683 478 l 1306 478 l 1279 451 l 1299 506 l 1717 506 q 1757 531 1729 506 q 1815 592 1785 557 q 1871 665 1844 628 q 1908 724 1897 701 l 1883 749 q 1888 756 1885 750 l 1051 756 m 740 206 l 554 206 l 708 411 l 740 206 z "},"":{"ha":910,"x_min":107,"x_max":1189,"o":"m 494 329 q 503 288 494 310 q 525 246 511 265 q 560 217 542 228 q 597 207 579 207 l 965 207 q 961 200 963 201 l 986 175 q 901 60 947 118 q 797 -43 856 1 l 625 -43 l 567 -204 l 147 -204 l 124 -181 l 107 -181 l 329 -14 l 396 -14 l 401 3 q 299 69 342 28 q 207 177 240 113 q 174 338 174 242 q 204 482 174 408 q 288 617 235 556 q 409 717 340 678 q 556 756 478 756 l 1169 756 q 1166 751 1167 753 q 1164 749 1165 750 l 1189 724 q 1095 608 1142 661 q 990 506 1049 554 l 625 506 q 587 494 606 506 q 553 466 568 483 q 525 426 538 449 q 504 382 513 404 l 506 382 q 494 329 494 344 m 529 -161 l 588 1 q 604 0 592 0 l 619 0 l 653 0 l 764 0 q 857 91 817 42 q 929 188 897 140 l 597 188 q 548 204 574 188 q 501 246 522 221 q 465 301 479 271 q 451 357 451 331 q 463 414 451 376 q 485 462 471 438 q 516 506 499 486 q 554 537 533 525 q 597 549 575 549 l 958 549 q 1048 637 1007 590 q 1129 736 1089 683 l 556 736 q 417 699 482 736 q 301 604 351 663 q 222 475 251 546 q 193 338 193 404 q 211 219 193 271 q 261 131 229 168 q 337 68 293 93 q 432 28 381 43 l 410 -33 l 336 -33 l 167 -161 l 529 -161 z "},"":{"ha":901,"x_min":29,"x_max":1168,"o":"m 792 931 q 794 902 792 917 q 790 868 797 888 q 779 845 786 856 q 761 829 772 835 l 753 824 q 738 821 739 821 q 697 835 718 821 q 668 867 675 849 l 658 899 q 654 915 656 907 q 657 933 653 924 q 708 992 667 968 q 747 1003 739 1003 q 769 990 763 1003 q 781 961 776 976 l 792 931 m 324 736 l 1115 736 q 1083 685 1106 717 q 1034 624 1060 654 q 984 571 1008 593 q 949 549 960 549 l 521 549 l 442 331 l 574 458 l 894 458 l 696 271 l 419 271 l 389 188 l 921 188 q 914 176 919 185 q 903 157 908 167 q 892 139 897 147 q 885 129 886 131 q 851 90 872 113 q 808 48 829 68 q 772 14 788 28 q 754 0 756 0 l 56 0 l 324 736 m 29 -19 l 39 -19 l 63 -43 l 782 -43 q 801 -29 783 -43 q 841 6 818 -15 q 887 49 864 26 q 924 90 910 72 l 925 92 q 935 106 928 94 q 949 132 942 118 q 964 158 957 146 q 974 175 971 171 l 949 199 q 951 203 950 201 q 953 207 951 206 l 450 207 l 457 228 l 731 228 l 961 446 l 936 471 l 943 478 l 565 478 l 539 451 l 558 506 l 976 506 q 1017 531 989 506 q 1074 592 1044 557 q 1131 665 1104 628 q 1168 724 1157 701 l 1143 749 q 1147 756 1144 750 l 311 756 l 29 -19 m 700 810 q 765 778 732 778 q 775 779 769 778 q 780 780 776 779 q 785 781 783 781 l 796 788 q 818 808 810 794 q 832 836 826 821 q 838 865 838 851 q 837 878 838 871 q 836 890 836 885 q 835 904 835 896 l 822 939 l 824 938 q 816 960 821 949 q 804 979 811 972 l 789 994 q 772 1015 782 1007 q 747 1022 763 1022 q 690 1006 736 1022 q 638 939 650 981 q 635 928 635 933 q 635 919 635 922 q 635 906 635 913 q 639 894 636 900 l 646 868 q 666 838 653 853 q 694 814 679 824 l 700 810 z "},"":{"ha":901,"x_min":29,"x_max":1168,"o":"m 735 963 q 767 991 750 978 q 799 1004 783 1004 q 829 993 814 1004 q 839 935 853 969 q 828 917 836 925 q 811 900 819 908 l 778 868 q 755 851 768 860 q 727 837 742 843 q 699 826 713 831 q 675 822 685 822 q 663 825 665 822 l 658 831 q 651 846 651 838 q 657 869 651 860 q 677 903 664 889 q 701 932 690 918 l 735 963 m 324 736 l 1115 736 q 1083 685 1106 717 q 1034 624 1060 654 q 984 571 1008 593 q 949 549 960 549 l 521 549 l 442 331 l 574 458 l 894 458 l 696 271 l 419 271 l 389 188 l 921 188 q 914 176 919 185 q 903 157 908 167 q 892 139 897 147 q 885 129 886 131 q 851 90 872 113 q 808 48 829 68 q 772 14 788 28 q 754 0 756 0 l 56 0 l 324 736 m 29 -19 l 39 -19 l 63 -43 l 782 -43 q 801 -29 783 -43 q 841 6 818 -15 q 887 49 864 26 q 924 90 910 72 l 925 92 q 935 106 928 94 q 949 132 942 118 q 964 158 957 146 q 974 175 971 171 l 949 199 q 951 203 950 201 q 953 207 951 206 l 450 207 l 457 228 l 731 228 l 961 446 l 936 471 l 943 478 l 565 478 l 539 451 l 558 506 l 976 506 q 1017 531 989 506 q 1074 592 1044 557 q 1131 665 1104 628 q 1168 724 1157 701 l 1143 749 q 1147 756 1144 750 l 311 756 l 29 -19 m 685 942 l 681 938 q 678 933 678 935 l 676 933 q 673 929 675 931 q 669 925 671 928 l 671 926 q 654 904 663 915 q 639 876 646 893 q 632 846 632 864 q 643 818 632 829 l 644 817 l 647 813 q 661 804 651 806 l 678 788 q 703 779 686 779 q 729 783 714 779 q 760 795 744 788 q 791 812 776 803 q 815 829 806 821 l 850 861 l 854 865 q 868 881 861 872 q 879 900 875 889 l 881 900 q 888 931 888 913 q 869 975 888 957 l 857 986 q 844 1006 853 997 q 799 1024 817 1024 q 755 1006 776 1024 q 714 969 733 989 l 685 942 z "},"":{"ha":901,"x_min":29,"x_max":1168,"o":"m 668 828 l 542 828 l 690 974 q 706 984 697 978 q 722 990 715 990 l 808 990 q 828 978 819 990 q 843 958 838 967 l 908 828 l 794 828 l 750 910 l 668 828 m 324 736 l 1115 736 q 1083 685 1106 717 q 1034 624 1060 654 q 984 571 1008 593 q 949 549 960 549 l 521 549 l 442 331 l 574 458 l 894 458 l 696 271 l 419 271 l 389 188 l 921 188 q 914 176 919 185 q 903 157 908 167 q 892 139 897 147 q 885 129 886 131 q 851 90 872 113 q 808 48 829 68 q 772 14 788 28 q 754 0 756 0 l 56 0 l 324 736 m 29 -19 l 39 -19 l 63 -43 l 782 -43 q 801 -29 783 -43 q 841 6 818 -15 q 887 49 864 26 q 924 90 910 72 l 925 92 q 935 106 928 94 q 949 132 942 118 q 964 158 957 146 q 974 175 971 171 l 949 199 q 951 203 950 201 q 953 207 951 206 l 450 207 l 457 228 l 731 228 l 961 446 l 936 471 l 943 478 l 565 478 l 539 451 l 558 506 l 976 506 q 1017 531 989 506 q 1074 592 1044 557 q 1131 665 1104 628 q 1168 724 1157 701 l 1143 749 q 1147 756 1144 750 l 311 756 l 29 -19 m 782 808 l 789 808 l 813 785 l 961 785 l 886 933 q 876 948 882 940 q 864 963 871 956 l 863 963 l 863 964 l 860 969 q 840 995 853 981 q 808 1010 828 1010 l 722 1010 q 704 1004 714 1010 q 683 992 694 999 l 685 993 l 679 990 l 494 808 l 508 808 l 532 785 l 703 785 l 763 844 l 782 808 z "},"":{"ha":901,"x_min":29,"x_max":1168,"o":"m 988 907 q 941 849 975 872 q 869 825 907 825 q 815 849 832 825 q 811 907 799 872 q 858 965 824 942 q 929 989 892 989 q 983 965 967 989 q 988 907 1000 942 m 560 907 q 606 965 572 942 q 676 989 639 989 q 731 965 714 989 q 736 907 749 942 q 689 849 724 872 q 617 825 654 825 q 563 849 579 825 q 560 907 547 872 m 324 736 l 1115 736 q 1083 685 1106 717 q 1034 624 1060 654 q 984 571 1008 593 q 949 549 960 549 l 521 549 l 442 331 l 574 458 l 894 458 l 696 271 l 419 271 l 389 188 l 921 188 q 914 176 919 185 q 903 157 908 167 q 892 139 897 147 q 885 129 886 131 q 851 90 872 113 q 808 48 829 68 q 772 14 788 28 q 754 0 756 0 l 56 0 l 324 736 m 29 -19 l 39 -19 l 63 -43 l 782 -43 q 801 -29 783 -43 q 841 6 818 -15 q 887 49 864 26 q 924 90 910 72 l 925 92 q 935 106 928 94 q 949 132 942 118 q 964 158 957 146 q 974 175 971 171 l 949 199 q 951 203 951 201 q 953 207 951 206 l 450 207 l 457 228 l 731 228 l 961 446 l 936 471 l 943 478 l 565 478 l 539 451 l 558 506 l 976 506 q 1017 531 989 506 q 1074 592 1044 557 q 1131 665 1104 628 q 1168 724 1157 701 l 1143 749 q 1147 756 1144 750 l 311 756 l 29 -19 m 836 804 q 897 782 858 782 q 977 808 939 782 q 1029 874 1015 835 q 1036 907 1036 889 q 1018 954 1036 936 l 1014 958 q 1014 957 1014 957 q 1015 956 1015 957 l 1007 964 q 978 996 999 983 q 929 1008 958 1008 q 847 981 886 1008 q 793 914 807 954 q 786 879 786 899 q 825 814 786 833 l 836 804 m 542 914 q 535 879 535 899 q 575 814 535 831 l 586 803 q 644 782 607 782 q 725 808 686 782 q 778 874 764 835 q 783 890 781 882 q 785 906 785 899 q 765 954 785 935 l 754 964 q 726 996 746 983 q 676 1008 706 1008 q 594 981 633 1008 q 542 914 556 954 z "},"":{"ha":378,"x_min":29,"x_max":639,"o":"m 590 736 l 322 0 l 56 0 l 324 736 l 590 736 m 561 925 q 565 897 563 911 q 561 863 568 882 q 550 840 557 850 q 532 824 543 829 l 522 818 q 508 815 519 815 q 467 829 489 815 q 439 861 444 843 l 429 893 q 425 910 426 901 q 426 928 424 918 q 478 986 442 964 q 517 997 508 997 q 540 984 532 997 q 550 956 547 971 l 561 925 m 311 756 l 29 -19 l 39 -19 l 63 -43 l 360 -43 l 639 724 l 614 749 l 617 756 l 311 756 m 468 804 q 501 781 482 790 q 536 772 519 772 q 560 778 551 772 l 567 782 q 589 802 581 789 q 603 831 597 815 q 608 860 608 849 q 608 874 608 868 q 606 886 607 881 q 604 897 604 892 l 603 903 l 592 931 l 593 931 q 574 972 589 956 l 561 983 q 544 1007 554 997 q 517 1017 533 1017 q 465 1003 501 1017 q 408 933 425 978 q 406 922 406 926 q 406 915 406 918 q 406 901 406 908 q 410 889 407 894 l 419 856 q 435 830 422 842 q 463 810 447 818 l 468 804 z "},"":{"ha":378,"x_min":29,"x_max":653,"o":"m 500 958 q 532 987 515 974 q 564 1000 549 1000 q 594 989 579 1000 q 604 931 618 965 q 593 913 601 921 q 576 896 585 904 l 543 864 q 520 847 533 856 q 492 833 507 839 q 464 822 478 826 q 440 818 450 818 q 428 821 431 818 l 424 826 q 417 842 417 833 q 422 865 417 856 q 442 899 429 885 q 467 928 456 914 l 500 958 m 56 0 l 324 736 l 590 736 l 322 0 l 56 0 m 63 -43 l 360 -43 l 639 724 l 614 749 l 617 756 l 311 756 l 29 -19 l 39 -19 l 63 -43 m 450 938 l 446 933 q 443 929 443 931 l 442 929 q 438 925 440 926 q 435 921 436 924 l 436 922 q 419 900 428 911 q 404 872 411 889 q 397 842 397 860 q 408 814 397 825 l 410 813 l 413 808 q 426 800 417 801 l 443 783 q 468 775 451 775 q 494 779 479 775 q 526 791 510 783 q 556 808 542 799 q 581 825 571 817 l 615 857 l 619 861 q 633 876 626 868 q 644 896 640 885 l 646 896 q 653 926 653 908 q 635 971 653 953 l 622 982 q 610 1001 618 993 q 564 1019 582 1019 q 520 1002 542 1019 q 479 965 499 985 l 450 938 z "},"":{"ha":378,"x_min":29,"x_max":726,"o":"m 433 826 l 307 826 l 456 972 q 470 983 461 976 q 486 989 479 989 l 572 989 q 593 977 583 989 q 608 957 603 965 l 674 826 l 560 826 l 514 908 l 433 826 m 56 0 l 324 736 l 590 736 l 322 0 l 56 0 m 63 -43 l 360 -43 l 639 724 l 614 749 l 617 756 l 311 756 l 29 -19 l 39 -19 l 63 -43 m 547 807 l 554 807 l 578 783 l 726 783 l 651 932 q 642 947 647 939 q 629 961 636 954 l 628 963 l 625 968 q 605 994 618 979 q 572 1008 592 1008 l 486 1008 q 461 1001 472 1008 q 443 988 450 993 l 260 807 l 274 807 l 297 783 l 468 783 l 526 842 l 547 807 z "},"":{"ha":378,"x_min":29,"x_max":785,"o":"m 736 907 q 690 849 724 872 q 618 825 656 825 q 564 849 581 825 q 560 907 547 872 q 606 965 572 942 q 678 989 640 989 q 732 965 715 989 q 736 907 749 942 m 308 907 q 354 965 321 942 q 425 989 388 989 q 480 965 463 989 q 485 907 497 942 q 438 849 472 872 q 365 825 403 825 q 312 849 328 825 q 308 907 296 872 m 56 0 l 324 736 l 590 736 l 322 0 l 56 0 m 63 -43 l 360 -43 l 639 724 l 614 749 l 617 756 l 311 756 l 29 -19 l 39 -19 l 63 -43 m 585 804 q 646 782 607 782 q 726 808 688 782 q 778 874 764 835 q 785 907 785 889 q 767 954 785 936 l 754 965 q 678 1008 736 1008 q 595 981 635 1008 q 542 914 556 954 q 535 879 535 899 q 574 814 535 833 l 585 804 m 290 914 q 283 879 283 899 q 324 814 283 831 l 335 803 q 393 782 356 782 q 474 808 435 782 q 526 874 513 835 q 531 890 529 882 q 533 906 533 899 q 514 954 533 935 l 503 964 q 474 996 494 983 q 425 1008 454 1008 q 343 981 382 1008 q 290 914 304 954 z "},"":{"ha":1107,"x_min":92,"x_max":1282,"o":"m 576 271 l 546 188 l 588 188 q 663 204 618 188 q 754 246 708 221 q 839 301 800 271 q 897 357 878 331 q 916 382 906 368 q 933 414 926 396 q 950 493 950 457 q 940 533 950 517 q 903 549 929 549 l 678 549 l 644 458 l 813 458 l 614 271 l 576 271 m 1151 338 q 1019 183 1085 247 q 882 78 953 118 q 731 19 811 38 q 554 0 650 0 l 208 0 l 307 271 l 140 271 l 339 458 l 375 458 l 476 736 l 1081 736 q 1190 699 1151 736 q 1238 603 1229 661 q 1224 475 1246 546 q 1151 338 1201 404 m 129 228 l 271 228 l 182 -19 l 192 -19 l 215 -43 l 582 -43 q 763 -24 681 -43 q 917 36 844 -6 q 1057 143 990 78 q 1192 300 1124 208 q 1259 424 1236 361 q 1282 544 1282 488 q 1270 619 1282 585 q 1235 678 1258 654 l 1232 681 q 1174 735 1211 715 q 1081 756 1136 756 l 464 756 l 361 478 l 331 478 l 92 251 l 106 251 l 129 228 m 715 506 l 929 506 q 931 493 931 501 q 915 421 931 464 q 894 385 904 397 q 890 381 892 382 q 888 378 889 381 q 879 367 882 372 q 828 317 861 343 q 756 269 794 292 q 677 229 717 246 q 607 208 638 213 l 614 228 l 649 228 l 879 446 l 854 471 l 861 478 l 706 478 l 715 506 z "},"":{"ha":942,"x_min":29,"x_max":1203,"o":"m 919 986 l 1046 986 q 1044 983 1046 986 q 1028 967 1042 981 q 983 924 1014 953 q 897 840 953 894 q 883 830 892 836 q 867 824 874 824 l 753 824 l 707 906 l 626 824 l 500 824 l 649 969 q 664 980 656 974 q 679 986 672 986 l 793 986 l 839 904 l 919 986 m 56 0 l 324 736 l 660 736 l 739 322 l 890 736 l 1154 736 l 886 0 l 550 0 l 472 414 l 322 0 l 56 0 m 678 744 l 676 756 l 311 756 l 29 -19 l 39 -19 l 63 -43 l 360 -43 l 476 278 l 533 -19 l 542 -19 l 565 -43 l 924 -43 l 1203 724 l 1178 749 l 1181 756 l 878 756 l 757 425 l 700 724 l 678 744 m 679 1006 q 660 1001 668 1006 q 646 992 653 997 q 638 986 643 989 l 453 804 l 467 804 l 490 781 l 661 781 l 719 839 l 740 804 l 747 804 l 771 781 l 894 781 q 917 788 906 781 q 935 800 928 794 q 1024 886 993 856 q 1070 933 1056 917 q 1087 957 1085 950 q 1089 974 1089 964 l 1065 997 l 1065 1006 l 911 1006 l 847 940 l 831 974 l 814 990 l 806 1006 l 679 1006 z "},"":{"ha":1035,"x_min":153,"x_max":1174,"o":"m 890 928 q 894 899 890 914 q 890 865 897 885 q 878 842 885 853 q 861 826 871 832 l 851 821 q 836 818 849 818 q 795 832 817 818 q 767 864 774 846 l 758 896 q 754 913 756 904 q 756 931 753 921 q 807 989 771 967 q 846 1000 838 1000 q 869 987 861 1000 q 879 958 876 974 l 890 928 m 1124 399 q 1072 261 1114 332 q 969 132 1031 190 q 829 37 907 74 q 668 0 751 0 l 529 0 q 374 15 444 0 q 255 69 303 31 q 185 172 207 107 q 178 338 164 238 q 228 475 188 404 q 329 604 269 546 q 461 699 389 663 q 607 736 533 736 l 790 736 q 944 717 875 736 q 1057 658 1013 699 q 1120 554 1101 618 q 1124 399 1139 490 m 440 357 q 444 301 436 331 q 469 246 453 271 q 510 204 486 221 q 561 188 533 188 l 653 188 q 695 199 669 188 q 748 231 721 211 q 799 274 775 250 q 836 322 824 299 q 851 353 849 342 l 857 367 q 859 377 858 374 q 860 379 860 381 q 862 406 861 393 q 863 435 863 419 q 857 477 863 457 q 839 513 851 497 q 805 539 826 529 q 751 549 783 549 l 639 549 q 591 537 617 549 q 540 506 565 525 q 494 462 515 486 q 460 414 472 438 q 447 383 453 397 q 440 357 442 368 m 557 -43 l 696 -43 q 861 -5 781 -43 q 1006 93 942 33 q 1113 226 1071 153 q 1167 368 1156 299 q 1172 407 1169 388 q 1174 446 1174 426 q 1107 631 1174 561 q 981 726 1063 697 q 790 756 900 756 l 607 756 q 455 717 531 756 q 317 617 379 678 q 211 483 254 557 q 158 340 168 410 q 154 302 156 321 q 153 265 153 283 q 180 129 153 183 q 256 43 207 75 q 383 -24 306 -6 q 557 -43 461 -43 m 482 311 q 483 325 482 319 l 483 328 q 489 351 485 339 q 500 379 493 364 l 501 379 q 533 424 513 401 q 576 465 553 447 q 622 494 599 483 q 667 506 646 506 l 779 506 q 826 496 804 506 q 843 435 843 471 q 842 415 843 424 q 842 396 842 406 q 838 371 839 385 l 832 356 q 817 326 831 349 q 784 284 806 306 q 738 245 763 263 q 690 217 714 228 q 653 207 667 207 l 561 207 q 504 232 532 207 q 482 311 482 267 m 846 1019 q 794 1006 831 1019 q 738 936 754 981 q 735 925 735 929 q 735 918 735 921 l 735 906 l 736 899 l 746 864 q 794 811 758 831 l 799 807 q 831 784 813 793 q 864 775 849 775 q 890 782 883 775 l 896 785 q 916 804 907 792 q 932 832 925 817 q 938 860 938 847 q 937 874 938 868 q 935 885 936 879 q 933 901 933 890 l 921 933 l 922 933 q 903 975 918 958 l 890 986 q 873 1010 883 1000 q 846 1019 863 1019 z "},"":{"ha":1035,"x_min":153,"x_max":1174,"o":"m 824 958 q 856 987 839 974 q 888 1000 872 1000 q 918 989 903 1000 q 928 931 942 965 q 917 913 925 921 q 900 896 908 904 l 867 864 q 844 847 857 856 q 816 833 831 839 q 788 822 801 826 q 764 818 774 818 q 751 821 754 818 l 747 826 q 740 842 740 833 q 746 865 740 856 q 766 899 753 885 q 790 928 779 914 l 824 958 m 1124 399 q 1072 261 1114 332 q 969 132 1031 190 q 829 37 907 74 q 668 0 751 0 l 529 0 q 374 15 444 0 q 255 69 303 31 q 185 172 207 107 q 178 338 164 238 q 228 475 188 404 q 329 604 269 546 q 461 699 389 663 q 607 736 533 736 l 790 736 q 944 717 875 736 q 1057 658 1013 699 q 1120 554 1101 618 q 1124 399 1139 490 m 440 357 q 444 301 436 331 q 469 246 453 271 q 510 204 486 221 q 561 188 533 188 l 653 188 q 695 199 669 188 q 748 231 721 211 q 799 274 775 250 q 836 322 824 299 q 851 353 849 342 l 857 367 q 859 377 858 374 q 860 379 860 381 q 862 406 861 393 q 863 435 863 419 q 857 477 863 457 q 839 513 851 497 q 805 539 826 529 q 751 549 783 549 l 639 549 q 591 537 617 549 q 540 506 565 525 q 494 462 515 486 q 460 414 472 438 q 447 383 453 397 q 440 357 442 368 m 557 -43 l 696 -43 q 861 -5 781 -43 q 1006 93 942 33 q 1113 226 1071 153 q 1167 368 1156 299 q 1172 407 1169 388 q 1174 446 1174 426 q 1107 631 1174 561 q 981 726 1063 697 q 790 756 900 756 l 607 756 q 455 717 531 756 q 317 617 379 678 q 211 483 254 557 q 158 340 168 410 q 154 302 156 321 q 153 265 153 283 q 180 129 153 183 q 256 43 207 75 q 383 -24 306 -6 q 557 -43 461 -43 m 482 311 q 483 325 482 319 l 483 328 q 489 351 485 339 q 500 379 493 364 l 501 379 q 533 424 513 401 q 576 465 553 447 q 622 494 599 483 q 667 506 646 506 l 779 506 q 826 496 804 506 q 843 435 843 471 q 842 415 843 424 q 842 396 842 406 q 838 371 839 385 l 832 356 q 817 326 831 349 q 784 284 806 306 q 738 245 763 263 q 690 217 714 228 q 653 207 667 207 l 561 207 q 504 232 532 207 q 482 311 482 267 m 774 938 l 769 933 q 767 929 767 931 l 765 929 q 762 925 764 926 q 758 921 760 924 l 760 922 q 743 900 751 911 q 728 872 735 889 q 721 842 721 860 q 732 814 721 825 l 733 813 l 736 808 q 750 800 740 801 l 767 783 q 792 775 775 775 q 818 779 803 775 q 849 791 833 783 q 880 808 865 799 q 904 825 894 817 l 939 857 l 943 861 q 957 876 950 868 q 968 896 964 885 l 969 896 q 976 926 976 908 q 958 971 976 953 l 946 982 q 933 1001 942 993 q 888 1019 906 1019 q 844 1002 865 1019 q 803 965 822 985 l 774 938 z "},"":{"ha":1035,"x_min":153,"x_max":1174,"o":"m 740 825 l 614 825 l 763 971 q 778 981 769 975 q 794 988 788 988 l 881 988 q 901 976 892 988 q 915 956 910 964 l 981 825 l 867 825 l 822 907 l 740 825 m 1124 399 q 1072 261 1114 332 q 969 132 1031 190 q 829 37 907 74 q 668 0 751 0 l 529 0 q 374 15 444 0 q 255 69 303 31 q 185 172 207 107 q 178 338 164 238 q 228 475 188 404 q 329 604 269 546 q 461 699 389 663 q 607 736 533 736 l 790 736 q 944 717 875 736 q 1057 658 1013 699 q 1120 554 1101 618 q 1124 399 1139 490 m 440 357 q 444 301 436 331 q 469 246 453 271 q 510 204 486 221 q 561 188 533 188 l 653 188 q 695 199 669 188 q 748 231 721 211 q 799 274 775 250 q 836 322 824 299 q 851 353 849 342 l 857 367 q 859 377 858 374 q 860 379 860 381 q 862 406 861 393 q 863 435 863 419 q 857 477 863 457 q 839 513 851 497 q 805 539 826 529 q 751 549 783 549 l 639 549 q 591 537 617 549 q 540 506 565 525 q 494 462 515 486 q 460 414 472 438 q 447 383 453 397 q 440 357 442 368 m 557 -43 l 696 -43 q 861 -5 781 -43 q 1006 93 942 33 q 1113 226 1071 153 q 1167 368 1156 299 q 1172 407 1169 388 q 1174 446 1174 426 q 1107 631 1174 561 q 981 726 1063 697 q 790 756 900 756 l 607 756 q 455 717 531 756 q 317 617 379 678 q 211 483 254 557 q 158 340 168 410 q 154 302 156 321 q 153 265 153 283 q 180 129 153 183 q 256 43 207 75 q 383 -24 306 -6 q 557 -43 461 -43 m 482 311 q 483 325 482 319 l 483 328 q 489 351 485 339 q 500 379 493 364 l 501 379 q 533 424 513 401 q 576 465 553 447 q 622 494 599 483 q 667 506 646 506 l 779 506 q 826 496 804 506 q 843 435 843 471 q 842 415 843 424 q 842 396 842 406 q 838 371 839 385 l 832 356 q 817 326 831 349 q 784 284 806 306 q 738 245 763 263 q 690 217 714 228 q 653 207 667 207 l 561 207 q 504 232 532 207 q 482 311 482 267 m 854 806 l 861 806 l 885 782 l 1033 782 l 958 931 q 949 945 954 938 q 936 960 943 953 l 935 961 l 932 967 q 913 992 925 978 q 881 1007 900 1007 l 794 1007 q 776 1001 786 1007 q 756 989 767 996 l 757 990 l 751 988 l 567 806 l 581 806 l 604 782 l 775 782 l 835 842 l 854 806 z "},"":{"ha":1035,"x_min":153,"x_max":1174,"o":"m 969 986 l 1096 986 q 1094 983 1096 986 q 1078 967 1092 981 q 1033 924 1064 953 q 947 840 1003 894 q 933 830 942 836 q 917 824 924 824 l 803 824 l 757 906 l 676 824 l 550 824 l 699 969 q 714 980 706 974 q 729 986 722 986 l 843 986 l 889 904 l 969 986 m 440 357 q 444 301 436 331 q 469 246 453 271 q 510 204 486 221 q 561 188 533 188 l 653 188 q 695 199 669 188 q 748 231 721 211 q 799 274 775 250 q 836 322 824 299 q 851 353 849 342 l 857 367 q 859 377 858 374 q 860 379 860 381 q 862 406 861 393 q 863 435 863 419 q 857 477 863 457 q 839 513 851 497 q 805 539 826 529 q 751 549 783 549 l 639 549 q 591 537 617 549 q 540 506 565 525 q 494 462 515 486 q 460 414 472 438 q 447 383 453 397 q 440 357 442 368 m 1124 399 q 1072 261 1114 332 q 969 132 1031 190 q 829 37 907 74 q 668 0 751 0 l 529 0 q 374 15 444 0 q 255 69 303 31 q 185 172 207 107 q 178 338 164 238 q 228 475 188 404 q 329 604 269 546 q 461 699 389 663 q 607 736 533 736 l 790 736 q 944 717 875 736 q 1057 658 1013 699 q 1120 554 1101 618 q 1124 399 1139 490 m 557 -43 l 696 -43 q 861 -5 781 -43 q 1006 93 942 33 q 1113 226 1071 153 q 1167 368 1156 299 q 1172 407 1169 388 q 1174 446 1174 426 q 1107 631 1174 561 q 981 726 1063 697 q 790 756 900 756 l 607 756 q 455 717 531 756 q 317 617 379 678 q 211 483 254 557 q 158 340 168 410 q 154 302 156 321 q 153 265 153 283 q 180 129 153 183 q 256 43 207 75 q 383 -24 306 -6 q 557 -43 461 -43 m 729 1006 q 710 1001 718 1006 q 696 992 703 997 q 688 986 693 989 l 503 804 l 517 804 l 540 781 l 711 781 l 769 839 l 790 804 l 797 804 l 821 781 l 944 781 q 967 788 956 781 q 985 800 978 794 q 1074 886 1043 856 q 1120 933 1106 917 q 1137 957 1135 950 q 1139 974 1139 964 l 1115 997 l 1115 1006 l 961 1006 l 897 940 l 881 974 l 864 990 l 856 1006 l 729 1006 m 482 311 q 483 325 482 319 l 483 328 q 489 351 485 339 q 500 379 493 364 l 501 379 q 533 424 513 401 q 576 465 553 447 q 622 494 599 483 q 667 506 646 506 l 779 506 q 826 496 804 506 q 843 435 843 471 q 842 415 843 424 q 842 396 842 406 q 838 371 839 385 l 832 356 q 817 326 831 349 q 784 284 806 306 q 738 245 763 263 q 690 217 714 228 q 653 207 667 207 l 561 207 q 504 232 532 207 q 482 311 482 267 z "},"":{"ha":1035,"x_min":153,"x_max":1174,"o":"m 1051 907 q 1005 849 1039 872 q 933 825 971 825 q 879 849 896 825 q 875 907 863 872 q 922 965 888 942 q 993 989 956 989 q 1047 965 1031 989 q 1051 907 1064 942 m 624 907 q 669 965 636 942 q 740 989 703 989 q 795 965 778 989 q 800 907 813 942 q 753 849 788 872 q 681 825 718 825 q 627 849 643 825 q 624 907 611 872 m 1124 399 q 1072 261 1114 332 q 969 132 1031 190 q 829 37 907 74 q 668 0 751 0 l 529 0 q 374 15 444 0 q 255 69 303 31 q 185 172 207 107 q 178 338 164 238 q 228 475 188 404 q 329 604 269 546 q 461 699 389 663 q 607 736 533 736 l 790 736 q 944 717 875 736 q 1057 658 1013 699 q 1120 554 1101 618 q 1124 399 1139 490 m 440 357 q 444 301 436 331 q 469 246 453 271 q 510 204 486 221 q 561 188 533 188 l 653 188 q 695 199 669 188 q 748 231 721 211 q 799 274 775 250 q 836 322 824 299 q 851 353 849 342 l 857 367 q 859 377 858 374 q 860 379 860 381 q 862 406 861 393 q 863 435 863 419 q 857 477 863 457 q 839 513 851 497 q 805 539 826 529 q 751 549 783 549 l 639 549 q 591 537 617 549 q 540 506 565 525 q 494 462 515 486 q 460 414 472 438 q 447 383 453 397 q 440 357 442 368 m 557 -43 l 696 -43 q 861 -5 781 -43 q 1006 93 942 33 q 1113 226 1071 153 q 1167 368 1156 299 q 1172 407 1169 388 q 1174 446 1174 426 q 1107 631 1174 561 q 981 726 1063 697 q 790 756 900 756 l 607 756 q 455 717 531 756 q 317 617 379 678 q 211 483 254 557 q 158 340 168 410 q 154 302 156 321 q 153 265 153 283 q 180 129 153 183 q 256 43 207 75 q 383 -24 306 -6 q 557 -43 461 -43 m 482 311 q 483 325 482 319 l 483 328 q 489 351 485 339 q 500 379 493 364 l 501 379 q 533 424 513 401 q 576 465 553 447 q 622 494 599 483 q 667 506 646 506 l 779 506 q 826 496 804 506 q 843 435 843 471 q 842 415 843 424 q 842 396 842 406 q 838 371 839 385 l 832 356 q 817 326 831 349 q 784 284 806 306 q 738 245 763 263 q 690 217 714 228 q 653 207 667 207 l 561 207 q 504 232 532 207 q 482 311 482 267 m 900 804 q 961 782 922 782 q 1041 808 1003 782 q 1093 874 1079 835 q 1100 907 1100 889 q 1082 954 1100 936 l 1069 965 q 993 1008 1051 1008 q 910 981 950 1008 q 857 914 871 954 q 850 879 850 899 q 889 814 850 833 l 900 804 m 606 914 q 599 879 599 899 q 639 814 599 831 l 650 803 q 708 782 671 782 q 789 808 750 782 q 842 874 828 835 q 847 890 844 882 q 849 906 849 899 q 829 954 849 935 l 818 964 q 790 996 810 983 q 740 1008 769 1008 q 658 981 697 1008 q 606 914 619 954 z "},"":{"ha":588,"x_min":49,"x_max":818,"o":"m 399 201 l 310 131 l 88 131 l 64 154 l 49 154 l 314 369 l 213 572 l 429 572 l 436 557 l 454 540 l 475 499 l 565 572 l 801 572 l 793 565 l 818 540 l 560 332 l 661 131 l 454 131 l 431 154 l 424 154 l 399 201 m 390 264 l 436 174 l 608 174 l 513 364 l 746 553 l 574 553 l 464 464 l 417 553 l 244 553 l 339 364 l 104 174 l 276 174 l 390 264 z "},"":{"ha":1035,"x_min":153,"x_max":1174,"o":"m 440 357 q 439 326 438 342 q 444 294 440 310 l 796 542 q 751 549 765 549 l 639 549 q 591 537 617 549 q 540 506 565 525 q 494 462 515 486 q 460 414 472 438 q 447 383 453 397 q 440 357 442 368 m 860 379 q 860 454 864 414 l 510 204 q 561 188 532 188 l 653 188 q 695 199 669 188 q 748 231 721 211 q 799 274 775 250 q 836 322 824 299 q 851 353 849 342 l 857 367 q 859 377 858 374 q 860 379 860 381 m 1124 399 q 1072 261 1114 332 q 969 132 1031 190 q 829 37 907 74 q 668 0 751 0 l 529 0 q 374 15 444 0 q 255 69 303 31 q 185 172 207 107 q 178 338 164 238 q 228 475 188 404 q 329 604 269 546 q 461 699 389 663 q 607 736 533 736 l 790 736 q 944 717 875 736 q 1057 658 1013 699 q 1120 554 1101 618 q 1124 399 1139 490 m 557 -43 l 696 -43 q 861 -5 781 -43 q 1006 93 942 33 q 1113 226 1071 153 q 1167 368 1156 299 q 1172 407 1169 388 q 1174 446 1174 426 q 1107 631 1174 561 q 981 726 1063 697 q 790 756 900 756 l 607 756 q 455 717 531 756 q 317 617 379 678 q 211 483 254 557 q 158 340 168 410 q 154 302 156 321 q 153 265 153 283 q 180 129 153 183 q 256 43 207 75 q 383 -24 306 -6 q 557 -43 461 -43 m 838 371 l 832 356 q 817 326 831 349 q 784 284 806 306 q 738 245 763 263 q 690 217 714 228 q 653 207 667 207 l 607 207 l 838 372 l 838 371 m 500 379 l 501 379 q 533 424 513 401 q 576 465 553 447 q 622 494 599 483 q 667 506 646 506 l 711 506 l 488 347 q 493 363 490 354 q 500 379 496 371 z "},"":{"ha":981,"x_min":146,"x_max":1242,"o":"m 865 926 q 868 898 865 913 q 864 864 871 883 q 853 841 860 851 q 835 825 846 831 l 826 819 q 811 817 813 817 q 770 831 792 817 q 742 863 749 844 l 732 894 q 728 911 729 903 q 729 929 726 919 q 782 988 744 965 q 821 999 813 999 q 843 985 836 999 q 854 957 850 972 l 865 926 m 324 736 l 586 736 q 511 516 538 594 q 472 399 485 438 q 457 349 460 360 q 454 335 454 339 q 463 228 444 268 q 533 188 482 188 l 601 188 q 663 201 635 188 q 714 236 692 215 q 753 281 736 257 q 779 324 769 304 l 929 736 l 1193 736 l 1068 393 q 997 224 1033 297 q 915 101 961 151 q 810 26 869 51 q 667 0 750 0 l 504 0 q 228 62 310 0 q 174 272 146 124 q 191 344 181 308 q 214 428 201 381 l 324 736 m 194 433 q 190 415 192 424 q 185 399 188 407 l 181 382 q 154 275 164 332 q 149 237 151 256 q 147 201 147 218 q 226 36 147 90 l 229 35 q 346 -25 271 -7 q 532 -43 421 -43 l 694 -43 q 843 -17 781 -43 q 953 60 906 10 q 1037 186 1000 111 q 1110 360 1074 261 l 1242 724 l 1217 749 l 1219 756 l 917 756 l 761 331 q 736 291 751 313 q 700 251 721 269 q 655 219 679 232 q 601 207 631 207 l 533 207 q 500 215 514 207 q 494 264 494 232 q 494 282 494 272 q 497 304 494 293 q 500 319 497 308 q 516 372 503 331 q 557 494 529 413 q 635 724 585 576 l 610 749 q 613 756 610 750 l 310 756 l 194 433 m 774 806 q 839 774 806 774 q 849 775 843 774 q 853 776 850 775 q 858 776 857 776 l 869 783 q 892 803 883 790 q 906 832 900 817 q 911 861 911 847 q 910 874 911 867 q 910 886 910 881 q 908 900 908 892 l 896 935 l 897 933 q 890 956 894 944 q 878 975 885 968 l 863 990 q 846 1010 856 1003 q 821 1018 836 1018 q 768 1003 811 1018 q 711 935 731 981 q 708 924 708 928 q 708 917 708 919 q 709 903 708 910 q 713 890 710 896 l 719 864 q 740 834 726 849 q 768 810 753 819 l 774 806 z "},"":{"ha":981,"x_min":146,"x_max":1242,"o":"m 806 957 q 838 985 821 972 q 869 999 854 999 q 900 988 885 999 q 908 929 922 964 q 897 911 906 919 q 881 894 889 903 l 849 863 q 826 846 839 854 q 798 831 813 838 q 769 821 783 825 q 746 817 756 817 q 733 819 733 817 l 728 825 q 722 841 721 831 q 726 864 722 851 q 747 898 733 883 q 772 926 761 913 l 806 957 m 324 736 l 586 736 q 511 516 538 594 q 472 399 485 438 q 457 349 460 360 q 454 335 454 339 q 463 228 444 268 q 533 188 482 188 l 601 188 q 663 201 635 188 q 714 236 692 215 q 753 281 736 257 q 779 324 769 304 l 929 736 l 1193 736 l 1068 393 q 997 224 1033 297 q 915 101 961 151 q 810 26 869 51 q 667 0 750 0 l 504 0 q 228 62 310 0 q 174 272 146 124 q 191 344 181 308 q 214 428 201 381 l 324 736 m 194 433 q 190 415 192 424 q 185 399 188 407 l 181 382 q 154 275 164 332 q 149 237 151 256 q 147 201 147 218 q 226 36 147 90 l 229 35 q 346 -25 271 -7 q 532 -43 421 -43 l 694 -43 q 843 -17 781 -43 q 953 60 906 10 q 1037 186 1000 111 q 1110 360 1074 261 l 1242 724 l 1217 749 l 1219 756 l 917 756 l 761 331 q 736 291 751 313 q 700 251 721 269 q 655 219 679 232 q 601 207 631 207 l 533 207 q 500 215 514 207 q 494 264 494 232 q 494 282 494 272 q 497 304 494 293 q 500 319 497 308 q 516 372 503 331 q 557 494 529 413 q 635 724 585 576 l 610 749 q 613 756 610 750 l 310 756 l 194 433 m 758 940 q 751 932 753 935 q 747 926 750 929 q 726 902 736 915 q 708 869 715 889 q 701 840 701 851 q 713 813 701 824 l 721 804 q 732 799 724 801 l 749 782 l 750 782 q 774 774 758 774 q 800 778 785 774 q 831 790 815 782 q 862 806 847 797 q 886 824 876 815 l 919 856 l 924 860 q 938 876 931 867 q 950 896 946 885 q 957 926 957 911 q 940 969 957 953 l 928 982 q 915 1000 922 993 q 869 1018 888 1018 q 826 1001 847 1018 q 785 964 804 983 l 758 940 z "},"":{"ha":981,"x_min":146,"x_max":1242,"o":"m 718 825 l 592 825 l 740 971 q 756 981 747 975 q 771 988 764 988 l 857 988 q 878 976 868 988 q 893 956 888 964 l 958 825 l 844 825 l 799 907 l 718 825 m 324 736 l 586 736 q 511 516 538 594 q 472 399 485 438 q 457 349 460 360 q 454 335 454 339 q 463 228 444 268 q 533 188 482 188 l 601 188 q 663 201 635 188 q 714 236 692 215 q 753 281 736 257 q 779 324 769 304 l 929 736 l 1193 736 l 1068 393 q 997 224 1033 297 q 915 101 961 151 q 810 26 869 51 q 667 0 750 0 l 504 0 q 228 62 310 0 q 174 272 146 124 q 191 344 181 308 q 214 428 201 381 l 324 736 m 194 433 q 190 415 192 424 q 185 399 188 407 l 181 382 q 154 275 164 332 q 149 237 151 256 q 147 201 147 218 q 226 36 147 90 l 229 35 q 346 -25 271 -7 q 532 -43 421 -43 l 694 -43 q 843 -17 781 -43 q 953 60 906 10 q 1037 186 1000 111 q 1110 360 1074 261 l 1242 724 l 1217 749 l 1219 756 l 917 756 l 761 331 q 736 291 751 313 q 700 251 721 269 q 655 219 679 232 q 601 207 631 207 l 533 207 q 500 215 514 207 q 494 264 494 232 q 494 282 494 272 q 497 304 494 293 q 500 319 497 308 q 516 372 503 331 q 557 494 529 413 q 635 724 585 576 l 610 749 q 613 756 610 750 l 310 756 l 194 433 m 832 806 l 839 806 l 863 782 l 1011 782 l 936 931 q 926 945 932 938 q 914 960 921 953 l 913 961 l 910 967 q 890 992 903 978 q 857 1007 876 1007 l 771 1007 q 752 1003 760 1007 q 738 993 744 999 q 729 988 735 990 l 544 806 l 558 806 l 582 782 l 753 782 l 811 840 l 832 806 z "},"":{"ha":981,"x_min":146,"x_max":1242,"o":"m 1031 906 q 985 847 1018 871 q 914 824 951 824 q 859 847 876 824 q 854 906 842 871 q 901 964 867 940 q 974 988 936 988 q 1027 964 1011 988 q 1031 906 1043 940 m 324 736 l 586 736 q 511 516 538 594 q 472 399 485 438 q 457 349 460 360 q 454 335 454 339 q 463 228 444 268 q 533 188 482 188 l 601 188 q 663 201 635 188 q 714 236 692 215 q 753 281 736 257 q 779 324 769 304 l 929 736 l 1193 736 l 1068 393 q 997 224 1033 297 q 915 101 961 151 q 810 26 869 51 q 667 0 750 0 l 504 0 q 228 62 310 0 q 174 272 146 124 q 191 344 181 308 q 214 428 201 381 l 324 736 m 603 906 q 649 964 615 940 q 721 988 683 988 q 775 964 758 988 q 779 906 792 940 q 733 847 767 871 q 661 824 699 824 q 607 847 624 824 q 603 906 590 871 m 194 433 q 190 415 192 424 q 185 399 188 407 l 181 382 q 154 275 164 332 q 149 237 151 256 q 147 201 147 218 q 226 36 147 90 l 229 35 q 346 -25 271 -7 q 532 -43 421 -43 l 694 -43 q 843 -17 781 -43 q 953 60 906 10 q 1037 186 1000 111 q 1110 360 1074 261 l 1242 724 l 1217 749 l 1219 756 l 917 756 l 761 331 q 736 291 751 313 q 700 251 721 269 q 655 219 679 232 q 601 207 631 207 l 533 207 q 500 215 514 207 q 494 264 494 232 q 494 282 494 272 q 497 304 494 293 q 500 319 497 308 q 516 372 503 331 q 557 494 529 413 q 635 724 585 576 l 610 749 q 613 756 610 750 l 310 756 l 194 433 m 585 913 q 578 878 578 897 q 617 813 578 832 l 628 803 q 689 781 650 781 q 769 807 731 781 q 821 872 807 833 q 828 906 828 888 q 810 953 828 935 l 797 964 q 721 1007 779 1007 q 638 980 678 1007 q 585 913 599 953 m 881 803 q 942 781 903 781 q 1021 807 983 781 q 1072 872 1058 833 q 1079 906 1079 888 q 1060 954 1079 935 l 1049 964 q 974 1007 1031 1007 q 890 979 931 1007 q 835 911 850 951 q 834 908 835 910 q 833 906 833 907 l 833 907 q 830 895 831 900 q 829 879 829 890 q 869 814 829 833 l 881 803 z "},"":{"ha":944,"x_min":281,"x_max":1239,"o":"m 792 957 q 824 985 807 972 q 856 999 840 999 q 886 988 871 999 q 894 929 908 964 q 883 911 892 919 q 867 894 875 903 l 835 863 q 812 846 825 854 q 784 831 799 838 q 756 821 769 825 q 732 817 742 817 q 719 819 719 817 l 714 825 q 708 841 707 831 q 713 864 708 851 q 733 898 719 883 q 758 926 747 913 l 792 957 m 310 736 l 607 736 l 676 563 l 874 736 l 1171 736 l 733 350 l 606 0 l 339 0 l 467 350 l 310 736 m 624 743 l 619 756 l 281 756 l 444 349 l 313 -19 l 322 -19 l 346 -43 l 643 -43 l 774 314 l 1239 724 l 1214 749 l 1222 756 l 867 756 l 693 600 l 644 724 l 624 743 m 744 940 q 738 932 739 935 q 733 926 736 929 q 712 902 722 915 q 694 869 701 889 q 688 840 688 851 q 699 813 688 824 l 707 804 q 718 799 710 801 l 735 782 l 736 782 q 760 774 744 774 q 786 778 771 774 q 817 790 801 782 q 848 806 833 797 q 872 824 863 815 l 906 856 l 910 860 q 924 876 917 867 q 936 896 932 885 q 943 926 943 911 q 926 969 943 953 l 914 982 q 901 1000 908 993 q 856 1018 874 1018 q 812 1001 833 1018 q 771 964 790 983 l 744 940 z "},"":{"ha":978,"x_min":29,"x_max":1094,"o":"m 394 197 l 528 315 l 750 315 q 756 322 751 315 q 767 336 761 328 q 776 352 772 344 q 782 364 781 360 l 785 371 q 784 375 785 372 q 783 378 783 378 q 769 397 779 385 q 756 408 758 408 l 471 408 l 394 197 m 324 736 l 590 736 l 540 597 l 911 597 q 972 576 946 597 q 1015 523 999 554 q 1041 456 1032 492 q 1051 393 1050 421 q 1023 286 1051 335 q 951 202 994 238 q 857 147 908 167 q 758 128 806 128 l 368 128 l 322 0 l 56 0 l 324 736 m 29 -19 l 39 -19 l 63 -43 l 360 -43 l 406 85 l 786 85 q 890 106 836 85 q 990 164 944 126 q 1065 253 1035 201 q 1094 365 1094 304 q 1074 458 1092 406 q 1022 546 1057 510 q 975 597 1003 576 q 911 617 947 617 l 600 617 l 639 724 l 614 749 l 617 756 l 311 756 l 29 -19 m 508 365 l 761 365 l 760 363 q 754 347 758 358 q 750 335 750 335 l 521 335 l 486 304 l 508 365 z "},"":{"ha":965,"x_min":-42,"x_max":1119,"o":"m 475 247 l 465 247 l 431 149 q 455 178 442 164 q 483 208 468 193 l 650 208 q 659 213 651 208 q 676 224 667 217 l 499 224 l 475 247 m 468 256 l 718 474 l 775 474 q 781 485 776 474 q 786 501 785 497 l 788 504 l 558 504 l 468 256 m -32 -215 l -42 -215 l 240 565 q 306 654 265 606 q 394 756 346 703 l 936 756 q 1001 736 972 756 q 1049 688 1029 717 l 1050 686 q 1081 645 1068 668 q 1103 598 1094 622 q 1115 549 1111 574 q 1119 504 1119 525 l 1119 501 q 1111 449 1119 475 q 1089 398 1103 422 q 1057 354 1075 374 q 1019 322 1039 335 l 1021 322 q 1038 297 1029 311 q 1047 258 1046 283 q 1039 210 1047 236 q 1024 164 1031 183 l 1018 149 q 975 61 996 97 q 921 2 954 25 q 834 -32 888 -21 q 696 -43 781 -43 l 360 -43 l 289 -239 l -8 -239 l -32 -215 m 251 -196 l 521 547 l 781 547 q 794 535 783 547 q 808 517 804 524 q 809 514 808 517 q 811 510 810 511 l 808 503 q 802 491 807 499 q 792 475 797 483 q 781 460 786 467 q 775 454 776 454 l 725 454 l 511 267 l 714 267 q 713 247 714 257 q 710 233 713 238 l 707 226 q 703 222 706 225 q 701 219 701 219 q 689 210 697 215 q 672 201 681 206 q 657 192 664 196 q 650 189 650 189 l 492 189 q 419 101 453 149 q 350 0 386 53 l 668 0 q 801 10 750 0 q 883 42 851 21 q 935 99 915 64 q 976 182 956 133 l 982 197 q 997 241 989 215 q 1004 286 1004 267 q 989 329 1003 314 q 969 356 975 344 q 1008 382 989 364 q 1043 424 1028 400 q 1067 476 1058 449 q 1076 529 1076 503 l 1076 532 q 1068 595 1076 560 q 1042 662 1060 631 q 999 715 1025 693 q 936 736 972 736 l 401 736 q 322 646 360 692 q 257 553 285 600 l -15 -196 l 251 -196 z "},"":{"ha":1082,"x_min":19,"x_max":1086,"o":"m 851 924 q 855 895 851 910 q 851 861 858 881 q 839 838 846 849 q 821 822 832 828 l 813 817 q 797 814 810 814 q 756 828 778 814 q 728 860 735 842 l 719 892 q 715 908 717 900 q 717 926 713 917 q 768 985 732 963 q 807 996 799 996 q 830 983 822 996 q 840 954 838 969 l 851 924 m 764 157 q 744 125 761 149 q 705 75 726 101 q 663 26 683 49 q 632 0 642 4 l 44 0 q 47 10 47 14 l 47 14 l 547 653 q 564 675 551 661 q 591 702 576 689 q 620 726 606 715 q 644 736 635 736 l 878 736 q 903 721 892 736 q 924 683 915 706 q 938 637 932 661 q 949 596 944 613 l 1040 0 l 793 0 l 764 157 m 764 186 l 715 513 l 482 200 l 482 186 l 764 186 m 776 -19 l 785 -19 l 808 -43 l 1086 -43 l 992 575 q 983 608 988 589 q 972 645 978 626 q 957 681 965 664 q 938 710 949 699 l 929 717 q 907 744 919 733 q 878 756 894 756 l 644 756 q 617 745 633 756 q 583 720 600 735 q 553 690 567 706 q 532 665 539 675 l 531 664 l 56 56 q 51 57 54 57 q 31 24 40 57 l 28 21 l 28 15 q 19 -19 24 -1 l 29 -19 l 53 -43 l 663 -43 q 680 -30 668 -40 q 705 -5 692 -19 q 733 26 718 10 q 761 60 749 43 l 776 -19 m 760 803 q 792 780 774 789 q 825 771 810 771 q 851 778 844 771 l 856 781 q 878 800 871 788 q 893 828 886 813 q 899 856 899 843 q 898 869 899 864 q 896 881 897 875 q 894 896 894 886 l 893 901 l 882 929 l 883 929 q 864 971 879 954 l 851 982 q 834 1006 844 996 q 807 1015 824 1015 q 756 1001 792 1015 q 699 932 715 976 q 694 914 694 921 q 699 889 694 899 l 707 860 q 756 807 719 826 l 760 803 m 740 206 l 554 206 l 708 411 l 740 206 z "},"":{"ha":1082,"x_min":19,"x_max":1086,"o":"m 793 956 q 825 984 808 971 q 857 997 842 997 q 888 986 872 997 q 897 928 911 963 q 886 910 894 918 q 869 893 878 901 l 838 861 q 786 829 818 843 q 735 815 754 815 q 721 818 724 815 l 717 824 q 710 840 710 829 q 715 863 711 850 q 736 897 722 882 q 760 925 750 911 l 793 956 m 764 157 q 744 125 761 149 q 705 75 726 101 q 663 26 683 49 q 632 0 642 4 l 44 0 q 47 10 47 14 l 47 14 l 547 653 q 564 675 551 661 q 591 702 576 689 q 620 726 606 715 q 644 736 635 736 l 878 736 q 903 721 892 736 q 924 683 915 706 q 938 637 932 661 q 949 596 944 613 l 1040 0 l 793 0 l 764 157 m 764 186 l 715 513 l 482 200 l 482 186 l 764 186 m 776 -19 l 785 -19 l 808 -43 l 1086 -43 l 992 575 q 983 608 988 589 q 972 645 978 626 q 957 681 965 664 q 938 710 949 699 l 929 717 q 907 744 919 733 q 878 756 894 756 l 644 756 q 617 745 633 756 q 583 720 600 735 q 553 690 567 706 q 532 665 539 675 l 531 664 l 56 56 q 51 57 54 57 q 31 24 40 57 l 28 21 l 28 15 q 19 -19 24 -1 l 29 -19 l 53 -43 l 663 -43 q 680 -30 668 -40 q 705 -5 692 -19 q 733 26 718 10 q 761 60 749 43 l 776 -19 m 742 933 q 738 929 739 931 q 736 926 738 928 l 722 913 l 725 913 q 710 892 718 901 q 697 868 701 882 q 690 839 690 850 q 700 813 690 822 l 706 806 q 718 797 707 803 l 736 781 q 763 772 744 772 q 819 788 785 772 q 875 822 853 803 l 908 854 l 913 858 q 926 874 919 865 q 938 893 933 882 l 939 893 q 946 924 946 906 q 928 968 946 950 l 915 979 q 903 999 911 990 q 857 1017 875 1017 q 813 999 835 1017 q 772 963 792 982 l 742 933 m 740 206 l 554 206 l 708 411 l 740 206 z "},"":{"ha":1082,"x_min":19,"x_max":1086,"o":"m 725 824 q 599 824 596 821 l 747 969 q 762 980 754 974 q 776 986 769 986 l 863 986 q 884 974 874 986 q 900 954 894 963 l 965 824 l 851 824 l 804 906 l 725 824 m 764 157 q 744 125 761 149 q 705 75 726 101 q 663 26 683 49 q 632 0 642 4 l 44 0 q 47 10 47 14 l 47 14 l 547 653 q 564 675 551 661 q 591 702 576 689 q 620 726 606 715 q 644 736 635 736 l 878 736 q 903 721 892 736 q 924 683 915 706 q 938 637 932 661 q 949 596 944 613 l 1040 0 l 793 0 l 764 157 m 764 186 l 715 513 l 482 200 l 482 186 l 764 186 m 776 -19 l 785 -19 l 808 -43 l 1086 -43 l 992 575 q 983 608 988 589 q 972 645 978 626 q 957 681 965 664 q 938 710 949 699 l 929 717 q 907 744 919 733 q 878 756 894 756 l 644 756 q 617 745 633 756 q 583 720 600 735 q 553 690 567 706 q 532 665 539 675 l 531 664 l 56 56 q 51 57 54 57 q 31 24 40 57 l 28 21 l 28 15 q 19 -19 24 -1 l 29 -19 l 53 -43 l 663 -43 q 680 -30 668 -40 q 705 -5 692 -19 q 733 26 718 10 q 761 60 749 43 l 776 -19 m 839 804 l 846 804 l 869 781 l 1018 781 l 943 929 q 935 942 940 935 q 922 956 929 949 l 921 956 l 921 957 l 894 983 q 879 996 888 990 q 863 1001 871 1001 l 776 1001 q 760 998 765 1001 q 747 989 754 994 q 738 982 743 985 l 588 835 q 578 813 571 818 l 585 804 q 604 803 593 803 q 629 803 615 803 q 672 803 644 803 q 733 804 701 803 l 800 872 l 818 840 l 821 843 l 842 808 l 846 804 l 997 804 l 921 956 l 918 958 q 919 957 919 957 q 922 956 921 957 l 921 957 l 917 965 q 895 991 910 976 q 863 1006 881 1006 l 776 1006 q 758 1001 765 1006 q 744 992 751 997 q 736 986 742 989 l 585 838 q 571 817 571 824 q 585 804 571 808 l 606 785 q 624 780 610 781 q 657 779 638 779 q 700 779 672 779 q 760 781 728 779 l 818 840 l 839 804 m 790 899 l 815 894 l 843 867 l 829 851 l 853 808 l 990 808 l 915 957 q 908 967 913 963 q 890 974 899 974 l 804 974 q 788 970 793 974 q 775 961 782 967 q 765 954 771 957 l 615 807 l 629 807 q 672 807 644 807 q 732 808 700 807 l 800 879 l 790 899 m 740 206 l 554 206 l 708 411 l 740 206 z "},"":{"ha":1082,"x_min":19,"x_max":1146,"o":"m 976 986 l 1103 986 q 1101 983 1103 986 q 1085 967 1099 981 q 1040 924 1071 953 q 954 840 1010 894 q 940 830 949 836 q 924 824 931 824 l 810 824 l 764 906 l 683 824 l 557 824 l 706 969 q 721 980 713 974 q 736 986 729 986 l 850 986 l 896 904 l 976 986 m 764 157 q 744 125 761 149 q 705 75 726 101 q 663 26 683 49 q 632 0 642 4 l 44 0 q 47 10 47 14 l 47 14 l 547 653 q 564 675 551 661 q 591 702 576 689 q 620 726 606 715 q 644 736 635 736 l 878 736 q 903 721 892 736 q 924 683 915 706 q 938 637 932 661 q 949 596 944 613 l 1040 0 l 793 0 l 764 157 m 764 186 l 715 513 l 482 200 l 482 186 l 764 186 m 776 -19 l 785 -19 l 808 -43 l 1086 -43 l 992 575 q 983 608 988 589 q 972 645 978 626 q 957 681 965 664 q 938 710 949 699 l 929 717 q 907 744 919 733 q 878 756 894 756 l 644 756 q 617 745 633 756 q 583 720 600 735 q 553 690 567 706 q 532 665 539 675 l 531 664 l 56 56 q 51 57 54 57 q 31 24 40 57 l 28 21 l 28 15 q 19 -19 24 -1 l 29 -19 l 53 -43 l 663 -43 q 680 -30 668 -40 q 705 -5 692 -19 q 733 26 718 10 q 761 60 749 43 l 776 -19 m 736 1006 q 717 1001 725 1006 q 703 992 710 997 q 694 986 700 989 l 510 804 l 524 804 l 547 781 l 718 781 l 776 839 l 797 804 l 804 804 l 828 781 l 951 781 q 974 788 963 781 q 992 800 985 794 q 1081 886 1050 856 q 1127 933 1113 917 q 1144 957 1142 950 q 1146 974 1146 964 l 1122 997 l 1122 1006 l 968 1006 l 904 940 l 888 974 l 871 990 l 863 1006 l 736 1006 m 740 206 l 554 206 l 708 411 l 740 206 z "},"":{"ha":1082,"x_min":19,"x_max":1086,"o":"m 1026 907 q 980 849 1014 872 q 908 825 946 825 q 854 849 871 825 q 850 907 838 872 q 897 965 863 942 q 968 989 931 989 q 1022 965 1006 989 q 1026 907 1039 942 m 599 907 q 644 965 611 942 q 715 989 678 989 q 770 965 753 989 q 775 907 788 942 q 728 849 763 872 q 656 825 693 825 q 602 849 618 825 q 599 907 586 872 m 764 157 q 744 125 761 149 q 705 75 726 101 q 663 26 683 49 q 632 0 642 4 l 44 0 q 47 10 47 14 l 47 14 l 547 653 q 564 675 551 661 q 591 702 576 689 q 620 726 606 715 q 644 736 635 736 l 878 736 q 903 721 892 736 q 924 683 915 706 q 938 637 932 661 q 949 596 944 613 l 1040 0 l 793 0 l 764 157 m 764 186 l 715 513 l 482 200 l 482 186 l 764 186 m 776 -19 l 785 -19 l 808 -43 l 1086 -43 l 992 575 q 983 608 988 589 q 972 645 978 626 q 957 681 965 664 q 938 710 949 699 l 929 717 q 907 744 919 733 q 878 756 894 756 l 644 756 q 617 745 633 756 q 583 720 600 735 q 553 690 567 706 q 532 665 539 675 l 531 664 l 56 56 q 51 57 54 57 q 31 24 40 57 l 28 21 l 28 15 q 19 -19 24 -1 l 29 -19 l 53 -43 l 663 -43 q 680 -30 668 -40 q 705 -5 692 -19 q 733 26 718 10 q 761 60 749 43 l 776 -19 m 875 804 q 936 782 897 782 q 1016 808 978 782 q 1068 874 1054 835 q 1075 907 1075 889 q 1057 954 1075 936 l 1044 965 q 968 1008 1026 1008 q 885 981 925 1008 q 832 914 846 954 q 825 879 825 899 q 864 814 825 833 l 875 804 m 581 914 q 574 879 574 899 q 614 814 574 831 l 625 803 q 683 782 646 782 q 764 808 725 782 q 817 874 803 835 q 822 890 819 882 q 824 906 824 899 q 804 954 824 935 l 793 964 q 765 996 785 983 q 715 1008 744 1008 q 633 981 672 1008 q 581 914 594 954 m 740 206 l 554 206 l 708 411 l 740 206 z "},"":{"ha":1082,"x_min":19,"x_max":1086,"o":"m 726 907 q 772 965 739 942 q 843 989 806 989 q 898 965 881 989 q 903 907 915 942 q 856 849 890 872 q 783 825 821 825 q 730 849 746 825 q 726 907 714 872 m 764 157 q 744 125 761 149 q 705 75 726 101 q 663 26 683 49 q 632 0 642 4 l 44 0 q 47 10 47 14 l 47 14 l 547 653 q 564 675 551 661 q 591 702 576 689 q 620 726 606 715 q 644 736 635 736 l 878 736 q 903 721 892 736 q 924 683 915 706 q 938 637 932 661 q 949 596 944 613 l 1040 0 l 793 0 l 764 157 m 764 186 l 715 513 l 482 200 l 482 186 l 764 186 m 776 -19 l 785 -19 l 808 -43 l 1086 -43 l 992 575 q 983 608 988 589 q 972 645 978 626 q 957 681 965 664 q 938 710 949 699 l 929 717 q 907 744 919 733 q 878 756 894 756 l 644 756 q 617 745 633 756 q 583 720 600 735 q 553 690 567 706 q 532 665 539 675 l 531 664 l 56 56 q 51 57 54 57 q 31 24 40 57 l 28 21 l 28 15 q 19 -19 24 -1 l 29 -19 l 53 -43 l 663 -43 q 680 -30 668 -40 q 705 -5 692 -19 q 733 26 718 10 q 761 60 749 43 l 776 -19 m 708 914 q 701 879 701 899 q 742 814 701 831 l 753 803 q 811 782 774 782 q 892 808 853 782 q 944 874 931 835 q 949 890 947 882 q 951 906 951 899 q 932 954 951 935 l 921 964 q 892 996 913 983 q 843 1008 872 1008 q 761 981 800 1008 q 708 914 722 954 m 740 206 l 554 206 l 708 411 l 740 206 z "},"":{"ha":1649,"x_min":19,"x_max":1908,"o":"m 482 186 l 764 186 l 715 513 l 482 200 l 482 186 m 1856 736 q 1823 685 1846 717 q 1774 624 1800 654 q 1724 571 1749 593 q 1689 549 1700 549 l 1261 549 l 1182 331 l 1314 458 l 1635 458 l 1436 271 l 1160 271 l 1129 188 l 1661 188 q 1654 176 1660 185 q 1643 157 1649 167 q 1632 139 1638 147 q 1625 129 1626 131 q 1591 90 1613 113 q 1549 48 1569 68 q 1512 14 1528 28 q 1494 0 1496 0 l 793 0 l 764 157 q 744 125 761 149 q 705 75 726 101 q 663 26 683 49 q 632 0 642 4 l 44 0 q 47 10 47 14 l 47 14 l 547 653 q 564 675 551 661 q 591 702 576 689 q 620 726 606 715 q 644 736 635 736 l 878 736 q 903 721 890 736 q 925 683 915 706 q 941 638 935 661 q 949 596 947 614 l 968 472 l 1064 736 l 1856 736 m 1051 756 l 989 583 q 969 651 985 614 q 935 710 954 689 l 924 719 q 901 745 913 735 q 878 756 890 756 l 644 756 q 617 745 633 756 q 583 720 600 735 q 553 690 567 706 q 532 665 539 675 l 531 664 l 56 56 q 51 57 54 57 q 31 24 40 57 l 28 21 l 28 15 q 19 -19 24 -1 l 29 -19 l 53 -43 l 663 -43 q 680 -30 668 -40 q 705 -5 692 -19 q 733 26 718 10 q 761 60 749 43 l 776 -19 l 785 -19 l 808 -43 l 1522 -43 q 1541 -29 1524 -43 q 1581 6 1558 -15 q 1627 49 1604 26 q 1664 90 1650 72 q 1672 103 1665 92 q 1688 130 1679 115 q 1703 158 1696 144 q 1714 175 1711 171 l 1689 199 q 1691 203 1690 201 q 1693 207 1692 206 l 1190 207 l 1197 228 l 1471 228 l 1701 446 l 1676 471 l 1683 478 l 1306 478 l 1279 451 l 1299 506 l 1717 506 q 1757 531 1729 506 q 1815 592 1785 557 q 1871 665 1844 628 q 1908 724 1897 701 l 1883 749 q 1888 756 1885 750 l 1051 756 m 740 206 l 554 206 l 708 411 l 740 206 z "},"":{"ha":910,"x_min":107,"x_max":1189,"o":"m 494 329 q 503 288 494 310 q 525 246 511 265 q 560 217 542 228 q 597 207 579 207 l 965 207 q 961 200 963 201 l 986 175 q 901 60 947 118 q 797 -43 856 1 l 625 -43 l 567 -204 l 147 -204 l 124 -181 l 107 -181 l 329 -14 l 396 -14 l 401 3 q 299 69 342 28 q 207 177 240 113 q 174 338 174 242 q 204 482 174 408 q 288 617 235 556 q 409 717 340 678 q 556 756 478 756 l 1169 756 q 1166 751 1167 753 q 1164 749 1165 750 l 1189 724 q 1095 608 1142 661 q 990 506 1049 554 l 625 506 q 587 494 606 506 q 553 466 568 483 q 525 426 538 449 q 504 382 513 404 l 506 382 q 494 329 494 344 m 529 -161 l 588 1 q 604 0 592 0 l 619 0 l 653 0 l 764 0 q 857 91 817 42 q 929 188 897 140 l 597 188 q 548 204 574 188 q 501 246 522 221 q 465 301 479 271 q 451 357 451 331 q 463 414 451 376 q 485 462 471 438 q 516 506 499 486 q 554 537 533 525 q 597 549 575 549 l 958 549 q 1048 637 1007 590 q 1129 736 1089 683 l 556 736 q 417 699 482 736 q 301 604 351 663 q 222 475 251 546 q 193 338 193 404 q 211 219 193 271 q 261 131 229 168 q 337 68 293 93 q 432 28 381 43 l 410 -33 l 336 -33 l 167 -161 l 529 -161 z "},"":{"ha":901,"x_min":29,"x_max":1168,"o":"m 792 931 q 794 902 792 917 q 790 868 797 888 q 779 845 786 856 q 761 829 772 835 l 753 824 q 738 821 739 821 q 697 835 718 821 q 668 867 675 849 l 658 899 q 654 915 656 907 q 657 933 653 924 q 708 992 667 968 q 747 1003 739 1003 q 769 990 763 1003 q 781 961 776 976 l 792 931 m 324 736 l 1115 736 q 1083 685 1106 717 q 1034 624 1060 654 q 984 571 1008 593 q 949 549 960 549 l 521 549 l 442 331 l 574 458 l 894 458 l 696 271 l 419 271 l 389 188 l 921 188 q 914 176 919 185 q 903 157 908 167 q 892 139 897 147 q 885 129 886 131 q 851 90 872 113 q 808 48 829 68 q 772 14 788 28 q 754 0 756 0 l 56 0 l 324 736 m 29 -19 l 39 -19 l 63 -43 l 782 -43 q 801 -29 783 -43 q 841 6 818 -15 q 887 49 864 26 q 924 90 910 72 l 925 92 q 935 106 928 94 q 949 132 942 118 q 964 158 957 146 q 974 175 971 171 l 949 199 q 951 203 950 201 q 953 207 951 206 l 450 207 l 457 228 l 731 228 l 961 446 l 936 471 l 943 478 l 565 478 l 539 451 l 558 506 l 976 506 q 1017 531 989 506 q 1074 592 1044 557 q 1131 665 1104 628 q 1168 724 1157 701 l 1143 749 q 1147 756 1144 750 l 311 756 l 29 -19 m 700 810 q 765 778 732 778 q 775 779 769 778 q 780 780 776 779 q 785 781 783 781 l 796 788 q 818 808 810 794 q 832 836 826 821 q 838 865 838 851 q 837 878 838 871 q 836 890 836 885 q 835 904 835 896 l 822 939 l 824 938 q 816 960 821 949 q 804 979 811 972 l 789 994 q 772 1015 782 1007 q 747 1022 763 1022 q 690 1006 736 1022 q 638 939 650 981 q 635 928 635 933 q 635 919 635 922 q 635 906 635 913 q 639 894 636 900 l 646 868 q 666 838 653 853 q 694 814 679 824 l 700 810 z "},"":{"ha":901,"x_min":29,"x_max":1168,"o":"m 735 963 q 767 991 750 978 q 799 1004 783 1004 q 829 993 814 1004 q 839 935 853 969 q 828 917 836 925 q 811 900 819 908 l 778 868 q 755 851 768 860 q 727 837 742 843 q 699 826 713 831 q 675 822 685 822 q 663 825 665 822 l 658 831 q 651 846 651 838 q 657 869 651 860 q 677 903 664 889 q 701 932 690 918 l 735 963 m 324 736 l 1115 736 q 1083 685 1106 717 q 1034 624 1060 654 q 984 571 1008 593 q 949 549 960 549 l 521 549 l 442 331 l 574 458 l 894 458 l 696 271 l 419 271 l 389 188 l 921 188 q 914 176 919 185 q 903 157 908 167 q 892 139 897 147 q 885 129 886 131 q 851 90 872 113 q 808 48 829 68 q 772 14 788 28 q 754 0 756 0 l 56 0 l 324 736 m 29 -19 l 39 -19 l 63 -43 l 782 -43 q 801 -29 783 -43 q 841 6 818 -15 q 887 49 864 26 q 924 90 910 72 l 925 92 q 935 106 928 94 q 949 132 942 118 q 964 158 957 146 q 974 175 971 171 l 949 199 q 951 203 950 201 q 953 207 951 206 l 450 207 l 457 228 l 731 228 l 961 446 l 936 471 l 943 478 l 565 478 l 539 451 l 558 506 l 976 506 q 1017 531 989 506 q 1074 592 1044 557 q 1131 665 1104 628 q 1168 724 1157 701 l 1143 749 q 1147 756 1144 750 l 311 756 l 29 -19 m 685 942 l 681 938 q 678 933 678 935 l 676 933 q 673 929 675 931 q 669 925 671 928 l 671 926 q 654 904 663 915 q 639 876 646 893 q 632 846 632 864 q 643 818 632 829 l 644 817 l 647 813 q 661 804 651 806 l 678 788 q 703 779 686 779 q 729 783 714 779 q 760 795 744 788 q 791 812 776 803 q 815 829 806 821 l 850 861 l 854 865 q 868 881 861 872 q 879 900 875 889 l 881 900 q 888 931 888 913 q 869 975 888 957 l 857 986 q 844 1006 853 997 q 799 1024 817 1024 q 755 1006 776 1024 q 714 969 733 989 l 685 942 z "},"":{"ha":901,"x_min":29,"x_max":1168,"o":"m 668 828 l 542 828 l 690 974 q 706 984 697 978 q 722 990 715 990 l 808 990 q 828 978 819 990 q 843 958 838 967 l 908 828 l 794 828 l 750 910 l 668 828 m 324 736 l 1115 736 q 1083 685 1106 717 q 1034 624 1060 654 q 984 571 1008 593 q 949 549 960 549 l 521 549 l 442 331 l 574 458 l 894 458 l 696 271 l 419 271 l 389 188 l 921 188 q 914 176 919 185 q 903 157 908 167 q 892 139 897 147 q 885 129 886 131 q 851 90 872 113 q 808 48 829 68 q 772 14 788 28 q 754 0 756 0 l 56 0 l 324 736 m 29 -19 l 39 -19 l 63 -43 l 782 -43 q 801 -29 783 -43 q 841 6 818 -15 q 887 49 864 26 q 924 90 910 72 l 925 92 q 935 106 928 94 q 949 132 942 118 q 964 158 957 146 q 974 175 971 171 l 949 199 q 951 203 950 201 q 953 207 951 206 l 450 207 l 457 228 l 731 228 l 961 446 l 936 471 l 943 478 l 565 478 l 539 451 l 558 506 l 976 506 q 1017 531 989 506 q 1074 592 1044 557 q 1131 665 1104 628 q 1168 724 1157 701 l 1143 749 q 1147 756 1144 750 l 311 756 l 29 -19 m 782 808 l 789 808 l 813 785 l 961 785 l 886 933 q 876 948 882 940 q 864 963 871 956 l 863 963 l 863 964 l 860 969 q 840 995 853 981 q 808 1010 828 1010 l 722 1010 q 704 1004 714 1010 q 683 992 694 999 l 685 993 l 679 990 l 494 808 l 508 808 l 532 785 l 703 785 l 763 844 l 782 808 z "},"":{"ha":901,"x_min":29,"x_max":1168,"o":"m 988 907 q 941 849 975 872 q 869 825 907 825 q 815 849 832 825 q 811 907 799 872 q 858 965 824 942 q 929 989 892 989 q 983 965 967 989 q 988 907 1000 942 m 560 907 q 606 965 572 942 q 676 989 639 989 q 731 965 714 989 q 736 907 749 942 q 689 849 724 872 q 617 825 654 825 q 563 849 579 825 q 560 907 547 872 m 324 736 l 1115 736 q 1083 685 1106 717 q 1034 624 1060 654 q 984 571 1008 593 q 949 549 960 549 l 521 549 l 442 331 l 574 458 l 894 458 l 696 271 l 419 271 l 389 188 l 921 188 q 914 176 919 185 q 903 157 908 167 q 892 139 897 147 q 885 129 886 131 q 851 90 872 113 q 808 48 829 68 q 772 14 788 28 q 754 0 756 0 l 56 0 l 324 736 m 29 -19 l 39 -19 l 63 -43 l 782 -43 q 801 -29 783 -43 q 841 6 818 -15 q 887 49 864 26 q 924 90 910 72 l 925 92 q 935 106 928 94 q 949 132 942 118 q 964 158 957 146 q 974 175 971 171 l 949 199 q 951 203 951 201 q 953 207 951 206 l 450 207 l 457 228 l 731 228 l 961 446 l 936 471 l 943 478 l 565 478 l 539 451 l 558 506 l 976 506 q 1017 531 989 506 q 1074 592 1044 557 q 1131 665 1104 628 q 1168 724 1157 701 l 1143 749 q 1147 756 1144 750 l 311 756 l 29 -19 m 836 804 q 897 782 858 782 q 977 808 939 782 q 1029 874 1015 835 q 1036 907 1036 889 q 1018 954 1036 936 l 1014 958 q 1014 957 1014 957 q 1015 956 1015 957 l 1007 964 q 978 996 999 983 q 929 1008 958 1008 q 847 981 886 1008 q 793 914 807 954 q 786 879 786 899 q 825 814 786 833 l 836 804 m 542 914 q 535 879 535 899 q 575 814 535 831 l 586 803 q 644 782 607 782 q 725 808 686 782 q 778 874 764 835 q 783 890 781 882 q 785 906 785 899 q 765 954 785 935 l 754 964 q 726 996 746 983 q 676 1008 706 1008 q 594 981 633 1008 q 542 914 556 954 z "}}}
